<?xml version="1.0" encoding="utf-8" standalone="no"?>
<!DOCTYPE svg PUBLIC "-//W3C//DTD SVG 1.1//EN"
  "http://www.w3.org/Graphics/SVG/1.1/DTD/svg11.dtd">
<svg xmlns:xlink="http://www.w3.org/1999/xlink" width="555.18435pt" height="197.015642pt" viewBox="0 0 555.18435 197.015642" xmlns="http://www.w3.org/2000/svg" version="1.1">
 <metadata>
  <rdf:RDF xmlns:dc="http://purl.org/dc/elements/1.1/" xmlns:cc="http://creativecommons.org/ns#" xmlns:rdf="http://www.w3.org/1999/02/22-rdf-syntax-ns#">
   <cc:Work>
    <dc:type rdf:resource="http://purl.org/dc/dcmitype/StillImage"/>
    <dc:date>2022-11-30T22:49:21.161577</dc:date>
    <dc:format>image/svg+xml</dc:format>
    <dc:creator>
     <cc:Agent>
      <dc:title>Matplotlib v3.5.1, https://matplotlib.org/</dc:title>
     </cc:Agent>
    </dc:creator>
   </cc:Work>
  </rdf:RDF>
 </metadata>
 <defs>
  <style type="text/css">*{stroke-linejoin: round; stroke-linecap: butt}</style>
 </defs>
 <g id="figure_1">
  <g id="patch_1">
   <path d="M 0 197.015642 
L 555.18435 197.015642 
L 555.18435 0 
L 0 0 
L 0 197.015642 
z
" style="fill: none"/>
  </g>
  <g id="axes_1">
   <g id="patch_2">
    <path d="M 49.88575 169.829892 
L 171.72915 169.829892 
L 171.72915 53.475624 
L 49.88575 53.475624 
z
" style="fill: #ffffff"/>
   </g>
   <g id="matplotlib.axis_1">
    <g id="text_1">
     <!-- Value -->
     <g transform="translate(90.7737 186.050892)scale(0.176 -0.176)">
      <defs>
       <path id="TimesNewRomanPSMT-56" d="M 4544 4238 
L 4544 4122 
Q 4319 4081 4203 3978 
Q 4038 3825 3909 3509 
L 2431 -97 
L 2316 -97 
L 728 3556 
Q 606 3838 556 3900 
Q 478 3997 364 4051 
Q 250 4106 56 4122 
L 56 4238 
L 1788 4238 
L 1788 4122 
Q 1494 4094 1406 4022 
Q 1319 3950 1319 3838 
Q 1319 3681 1463 3350 
L 2541 866 
L 3541 3319 
Q 3688 3681 3688 3822 
Q 3688 3913 3597 3995 
Q 3506 4078 3291 4113 
Q 3275 4116 3238 4122 
L 3238 4238 
L 4544 4238 
z
" transform="scale(0.015625)"/>
       <path id="TimesNewRomanPSMT-61" d="M 1822 413 
Q 1381 72 1269 19 
Q 1100 -59 909 -59 
Q 613 -59 420 144 
Q 228 347 228 678 
Q 228 888 322 1041 
Q 450 1253 767 1440 
Q 1084 1628 1822 1897 
L 1822 2009 
Q 1822 2438 1686 2597 
Q 1550 2756 1291 2756 
Q 1094 2756 978 2650 
Q 859 2544 859 2406 
L 866 2225 
Q 866 2081 792 2003 
Q 719 1925 600 1925 
Q 484 1925 411 2006 
Q 338 2088 338 2228 
Q 338 2497 613 2722 
Q 888 2947 1384 2947 
Q 1766 2947 2009 2819 
Q 2194 2722 2281 2516 
Q 2338 2381 2338 1966 
L 2338 994 
Q 2338 584 2353 492 
Q 2369 400 2405 369 
Q 2441 338 2488 338 
Q 2538 338 2575 359 
Q 2641 400 2828 588 
L 2828 413 
Q 2478 -56 2159 -56 
Q 2006 -56 1915 50 
Q 1825 156 1822 413 
z
M 1822 616 
L 1822 1706 
Q 1350 1519 1213 1441 
Q 966 1303 859 1153 
Q 753 1003 753 825 
Q 753 600 887 451 
Q 1022 303 1197 303 
Q 1434 303 1822 616 
z
" transform="scale(0.015625)"/>
       <path id="TimesNewRomanPSMT-6c" d="M 1184 4444 
L 1184 647 
Q 1184 378 1223 290 
Q 1263 203 1344 158 
Q 1425 113 1647 113 
L 1647 0 
L 244 0 
L 244 113 
Q 441 113 512 153 
Q 584 194 625 287 
Q 666 381 666 647 
L 666 3247 
Q 666 3731 644 3842 
Q 622 3953 573 3993 
Q 525 4034 450 4034 
Q 369 4034 244 3984 
L 191 4094 
L 1044 4444 
L 1184 4444 
z
" transform="scale(0.015625)"/>
       <path id="TimesNewRomanPSMT-75" d="M 2709 2863 
L 2709 1128 
Q 2709 631 2732 520 
Q 2756 409 2807 365 
Q 2859 322 2928 322 
Q 3025 322 3147 375 
L 3191 266 
L 2334 -88 
L 2194 -88 
L 2194 519 
Q 1825 119 1631 15 
Q 1438 -88 1222 -88 
Q 981 -88 804 51 
Q 628 191 559 409 
Q 491 628 491 1028 
L 491 2306 
Q 491 2509 447 2587 
Q 403 2666 317 2708 
Q 231 2750 6 2747 
L 6 2863 
L 1009 2863 
L 1009 947 
Q 1009 547 1148 422 
Q 1288 297 1484 297 
Q 1619 297 1789 381 
Q 1959 466 2194 703 
L 2194 2325 
Q 2194 2569 2105 2655 
Q 2016 2741 1734 2747 
L 1734 2863 
L 2709 2863 
z
" transform="scale(0.015625)"/>
       <path id="TimesNewRomanPSMT-65" d="M 681 1784 
Q 678 1147 991 784 
Q 1303 422 1725 422 
Q 2006 422 2214 576 
Q 2422 731 2563 1106 
L 2659 1044 
Q 2594 616 2278 264 
Q 1963 -88 1488 -88 
Q 972 -88 605 314 
Q 238 716 238 1394 
Q 238 2128 614 2539 
Q 991 2950 1559 2950 
Q 2041 2950 2350 2633 
Q 2659 2316 2659 1784 
L 681 1784 
z
M 681 1966 
L 2006 1966 
Q 1991 2241 1941 2353 
Q 1863 2528 1708 2628 
Q 1553 2728 1384 2728 
Q 1125 2728 920 2526 
Q 716 2325 681 1966 
z
" transform="scale(0.015625)"/>
      </defs>
      <use xlink:href="#TimesNewRomanPSMT-56"/>
      <use xlink:href="#TimesNewRomanPSMT-61" x="61.091797"/>
      <use xlink:href="#TimesNewRomanPSMT-6c" x="105.476562"/>
      <use xlink:href="#TimesNewRomanPSMT-75" x="133.259766"/>
      <use xlink:href="#TimesNewRomanPSMT-65" x="183.259766"/>
     </g>
    </g>
   </g>
   <g id="matplotlib.axis_2">
    <g id="ytick_1">
     <g id="line2d_1">
      <path d="M 49.88575 169.829892 
L 171.72915 169.829892 
" clip-path="url(#pe247b2cdb8)" style="fill: none; stroke-dasharray: 7.4,3.2; stroke-dashoffset: 0; stroke: #b0b0b0; stroke-opacity: 0.5; stroke-width: 2"/>
     </g>
     <g id="line2d_2">
      <defs>
       <path id="me0a2d361c9" d="M 0 0 
L -3.5 0 
" style="stroke: #000000; stroke-width: 2"/>
      </defs>
      <g>
       <use xlink:href="#me0a2d361c9" x="49.88575" y="169.829892" style="stroke: #000000; stroke-width: 2"/>
      </g>
     </g>
     <g id="text_2">
      <!-- 0 -->
      <g transform="translate(27.18575 175.384892)scale(0.16 -0.16)">
       <defs>
        <path id="TimesNewRomanPSMT-30" d="M 231 2094 
Q 231 2819 450 3342 
Q 669 3866 1031 4122 
Q 1313 4325 1613 4325 
Q 2100 4325 2488 3828 
Q 2972 3213 2972 2159 
Q 2972 1422 2759 906 
Q 2547 391 2217 158 
Q 1888 -75 1581 -75 
Q 975 -75 572 641 
Q 231 1244 231 2094 
z
M 844 2016 
Q 844 1141 1059 588 
Q 1238 122 1591 122 
Q 1759 122 1940 273 
Q 2122 425 2216 781 
Q 2359 1319 2359 2297 
Q 2359 3022 2209 3506 
Q 2097 3866 1919 4016 
Q 1791 4119 1609 4119 
Q 1397 4119 1231 3928 
Q 1006 3669 925 3112 
Q 844 2556 844 2016 
z
" transform="scale(0.015625)"/>
       </defs>
       <use xlink:href="#TimesNewRomanPSMT-30"/>
      </g>
     </g>
    </g>
    <g id="ytick_2">
     <g id="line2d_3">
      <path d="M 49.88575 139.608004 
L 171.72915 139.608004 
" clip-path="url(#pe247b2cdb8)" style="fill: none; stroke-dasharray: 7.4,3.2; stroke-dashoffset: 0; stroke: #b0b0b0; stroke-opacity: 0.5; stroke-width: 2"/>
     </g>
     <g id="line2d_4">
      <g>
       <use xlink:href="#me0a2d361c9" x="49.88575" y="139.608004" style="stroke: #000000; stroke-width: 2"/>
      </g>
     </g>
     <g id="text_3">
      <!-- 2 -->
      <g transform="translate(27.18575 145.163004)scale(0.16 -0.16)">
       <defs>
        <path id="TimesNewRomanPSMT-32" d="M 2934 816 
L 2638 0 
L 138 0 
L 138 116 
Q 1241 1122 1691 1759 
Q 2141 2397 2141 2925 
Q 2141 3328 1894 3587 
Q 1647 3847 1303 3847 
Q 991 3847 742 3664 
Q 494 3481 375 3128 
L 259 3128 
Q 338 3706 661 4015 
Q 984 4325 1469 4325 
Q 1984 4325 2329 3994 
Q 2675 3663 2675 3213 
Q 2675 2891 2525 2569 
Q 2294 2063 1775 1497 
Q 997 647 803 472 
L 1909 472 
Q 2247 472 2383 497 
Q 2519 522 2628 598 
Q 2738 675 2819 816 
L 2934 816 
z
" transform="scale(0.015625)"/>
       </defs>
       <use xlink:href="#TimesNewRomanPSMT-32"/>
      </g>
     </g>
    </g>
    <g id="ytick_3">
     <g id="line2d_5">
      <path d="M 49.88575 109.386116 
L 171.72915 109.386116 
" clip-path="url(#pe247b2cdb8)" style="fill: none; stroke-dasharray: 7.4,3.2; stroke-dashoffset: 0; stroke: #b0b0b0; stroke-opacity: 0.5; stroke-width: 2"/>
     </g>
     <g id="line2d_6">
      <g>
       <use xlink:href="#me0a2d361c9" x="49.88575" y="109.386116" style="stroke: #000000; stroke-width: 2"/>
      </g>
     </g>
     <g id="text_4">
      <!-- 4 -->
      <g transform="translate(27.18575 114.941116)scale(0.16 -0.16)">
       <defs>
        <path id="TimesNewRomanPSMT-34" d="M 2978 1563 
L 2978 1119 
L 2409 1119 
L 2409 0 
L 1894 0 
L 1894 1119 
L 100 1119 
L 100 1519 
L 2066 4325 
L 2409 4325 
L 2409 1563 
L 2978 1563 
z
M 1894 1563 
L 1894 3666 
L 406 1563 
L 1894 1563 
z
" transform="scale(0.015625)"/>
       </defs>
       <use xlink:href="#TimesNewRomanPSMT-34"/>
      </g>
     </g>
    </g>
    <g id="ytick_4">
     <g id="line2d_7">
      <path d="M 49.88575 79.164229 
L 171.72915 79.164229 
" clip-path="url(#pe247b2cdb8)" style="fill: none; stroke-dasharray: 7.4,3.2; stroke-dashoffset: 0; stroke: #b0b0b0; stroke-opacity: 0.5; stroke-width: 2"/>
     </g>
     <g id="line2d_8">
      <g>
       <use xlink:href="#me0a2d361c9" x="49.88575" y="79.164229" style="stroke: #000000; stroke-width: 2"/>
      </g>
     </g>
     <g id="text_5">
      <!-- 6 -->
      <g transform="translate(27.18575 84.719229)scale(0.16 -0.16)">
       <defs>
        <path id="TimesNewRomanPSMT-36" d="M 2869 4325 
L 2869 4209 
Q 2456 4169 2195 4045 
Q 1934 3922 1679 3669 
Q 1425 3416 1258 3105 
Q 1091 2794 978 2366 
Q 1428 2675 1881 2675 
Q 2316 2675 2634 2325 
Q 2953 1975 2953 1425 
Q 2953 894 2631 456 
Q 2244 -75 1606 -75 
Q 1172 -75 869 213 
Q 275 772 275 1663 
Q 275 2231 503 2743 
Q 731 3256 1154 3653 
Q 1578 4050 1965 4187 
Q 2353 4325 2688 4325 
L 2869 4325 
z
M 925 2138 
Q 869 1716 869 1456 
Q 869 1156 980 804 
Q 1091 453 1309 247 
Q 1469 100 1697 100 
Q 1969 100 2183 356 
Q 2397 613 2397 1088 
Q 2397 1622 2184 2012 
Q 1972 2403 1581 2403 
Q 1463 2403 1327 2353 
Q 1191 2303 925 2138 
z
" transform="scale(0.015625)"/>
       </defs>
       <use xlink:href="#TimesNewRomanPSMT-36"/>
      </g>
     </g>
    </g>
    <g id="text_6">
     <!-- Count -->
     <g transform="translate(19.421 133.167383)rotate(-90)scale(0.176 -0.176)">
      <defs>
       <path id="TimesNewRomanPSMT-43" d="M 3853 4334 
L 3950 2894 
L 3853 2894 
Q 3659 3541 3300 3825 
Q 2941 4109 2438 4109 
Q 2016 4109 1675 3895 
Q 1334 3681 1139 3212 
Q 944 2744 944 2047 
Q 944 1472 1128 1050 
Q 1313 628 1683 403 
Q 2053 178 2528 178 
Q 2941 178 3256 354 
Q 3572 531 3950 1056 
L 4047 994 
Q 3728 428 3303 165 
Q 2878 -97 2294 -97 
Q 1241 -97 663 684 
Q 231 1266 231 2053 
Q 231 2688 515 3219 
Q 800 3750 1298 4042 
Q 1797 4334 2388 4334 
Q 2847 4334 3294 4109 
Q 3425 4041 3481 4041 
Q 3566 4041 3628 4100 
Q 3709 4184 3744 4334 
L 3853 4334 
z
" transform="scale(0.015625)"/>
       <path id="TimesNewRomanPSMT-6f" d="M 1600 2947 
Q 2250 2947 2644 2453 
Q 2978 2031 2978 1484 
Q 2978 1100 2793 706 
Q 2609 313 2286 112 
Q 1963 -88 1566 -88 
Q 919 -88 538 428 
Q 216 863 216 1403 
Q 216 1797 411 2186 
Q 606 2575 925 2761 
Q 1244 2947 1600 2947 
z
M 1503 2744 
Q 1338 2744 1170 2645 
Q 1003 2547 900 2300 
Q 797 2053 797 1666 
Q 797 1041 1045 587 
Q 1294 134 1700 134 
Q 2003 134 2200 384 
Q 2397 634 2397 1244 
Q 2397 2006 2069 2444 
Q 1847 2744 1503 2744 
z
" transform="scale(0.015625)"/>
       <path id="TimesNewRomanPSMT-6e" d="M 1034 2341 
Q 1538 2947 1994 2947 
Q 2228 2947 2397 2830 
Q 2566 2713 2666 2444 
Q 2734 2256 2734 1869 
L 2734 647 
Q 2734 375 2778 278 
Q 2813 200 2889 156 
Q 2966 113 3172 113 
L 3172 0 
L 1756 0 
L 1756 113 
L 1816 113 
Q 2016 113 2095 173 
Q 2175 234 2206 353 
Q 2219 400 2219 647 
L 2219 1819 
Q 2219 2209 2117 2386 
Q 2016 2563 1775 2563 
Q 1403 2563 1034 2156 
L 1034 647 
Q 1034 356 1069 288 
Q 1113 197 1189 155 
Q 1266 113 1500 113 
L 1500 0 
L 84 0 
L 84 113 
L 147 113 
Q 366 113 442 223 
Q 519 334 519 647 
L 519 1709 
Q 519 2225 495 2337 
Q 472 2450 423 2490 
Q 375 2531 294 2531 
Q 206 2531 84 2484 
L 38 2597 
L 900 2947 
L 1034 2947 
L 1034 2341 
z
" transform="scale(0.015625)"/>
       <path id="TimesNewRomanPSMT-74" d="M 1031 3803 
L 1031 2863 
L 1700 2863 
L 1700 2644 
L 1031 2644 
L 1031 788 
Q 1031 509 1111 412 
Q 1191 316 1316 316 
Q 1419 316 1516 380 
Q 1613 444 1666 569 
L 1788 569 
Q 1678 263 1478 108 
Q 1278 -47 1066 -47 
Q 922 -47 784 33 
Q 647 113 581 261 
Q 516 409 516 719 
L 516 2644 
L 63 2644 
L 63 2747 
Q 234 2816 414 2980 
Q 594 3144 734 3369 
Q 806 3488 934 3803 
L 1031 3803 
z
" transform="scale(0.015625)"/>
      </defs>
      <use xlink:href="#TimesNewRomanPSMT-43"/>
      <use xlink:href="#TimesNewRomanPSMT-6f" x="66.699219"/>
      <use xlink:href="#TimesNewRomanPSMT-75" x="116.699219"/>
      <use xlink:href="#TimesNewRomanPSMT-6e" x="166.699219"/>
      <use xlink:href="#TimesNewRomanPSMT-74" x="216.699219"/>
     </g>
    </g>
   </g>
   <g id="patch_3">
    <path d="M 55.424086 169.829892 
L 61.939776 169.829892 
L 61.939776 169.829892 
L 55.424086 169.829892 
z
" clip-path="url(#pe247b2cdb8)" style="fill: #cc6677; fill-opacity: 0.5; stroke: #000000; stroke-width: 0.48; stroke-linejoin: miter"/>
   </g>
   <g id="patch_4">
    <path d="M 61.939776 169.829892 
L 68.455466 169.829892 
L 68.455466 169.829892 
L 61.939776 169.829892 
z
" clip-path="url(#pe247b2cdb8)" style="fill: #cc6677; fill-opacity: 0.5; stroke: #000000; stroke-width: 0.48; stroke-linejoin: miter"/>
   </g>
   <g id="patch_5">
    <path d="M 68.455466 169.829892 
L 74.971156 169.829892 
L 74.971156 169.829892 
L 68.455466 169.829892 
z
" clip-path="url(#pe247b2cdb8)" style="fill: #cc6677; fill-opacity: 0.5; stroke: #000000; stroke-width: 0.48; stroke-linejoin: miter"/>
   </g>
   <g id="patch_6">
    <path d="M 74.971156 169.829892 
L 81.486846 169.829892 
L 81.486846 169.829892 
L 74.971156 169.829892 
z
" clip-path="url(#pe247b2cdb8)" style="fill: #cc6677; fill-opacity: 0.5; stroke: #000000; stroke-width: 0.48; stroke-linejoin: miter"/>
   </g>
   <g id="patch_7">
    <path d="M 81.486846 169.829892 
L 88.002536 169.829892 
L 88.002536 169.829892 
L 81.486846 169.829892 
z
" clip-path="url(#pe247b2cdb8)" style="fill: #cc6677; fill-opacity: 0.5; stroke: #000000; stroke-width: 0.48; stroke-linejoin: miter"/>
   </g>
   <g id="patch_8">
    <path d="M 88.002536 169.829892 
L 94.518225 169.829892 
L 94.518225 169.829892 
L 88.002536 169.829892 
z
" clip-path="url(#pe247b2cdb8)" style="fill: #cc6677; fill-opacity: 0.5; stroke: #000000; stroke-width: 0.48; stroke-linejoin: miter"/>
   </g>
   <g id="patch_9">
    <path d="M 94.518225 169.829892 
L 101.033915 169.829892 
L 101.033915 169.829892 
L 94.518225 169.829892 
z
" clip-path="url(#pe247b2cdb8)" style="fill: #cc6677; fill-opacity: 0.5; stroke: #000000; stroke-width: 0.48; stroke-linejoin: miter"/>
   </g>
   <g id="patch_10">
    <path d="M 101.033915 169.829892 
L 107.549605 169.829892 
L 107.549605 169.829892 
L 101.033915 169.829892 
z
" clip-path="url(#pe247b2cdb8)" style="fill: #cc6677; fill-opacity: 0.5; stroke: #000000; stroke-width: 0.48; stroke-linejoin: miter"/>
   </g>
   <g id="patch_11">
    <path d="M 107.549605 169.829892 
L 114.065295 169.829892 
L 114.065295 169.829892 
L 107.549605 169.829892 
z
" clip-path="url(#pe247b2cdb8)" style="fill: #cc6677; fill-opacity: 0.5; stroke: #000000; stroke-width: 0.48; stroke-linejoin: miter"/>
   </g>
   <g id="patch_12">
    <path d="M 114.065295 169.829892 
L 120.580985 169.829892 
L 120.580985 124.49706 
L 114.065295 124.49706 
z
" clip-path="url(#pe247b2cdb8)" style="fill: #cc6677; fill-opacity: 0.5; stroke: #000000; stroke-width: 0.48; stroke-linejoin: miter"/>
   </g>
   <g id="patch_13">
    <path d="M 120.580985 169.829892 
L 127.096675 169.829892 
L 127.096675 109.386116 
L 120.580985 109.386116 
z
" clip-path="url(#pe247b2cdb8)" style="fill: #cc6677; fill-opacity: 0.5; stroke: #000000; stroke-width: 0.48; stroke-linejoin: miter"/>
   </g>
   <g id="patch_14">
    <path d="M 127.096675 169.829892 
L 133.612364 169.829892 
L 133.612364 94.275173 
L 127.096675 94.275173 
z
" clip-path="url(#pe247b2cdb8)" style="fill: #cc6677; fill-opacity: 0.5; stroke: #000000; stroke-width: 0.48; stroke-linejoin: miter"/>
   </g>
   <g id="patch_15">
    <path d="M 133.612364 169.829892 
L 140.128054 169.829892 
L 140.128054 124.49706 
L 133.612364 124.49706 
z
" clip-path="url(#pe247b2cdb8)" style="fill: #cc6677; fill-opacity: 0.5; stroke: #000000; stroke-width: 0.48; stroke-linejoin: miter"/>
   </g>
   <g id="patch_16">
    <path d="M 140.128054 169.829892 
L 146.643744 169.829892 
L 146.643744 94.275173 
L 140.128054 94.275173 
z
" clip-path="url(#pe247b2cdb8)" style="fill: #cc6677; fill-opacity: 0.5; stroke: #000000; stroke-width: 0.48; stroke-linejoin: miter"/>
   </g>
   <g id="patch_17">
    <path d="M 146.643744 169.829892 
L 153.159434 169.829892 
L 153.159434 109.386116 
L 146.643744 109.386116 
z
" clip-path="url(#pe247b2cdb8)" style="fill: #cc6677; fill-opacity: 0.5; stroke: #000000; stroke-width: 0.48; stroke-linejoin: miter"/>
   </g>
   <g id="patch_18">
    <path d="M 153.159434 169.829892 
L 159.675124 169.829892 
L 159.675124 169.829892 
L 153.159434 169.829892 
z
" clip-path="url(#pe247b2cdb8)" style="fill: #cc6677; fill-opacity: 0.5; stroke: #000000; stroke-width: 0.48; stroke-linejoin: miter"/>
   </g>
   <g id="patch_19">
    <path d="M 159.675124 169.829892 
L 166.190814 169.829892 
L 166.190814 154.718948 
L 159.675124 154.718948 
z
" clip-path="url(#pe247b2cdb8)" style="fill: #cc6677; fill-opacity: 0.5; stroke: #000000; stroke-width: 0.48; stroke-linejoin: miter"/>
   </g>
   <g id="line2d_9">
    <path d="M 55.424086 169.829892 
L 93.83064 169.744148 
L 96.613724 169.525076 
L 98.283574 169.227602 
L 99.953424 168.708268 
L 101.066657 168.186402 
L 102.179891 167.482594 
L 103.293124 166.56075 
L 104.406358 165.387793 
L 105.519591 163.93729 
L 106.632825 162.192851 
L 108.302675 159.020174 
L 109.972525 155.222178 
L 111.642375 150.893002 
L 113.868842 144.492772 
L 116.651926 135.793619 
L 123.331326 114.247418 
L 125.001176 109.960395 
L 126.11441 107.725705 
L 127.227643 106.101518 
L 127.78426 105.538231 
L 128.340877 105.145997 
L 128.897493 104.924863 
L 129.45411 104.871644 
L 130.010727 104.979906 
L 130.567344 105.240069 
L 131.680577 106.163359 
L 132.79381 107.512095 
L 134.463661 109.985749 
L 136.690127 113.273872 
L 137.803361 114.615426 
L 138.916594 115.654012 
L 140.029828 116.379178 
L 141.143061 116.833548 
L 142.812911 117.210651 
L 144.482762 117.608246 
L 145.595995 118.116571 
L 146.709228 118.964137 
L 147.822462 120.241501 
L 148.935695 121.998562 
L 150.048929 124.240196 
L 151.162162 126.927328 
L 152.832012 131.617124 
L 158.954796 149.846413 
L 160.624646 153.784316 
L 162.294497 157.082109 
L 163.964347 159.806284 
L 165.634197 162.056035 
L 166.190814 162.716856 
L 166.190814 162.716856 
" clip-path="url(#pe247b2cdb8)" style="fill: none; stroke: #cc6677; stroke-width: 2.8; stroke-linecap: square"/>
   </g>
   <g id="LineCollection_1">
    <path d="M 144.258726 169.829892 
L 144.258726 166.921035 
" clip-path="url(#pe247b2cdb8)" style="fill: none; stroke: #cc6677"/>
    <path d="M 133.686858 169.829892 
L 133.686858 166.921035 
" clip-path="url(#pe247b2cdb8)" style="fill: none; stroke: #cc6677"/>
    <path d="M 144.897876 169.829892 
L 144.897876 166.921035 
" clip-path="url(#pe247b2cdb8)" style="fill: none; stroke: #cc6677"/>
    <path d="M 134.324512 169.829892 
L 134.324512 166.921035 
" clip-path="url(#pe247b2cdb8)" style="fill: none; stroke: #cc6677"/>
    <path d="M 131.776148 169.829892 
L 131.776148 166.921035 
" clip-path="url(#pe247b2cdb8)" style="fill: none; stroke: #cc6677"/>
    <path d="M 141.216874 169.829892 
L 141.216874 166.921035 
" clip-path="url(#pe247b2cdb8)" style="fill: none; stroke: #cc6677"/>
    <path d="M 130.889888 169.829892 
L 130.889888 166.921035 
" clip-path="url(#pe247b2cdb8)" style="fill: none; stroke: #cc6677"/>
    <path d="M 151.247346 169.829892 
L 151.247346 166.921035 
" clip-path="url(#pe247b2cdb8)" style="fill: none; stroke: #cc6677"/>
    <path d="M 145.649402 169.829892 
L 145.649402 166.921035 
" clip-path="url(#pe247b2cdb8)" style="fill: none; stroke: #cc6677"/>
    <path d="M 124.519069 169.829892 
L 124.519069 166.921035 
" clip-path="url(#pe247b2cdb8)" style="fill: none; stroke: #cc6677"/>
    <path d="M 115.22273 169.829892 
L 115.22273 166.921035 
" clip-path="url(#pe247b2cdb8)" style="fill: none; stroke: #cc6677"/>
    <path d="M 126.407676 169.829892 
L 126.407676 166.921035 
" clip-path="url(#pe247b2cdb8)" style="fill: none; stroke: #cc6677"/>
    <path d="M 124.788804 169.829892 
L 124.788804 166.921035 
" clip-path="url(#pe247b2cdb8)" style="fill: none; stroke: #cc6677"/>
    <path d="M 116.888212 169.829892 
L 116.888212 166.921035 
" clip-path="url(#pe247b2cdb8)" style="fill: none; stroke: #cc6677"/>
    <path d="M 128.919735 169.829892 
L 128.919735 166.921035 
" clip-path="url(#pe247b2cdb8)" style="fill: none; stroke: #cc6677"/>
    <path d="M 127.975368 169.829892 
L 127.975368 166.921035 
" clip-path="url(#pe247b2cdb8)" style="fill: none; stroke: #cc6677"/>
    <path d="M 162.34969 169.829892 
L 162.34969 166.921035 
" clip-path="url(#pe247b2cdb8)" style="fill: none; stroke: #cc6677"/>
    <path d="M 136.329381 169.829892 
L 136.329381 166.921035 
" clip-path="url(#pe247b2cdb8)" style="fill: none; stroke: #cc6677"/>
    <path d="M 152.494783 169.829892 
L 152.494783 166.921035 
" clip-path="url(#pe247b2cdb8)" style="fill: none; stroke: #cc6677"/>
    <path d="M 150.133459 169.829892 
L 150.133459 166.921035 
" clip-path="url(#pe247b2cdb8)" style="fill: none; stroke: #cc6677"/>
    <path d="M 150.879798 169.829892 
L 150.879798 166.921035 
" clip-path="url(#pe247b2cdb8)" style="fill: none; stroke: #cc6677"/>
    <path d="M 128.144156 169.829892 
L 128.144156 166.921035 
" clip-path="url(#pe247b2cdb8)" style="fill: none; stroke: #cc6677"/>
    <path d="M 115.411116 169.829892 
L 115.411116 166.921035 
" clip-path="url(#pe247b2cdb8)" style="fill: none; stroke: #cc6677"/>
    <path d="M 123.491346 169.829892 
L 123.491346 166.921035 
" clip-path="url(#pe247b2cdb8)" style="fill: none; stroke: #cc6677"/>
    <path d="M 144.679114 169.829892 
L 144.679114 166.921035 
" clip-path="url(#pe247b2cdb8)" style="fill: none; stroke: #cc6677"/>
   </g>
   <g id="patch_20">
    <path d="M 49.88575 169.829892 
L 49.88575 53.475624 
" style="fill: none; stroke: #000000; stroke-width: 2; stroke-linejoin: miter; stroke-linecap: square"/>
   </g>
   <g id="patch_21">
    <path d="M 49.88575 169.829892 
L 171.72915 169.829892 
" style="fill: none; stroke: #000000; stroke-width: 2; stroke-linejoin: miter; stroke-linecap: square"/>
   </g>
   <g id="text_7">
    <!-- Source 0 -->
    <g transform="translate(82.59245 47.475624)scale(0.16 -0.16)">
     <defs>
      <path id="TimesNewRomanPSMT-53" d="M 2934 4334 
L 2934 2869 
L 2819 2869 
Q 2763 3291 2617 3541 
Q 2472 3791 2203 3937 
Q 1934 4084 1647 4084 
Q 1322 4084 1109 3886 
Q 897 3688 897 3434 
Q 897 3241 1031 3081 
Q 1225 2847 1953 2456 
Q 2547 2138 2764 1967 
Q 2981 1797 3098 1565 
Q 3216 1334 3216 1081 
Q 3216 600 2842 251 
Q 2469 -97 1881 -97 
Q 1697 -97 1534 -69 
Q 1438 -53 1133 45 
Q 828 144 747 144 
Q 669 144 623 97 
Q 578 50 556 -97 
L 441 -97 
L 441 1356 
L 556 1356 
Q 638 900 775 673 
Q 913 447 1195 297 
Q 1478 147 1816 147 
Q 2206 147 2432 353 
Q 2659 559 2659 841 
Q 2659 997 2573 1156 
Q 2488 1316 2306 1453 
Q 2184 1547 1640 1851 
Q 1097 2156 867 2337 
Q 638 2519 519 2737 
Q 400 2956 400 3219 
Q 400 3675 750 4004 
Q 1100 4334 1641 4334 
Q 1978 4334 2356 4169 
Q 2531 4091 2603 4091 
Q 2684 4091 2736 4139 
Q 2788 4188 2819 4334 
L 2934 4334 
z
" transform="scale(0.015625)"/>
      <path id="TimesNewRomanPSMT-72" d="M 1038 2947 
L 1038 2303 
Q 1397 2947 1775 2947 
Q 1947 2947 2059 2842 
Q 2172 2738 2172 2600 
Q 2172 2478 2090 2393 
Q 2009 2309 1897 2309 
Q 1788 2309 1652 2417 
Q 1516 2525 1450 2525 
Q 1394 2525 1328 2463 
Q 1188 2334 1038 2041 
L 1038 669 
Q 1038 431 1097 309 
Q 1138 225 1241 169 
Q 1344 113 1538 113 
L 1538 0 
L 72 0 
L 72 113 
Q 291 113 397 181 
Q 475 231 506 341 
Q 522 394 522 644 
L 522 1753 
Q 522 2253 501 2348 
Q 481 2444 426 2487 
Q 372 2531 291 2531 
Q 194 2531 72 2484 
L 41 2597 
L 906 2947 
L 1038 2947 
z
" transform="scale(0.015625)"/>
      <path id="TimesNewRomanPSMT-63" d="M 2631 1088 
Q 2516 522 2178 217 
Q 1841 -88 1431 -88 
Q 944 -88 581 321 
Q 219 731 219 1428 
Q 219 2103 620 2525 
Q 1022 2947 1584 2947 
Q 2006 2947 2278 2723 
Q 2550 2500 2550 2259 
Q 2550 2141 2473 2067 
Q 2397 1994 2259 1994 
Q 2075 1994 1981 2113 
Q 1928 2178 1911 2362 
Q 1894 2547 1784 2644 
Q 1675 2738 1481 2738 
Q 1169 2738 978 2506 
Q 725 2200 725 1697 
Q 725 1184 976 792 
Q 1228 400 1656 400 
Q 1963 400 2206 609 
Q 2378 753 2541 1131 
L 2631 1088 
z
" transform="scale(0.015625)"/>
      <path id="TimesNewRomanPSMT-20" transform="scale(0.015625)"/>
     </defs>
     <use xlink:href="#TimesNewRomanPSMT-53"/>
     <use xlink:href="#TimesNewRomanPSMT-6f" x="55.615234"/>
     <use xlink:href="#TimesNewRomanPSMT-75" x="105.615234"/>
     <use xlink:href="#TimesNewRomanPSMT-72" x="155.615234"/>
     <use xlink:href="#TimesNewRomanPSMT-63" x="188.916016"/>
     <use xlink:href="#TimesNewRomanPSMT-65" x="233.300781"/>
     <use xlink:href="#TimesNewRomanPSMT-20" x="277.685547"/>
     <use xlink:href="#TimesNewRomanPSMT-30" x="302.685547"/>
    </g>
   </g>
  </g>
  <g id="axes_2">
   <g id="patch_22">
    <path d="M 175.30415 169.829892 
L 297.14755 169.829892 
L 297.14755 53.475624 
L 175.30415 53.475624 
z
" style="fill: #ffffff"/>
   </g>
   <g id="matplotlib.axis_3">
    <g id="text_8">
     <!-- Value -->
     <g transform="translate(216.1921 186.050892)scale(0.176 -0.176)">
      <use xlink:href="#TimesNewRomanPSMT-56"/>
      <use xlink:href="#TimesNewRomanPSMT-61" x="61.091797"/>
      <use xlink:href="#TimesNewRomanPSMT-6c" x="105.476562"/>
      <use xlink:href="#TimesNewRomanPSMT-75" x="133.259766"/>
      <use xlink:href="#TimesNewRomanPSMT-65" x="183.259766"/>
     </g>
    </g>
   </g>
   <g id="matplotlib.axis_4">
    <g id="ytick_5">
     <g id="line2d_10">
      <path d="M 175.30415 169.829892 
L 297.14755 169.829892 
" clip-path="url(#pffde048f88)" style="fill: none; stroke-dasharray: 7.4,3.2; stroke-dashoffset: 0; stroke: #b0b0b0; stroke-opacity: 0.5; stroke-width: 2"/>
     </g>
     <g id="line2d_11">
      <g>
       <use xlink:href="#me0a2d361c9" x="175.30415" y="169.829892" style="stroke: #000000; stroke-width: 2"/>
      </g>
     </g>
    </g>
    <g id="ytick_6">
     <g id="line2d_12">
      <path d="M 175.30415 139.608004 
L 297.14755 139.608004 
" clip-path="url(#pffde048f88)" style="fill: none; stroke-dasharray: 7.4,3.2; stroke-dashoffset: 0; stroke: #b0b0b0; stroke-opacity: 0.5; stroke-width: 2"/>
     </g>
     <g id="line2d_13">
      <g>
       <use xlink:href="#me0a2d361c9" x="175.30415" y="139.608004" style="stroke: #000000; stroke-width: 2"/>
      </g>
     </g>
    </g>
    <g id="ytick_7">
     <g id="line2d_14">
      <path d="M 175.30415 109.386116 
L 297.14755 109.386116 
" clip-path="url(#pffde048f88)" style="fill: none; stroke-dasharray: 7.4,3.2; stroke-dashoffset: 0; stroke: #b0b0b0; stroke-opacity: 0.5; stroke-width: 2"/>
     </g>
     <g id="line2d_15">
      <g>
       <use xlink:href="#me0a2d361c9" x="175.30415" y="109.386116" style="stroke: #000000; stroke-width: 2"/>
      </g>
     </g>
    </g>
    <g id="ytick_8">
     <g id="line2d_16">
      <path d="M 175.30415 79.164229 
L 297.14755 79.164229 
" clip-path="url(#pffde048f88)" style="fill: none; stroke-dasharray: 7.4,3.2; stroke-dashoffset: 0; stroke: #b0b0b0; stroke-opacity: 0.5; stroke-width: 2"/>
     </g>
     <g id="line2d_17">
      <g>
       <use xlink:href="#me0a2d361c9" x="175.30415" y="79.164229" style="stroke: #000000; stroke-width: 2"/>
      </g>
     </g>
    </g>
   </g>
   <g id="patch_23">
    <path d="M 180.842486 169.829892 
L 187.358176 169.829892 
L 187.358176 154.718948 
L 180.842486 154.718948 
z
" clip-path="url(#pffde048f88)" style="fill: #882255; fill-opacity: 0.5; stroke: #000000; stroke-width: 0.48; stroke-linejoin: miter"/>
   </g>
   <g id="patch_24">
    <path d="M 187.358176 169.829892 
L 193.873866 169.829892 
L 193.873866 169.829892 
L 187.358176 169.829892 
z
" clip-path="url(#pffde048f88)" style="fill: #882255; fill-opacity: 0.5; stroke: #000000; stroke-width: 0.48; stroke-linejoin: miter"/>
   </g>
   <g id="patch_25">
    <path d="M 193.873866 169.829892 
L 200.389556 169.829892 
L 200.389556 169.829892 
L 193.873866 169.829892 
z
" clip-path="url(#pffde048f88)" style="fill: #882255; fill-opacity: 0.5; stroke: #000000; stroke-width: 0.48; stroke-linejoin: miter"/>
   </g>
   <g id="patch_26">
    <path d="M 200.389556 169.829892 
L 206.905246 169.829892 
L 206.905246 169.829892 
L 200.389556 169.829892 
z
" clip-path="url(#pffde048f88)" style="fill: #882255; fill-opacity: 0.5; stroke: #000000; stroke-width: 0.48; stroke-linejoin: miter"/>
   </g>
   <g id="patch_27">
    <path d="M 206.905246 169.829892 
L 213.420936 169.829892 
L 213.420936 169.829892 
L 206.905246 169.829892 
z
" clip-path="url(#pffde048f88)" style="fill: #882255; fill-opacity: 0.5; stroke: #000000; stroke-width: 0.48; stroke-linejoin: miter"/>
   </g>
   <g id="patch_28">
    <path d="M 213.420936 169.829892 
L 219.936625 169.829892 
L 219.936625 169.829892 
L 213.420936 169.829892 
z
" clip-path="url(#pffde048f88)" style="fill: #882255; fill-opacity: 0.5; stroke: #000000; stroke-width: 0.48; stroke-linejoin: miter"/>
   </g>
   <g id="patch_29">
    <path d="M 219.936625 169.829892 
L 226.452315 169.829892 
L 226.452315 169.829892 
L 219.936625 169.829892 
z
" clip-path="url(#pffde048f88)" style="fill: #882255; fill-opacity: 0.5; stroke: #000000; stroke-width: 0.48; stroke-linejoin: miter"/>
   </g>
   <g id="patch_30">
    <path d="M 226.452315 169.829892 
L 232.968005 169.829892 
L 232.968005 169.829892 
L 226.452315 169.829892 
z
" clip-path="url(#pffde048f88)" style="fill: #882255; fill-opacity: 0.5; stroke: #000000; stroke-width: 0.48; stroke-linejoin: miter"/>
   </g>
   <g id="patch_31">
    <path d="M 232.968005 169.829892 
L 239.483695 169.829892 
L 239.483695 154.718948 
L 232.968005 154.718948 
z
" clip-path="url(#pffde048f88)" style="fill: #882255; fill-opacity: 0.5; stroke: #000000; stroke-width: 0.48; stroke-linejoin: miter"/>
   </g>
   <g id="patch_32">
    <path d="M 239.483695 169.829892 
L 245.999385 169.829892 
L 245.999385 154.718948 
L 239.483695 154.718948 
z
" clip-path="url(#pffde048f88)" style="fill: #882255; fill-opacity: 0.5; stroke: #000000; stroke-width: 0.48; stroke-linejoin: miter"/>
   </g>
   <g id="patch_33">
    <path d="M 245.999385 169.829892 
L 252.515075 169.829892 
L 252.515075 139.608004 
L 245.999385 139.608004 
z
" clip-path="url(#pffde048f88)" style="fill: #882255; fill-opacity: 0.5; stroke: #000000; stroke-width: 0.48; stroke-linejoin: miter"/>
   </g>
   <g id="patch_34">
    <path d="M 252.515075 169.829892 
L 259.030764 169.829892 
L 259.030764 94.275173 
L 252.515075 94.275173 
z
" clip-path="url(#pffde048f88)" style="fill: #882255; fill-opacity: 0.5; stroke: #000000; stroke-width: 0.48; stroke-linejoin: miter"/>
   </g>
   <g id="patch_35">
    <path d="M 259.030764 169.829892 
L 265.546454 169.829892 
L 265.546454 79.164229 
L 259.030764 79.164229 
z
" clip-path="url(#pffde048f88)" style="fill: #882255; fill-opacity: 0.5; stroke: #000000; stroke-width: 0.48; stroke-linejoin: miter"/>
   </g>
   <g id="patch_36">
    <path d="M 265.546454 169.829892 
L 272.062144 169.829892 
L 272.062144 94.275173 
L 265.546454 94.275173 
z
" clip-path="url(#pffde048f88)" style="fill: #882255; fill-opacity: 0.5; stroke: #000000; stroke-width: 0.48; stroke-linejoin: miter"/>
   </g>
   <g id="patch_37">
    <path d="M 272.062144 169.829892 
L 278.577834 169.829892 
L 278.577834 124.49706 
L 272.062144 124.49706 
z
" clip-path="url(#pffde048f88)" style="fill: #882255; fill-opacity: 0.5; stroke: #000000; stroke-width: 0.48; stroke-linejoin: miter"/>
   </g>
   <g id="patch_38">
    <path d="M 278.577834 169.829892 
L 285.093524 169.829892 
L 285.093524 169.829892 
L 278.577834 169.829892 
z
" clip-path="url(#pffde048f88)" style="fill: #882255; fill-opacity: 0.5; stroke: #000000; stroke-width: 0.48; stroke-linejoin: miter"/>
   </g>
   <g id="patch_39">
    <path d="M 285.093524 169.829892 
L 291.609214 169.829892 
L 291.609214 154.718948 
L 285.093524 154.718948 
z
" clip-path="url(#pffde048f88)" style="fill: #882255; fill-opacity: 0.5; stroke: #000000; stroke-width: 0.48; stroke-linejoin: miter"/>
   </g>
   <g id="line2d_18">
    <path d="M 180.842486 166.038192 
L 183.62557 166.172584 
L 186.408654 166.547842 
L 190.304971 167.331391 
L 196.984371 168.70154 
L 200.880688 169.236975 
L 204.777005 169.534872 
L 208.673322 169.626214 
L 212.569639 169.516132 
L 215.90934 169.212731 
L 218.692423 168.744378 
L 220.91889 168.175316 
L 223.145357 167.384292 
L 225.371824 166.321358 
L 227.041674 165.313989 
L 228.711524 164.100756 
L 230.381374 162.657772 
L 232.051225 160.960653 
L 233.721075 158.985053 
L 235.390925 156.707819 
L 237.060775 154.108973 
L 238.730625 151.174641 
L 240.957092 146.735374 
L 243.183559 141.72595 
L 245.966643 134.812435 
L 252.646043 117.645673 
L 254.315893 113.942205 
L 255.985744 110.763488 
L 257.098977 109.002202 
L 258.21221 107.567818 
L 259.325444 106.489159 
L 260.438677 105.788706 
L 261.551911 105.481881 
L 262.665144 105.576552 
L 263.778378 106.072774 
L 264.891611 106.962758 
L 266.004845 108.23107 
L 267.118078 109.855049 
L 268.231311 111.80543 
L 269.901162 115.264952 
L 271.571012 119.24128 
L 274.354095 126.597277 
L 279.363646 140.094315 
L 281.590113 145.454513 
L 283.81658 150.146363 
L 285.48643 153.181476 
L 287.15628 155.80286 
L 288.82613 158.03541 
L 290.49598 159.919179 
L 291.609214 161.004927 
L 291.609214 161.004927 
" clip-path="url(#pffde048f88)" style="fill: none; stroke: #882255; stroke-width: 2.8; stroke-linecap: square"/>
   </g>
   <g id="LineCollection_2">
    <path d="M 259.034735 169.829892 
L 259.034735 166.921035 
" clip-path="url(#pffde048f88)" style="fill: none; stroke: #882255"/>
    <path d="M 267.681318 169.829892 
L 267.681318 166.921035 
" clip-path="url(#pffde048f88)" style="fill: none; stroke: #882255"/>
    <path d="M 269.740455 169.829892 
L 269.740455 166.921035 
" clip-path="url(#pffde048f88)" style="fill: none; stroke: #882255"/>
    <path d="M 252.897496 169.829892 
L 252.897496 166.921035 
" clip-path="url(#pffde048f88)" style="fill: none; stroke: #882255"/>
    <path d="M 248.627074 169.829892 
L 248.627074 166.921035 
" clip-path="url(#pffde048f88)" style="fill: none; stroke: #882255"/>
    <path d="M 251.801304 169.829892 
L 251.801304 166.921035 
" clip-path="url(#pffde048f88)" style="fill: none; stroke: #882255"/>
    <path d="M 262.692149 169.829892 
L 262.692149 166.921035 
" clip-path="url(#pffde048f88)" style="fill: none; stroke: #882255"/>
    <path d="M 180.842486 169.829892 
L 180.842486 166.921035 
" clip-path="url(#pffde048f88)" style="fill: none; stroke: #882255"/>
    <path d="M 267.149437 169.829892 
L 267.149437 166.921035 
" clip-path="url(#pffde048f88)" style="fill: none; stroke: #882255"/>
    <path d="M 255.167842 169.829892 
L 255.167842 166.921035 
" clip-path="url(#pffde048f88)" style="fill: none; stroke: #882255"/>
    <path d="M 259.766258 169.829892 
L 259.766258 166.921035 
" clip-path="url(#pffde048f88)" style="fill: none; stroke: #882255"/>
    <path d="M 291.609214 169.829892 
L 291.609214 166.921035 
" clip-path="url(#pffde048f88)" style="fill: none; stroke: #882255"/>
    <path d="M 268.908265 169.829892 
L 268.908265 166.921035 
" clip-path="url(#pffde048f88)" style="fill: none; stroke: #882255"/>
    <path d="M 272.333201 169.829892 
L 272.333201 166.921035 
" clip-path="url(#pffde048f88)" style="fill: none; stroke: #882255"/>
    <path d="M 244.240273 169.829892 
L 244.240273 166.921035 
" clip-path="url(#pffde048f88)" style="fill: none; stroke: #882255"/>
    <path d="M 260.349435 169.829892 
L 260.349435 166.921035 
" clip-path="url(#pffde048f88)" style="fill: none; stroke: #882255"/>
    <path d="M 268.792166 169.829892 
L 268.792166 166.921035 
" clip-path="url(#pffde048f88)" style="fill: none; stroke: #882255"/>
    <path d="M 274.004565 169.829892 
L 274.004565 166.921035 
" clip-path="url(#pffde048f88)" style="fill: none; stroke: #882255"/>
    <path d="M 237.146518 169.829892 
L 237.146518 166.921035 
" clip-path="url(#pffde048f88)" style="fill: none; stroke: #882255"/>
    <path d="M 261.994194 169.829892 
L 261.994194 166.921035 
" clip-path="url(#pffde048f88)" style="fill: none; stroke: #882255"/>
    <path d="M 264.287943 169.829892 
L 264.287943 166.921035 
" clip-path="url(#pffde048f88)" style="fill: none; stroke: #882255"/>
    <path d="M 277.304931 169.829892 
L 277.304931 166.921035 
" clip-path="url(#pffde048f88)" style="fill: none; stroke: #882255"/>
    <path d="M 256.584683 169.829892 
L 256.584683 166.921035 
" clip-path="url(#pffde048f88)" style="fill: none; stroke: #882255"/>
    <path d="M 258.876285 169.829892 
L 258.876285 166.921035 
" clip-path="url(#pffde048f88)" style="fill: none; stroke: #882255"/>
    <path d="M 256.033842 169.829892 
L 256.033842 166.921035 
" clip-path="url(#pffde048f88)" style="fill: none; stroke: #882255"/>
   </g>
   <g id="patch_40">
    <path d="M 175.30415 169.829892 
L 175.30415 53.475624 
" style="fill: none; stroke: #000000; stroke-width: 2; stroke-linejoin: miter; stroke-linecap: square"/>
   </g>
   <g id="patch_41">
    <path d="M 175.30415 169.829892 
L 297.14755 169.829892 
" style="fill: none; stroke: #000000; stroke-width: 2; stroke-linejoin: miter; stroke-linecap: square"/>
   </g>
   <g id="text_9">
    <!-- Source 1 -->
    <g transform="translate(208.01085 47.475624)scale(0.16 -0.16)">
     <defs>
      <path id="TimesNewRomanPSMT-31" d="M 750 3822 
L 1781 4325 
L 1884 4325 
L 1884 747 
Q 1884 391 1914 303 
Q 1944 216 2037 169 
Q 2131 122 2419 116 
L 2419 0 
L 825 0 
L 825 116 
Q 1125 122 1212 167 
Q 1300 213 1334 289 
Q 1369 366 1369 747 
L 1369 3034 
Q 1369 3497 1338 3628 
Q 1316 3728 1258 3775 
Q 1200 3822 1119 3822 
Q 1003 3822 797 3725 
L 750 3822 
z
" transform="scale(0.015625)"/>
     </defs>
     <use xlink:href="#TimesNewRomanPSMT-53"/>
     <use xlink:href="#TimesNewRomanPSMT-6f" x="55.615234"/>
     <use xlink:href="#TimesNewRomanPSMT-75" x="105.615234"/>
     <use xlink:href="#TimesNewRomanPSMT-72" x="155.615234"/>
     <use xlink:href="#TimesNewRomanPSMT-63" x="188.916016"/>
     <use xlink:href="#TimesNewRomanPSMT-65" x="233.300781"/>
     <use xlink:href="#TimesNewRomanPSMT-20" x="277.685547"/>
     <use xlink:href="#TimesNewRomanPSMT-31" x="302.685547"/>
    </g>
   </g>
  </g>
  <g id="axes_3">
   <g id="patch_42">
    <path d="M 300.72255 169.829892 
L 422.56595 169.829892 
L 422.56595 53.475624 
L 300.72255 53.475624 
z
" style="fill: #ffffff"/>
   </g>
   <g id="matplotlib.axis_5">
    <g id="text_10">
     <!-- Value -->
     <g transform="translate(341.6105 186.050892)scale(0.176 -0.176)">
      <use xlink:href="#TimesNewRomanPSMT-56"/>
      <use xlink:href="#TimesNewRomanPSMT-61" x="61.091797"/>
      <use xlink:href="#TimesNewRomanPSMT-6c" x="105.476562"/>
      <use xlink:href="#TimesNewRomanPSMT-75" x="133.259766"/>
      <use xlink:href="#TimesNewRomanPSMT-65" x="183.259766"/>
     </g>
    </g>
   </g>
   <g id="matplotlib.axis_6">
    <g id="ytick_9">
     <g id="line2d_19">
      <path d="M 300.72255 169.829892 
L 422.56595 169.829892 
" clip-path="url(#p0131b9c333)" style="fill: none; stroke-dasharray: 7.4,3.2; stroke-dashoffset: 0; stroke: #b0b0b0; stroke-opacity: 0.5; stroke-width: 2"/>
     </g>
     <g id="line2d_20">
      <g>
       <use xlink:href="#me0a2d361c9" x="300.72255" y="169.829892" style="stroke: #000000; stroke-width: 2"/>
      </g>
     </g>
    </g>
    <g id="ytick_10">
     <g id="line2d_21">
      <path d="M 300.72255 139.608004 
L 422.56595 139.608004 
" clip-path="url(#p0131b9c333)" style="fill: none; stroke-dasharray: 7.4,3.2; stroke-dashoffset: 0; stroke: #b0b0b0; stroke-opacity: 0.5; stroke-width: 2"/>
     </g>
     <g id="line2d_22">
      <g>
       <use xlink:href="#me0a2d361c9" x="300.72255" y="139.608004" style="stroke: #000000; stroke-width: 2"/>
      </g>
     </g>
    </g>
    <g id="ytick_11">
     <g id="line2d_23">
      <path d="M 300.72255 109.386116 
L 422.56595 109.386116 
" clip-path="url(#p0131b9c333)" style="fill: none; stroke-dasharray: 7.4,3.2; stroke-dashoffset: 0; stroke: #b0b0b0; stroke-opacity: 0.5; stroke-width: 2"/>
     </g>
     <g id="line2d_24">
      <g>
       <use xlink:href="#me0a2d361c9" x="300.72255" y="109.386116" style="stroke: #000000; stroke-width: 2"/>
      </g>
     </g>
    </g>
    <g id="ytick_12">
     <g id="line2d_25">
      <path d="M 300.72255 79.164229 
L 422.56595 79.164229 
" clip-path="url(#p0131b9c333)" style="fill: none; stroke-dasharray: 7.4,3.2; stroke-dashoffset: 0; stroke: #b0b0b0; stroke-opacity: 0.5; stroke-width: 2"/>
     </g>
     <g id="line2d_26">
      <g>
       <use xlink:href="#me0a2d361c9" x="300.72255" y="79.164229" style="stroke: #000000; stroke-width: 2"/>
      </g>
     </g>
    </g>
   </g>
   <g id="patch_43">
    <path d="M 306.260886 169.829892 
L 312.776576 169.829892 
L 312.776576 169.829892 
L 306.260886 169.829892 
z
" clip-path="url(#p0131b9c333)" style="fill: #aa4499; fill-opacity: 0.5; stroke: #000000; stroke-width: 0.48; stroke-linejoin: miter"/>
   </g>
   <g id="patch_44">
    <path d="M 312.776576 169.829892 
L 319.292266 169.829892 
L 319.292266 169.829892 
L 312.776576 169.829892 
z
" clip-path="url(#p0131b9c333)" style="fill: #aa4499; fill-opacity: 0.5; stroke: #000000; stroke-width: 0.48; stroke-linejoin: miter"/>
   </g>
   <g id="patch_45">
    <path d="M 319.292266 169.829892 
L 325.807956 169.829892 
L 325.807956 169.829892 
L 319.292266 169.829892 
z
" clip-path="url(#p0131b9c333)" style="fill: #aa4499; fill-opacity: 0.5; stroke: #000000; stroke-width: 0.48; stroke-linejoin: miter"/>
   </g>
   <g id="patch_46">
    <path d="M 325.807956 169.829892 
L 332.323646 169.829892 
L 332.323646 169.829892 
L 325.807956 169.829892 
z
" clip-path="url(#p0131b9c333)" style="fill: #aa4499; fill-opacity: 0.5; stroke: #000000; stroke-width: 0.48; stroke-linejoin: miter"/>
   </g>
   <g id="patch_47">
    <path d="M 332.323646 169.829892 
L 338.839336 169.829892 
L 338.839336 169.829892 
L 332.323646 169.829892 
z
" clip-path="url(#p0131b9c333)" style="fill: #aa4499; fill-opacity: 0.5; stroke: #000000; stroke-width: 0.48; stroke-linejoin: miter"/>
   </g>
   <g id="patch_48">
    <path d="M 338.839336 169.829892 
L 345.355025 169.829892 
L 345.355025 169.829892 
L 338.839336 169.829892 
z
" clip-path="url(#p0131b9c333)" style="fill: #aa4499; fill-opacity: 0.5; stroke: #000000; stroke-width: 0.48; stroke-linejoin: miter"/>
   </g>
   <g id="patch_49">
    <path d="M 345.355025 169.829892 
L 351.870715 169.829892 
L 351.870715 169.829892 
L 345.355025 169.829892 
z
" clip-path="url(#p0131b9c333)" style="fill: #aa4499; fill-opacity: 0.5; stroke: #000000; stroke-width: 0.48; stroke-linejoin: miter"/>
   </g>
   <g id="patch_50">
    <path d="M 351.870715 169.829892 
L 358.386405 169.829892 
L 358.386405 169.829892 
L 351.870715 169.829892 
z
" clip-path="url(#p0131b9c333)" style="fill: #aa4499; fill-opacity: 0.5; stroke: #000000; stroke-width: 0.48; stroke-linejoin: miter"/>
   </g>
   <g id="patch_51">
    <path d="M 358.386405 169.829892 
L 364.902095 169.829892 
L 364.902095 154.718948 
L 358.386405 154.718948 
z
" clip-path="url(#p0131b9c333)" style="fill: #aa4499; fill-opacity: 0.5; stroke: #000000; stroke-width: 0.48; stroke-linejoin: miter"/>
   </g>
   <g id="patch_52">
    <path d="M 364.902095 169.829892 
L 371.417785 169.829892 
L 371.417785 169.829892 
L 364.902095 169.829892 
z
" clip-path="url(#p0131b9c333)" style="fill: #aa4499; fill-opacity: 0.5; stroke: #000000; stroke-width: 0.48; stroke-linejoin: miter"/>
   </g>
   <g id="patch_53">
    <path d="M 371.417785 169.829892 
L 377.933475 169.829892 
L 377.933475 124.49706 
L 371.417785 124.49706 
z
" clip-path="url(#p0131b9c333)" style="fill: #aa4499; fill-opacity: 0.5; stroke: #000000; stroke-width: 0.48; stroke-linejoin: miter"/>
   </g>
   <g id="patch_54">
    <path d="M 377.933475 169.829892 
L 384.449164 169.829892 
L 384.449164 64.053285 
L 377.933475 64.053285 
z
" clip-path="url(#p0131b9c333)" style="fill: #aa4499; fill-opacity: 0.5; stroke: #000000; stroke-width: 0.48; stroke-linejoin: miter"/>
   </g>
   <g id="patch_55">
    <path d="M 384.449164 169.829892 
L 390.964854 169.829892 
L 390.964854 79.164229 
L 384.449164 79.164229 
z
" clip-path="url(#p0131b9c333)" style="fill: #aa4499; fill-opacity: 0.5; stroke: #000000; stroke-width: 0.48; stroke-linejoin: miter"/>
   </g>
   <g id="patch_56">
    <path d="M 390.964854 169.829892 
L 397.480544 169.829892 
L 397.480544 94.275173 
L 390.964854 94.275173 
z
" clip-path="url(#p0131b9c333)" style="fill: #aa4499; fill-opacity: 0.5; stroke: #000000; stroke-width: 0.48; stroke-linejoin: miter"/>
   </g>
   <g id="patch_57">
    <path d="M 397.480544 169.829892 
L 403.996234 169.829892 
L 403.996234 139.608004 
L 397.480544 139.608004 
z
" clip-path="url(#p0131b9c333)" style="fill: #aa4499; fill-opacity: 0.5; stroke: #000000; stroke-width: 0.48; stroke-linejoin: miter"/>
   </g>
   <g id="patch_58">
    <path d="M 403.996234 169.829892 
L 410.511924 169.829892 
L 410.511924 154.718948 
L 403.996234 154.718948 
z
" clip-path="url(#p0131b9c333)" style="fill: #aa4499; fill-opacity: 0.5; stroke: #000000; stroke-width: 0.48; stroke-linejoin: miter"/>
   </g>
   <g id="patch_59">
    <path d="M 410.511924 169.829892 
L 417.027614 169.829892 
L 417.027614 169.829892 
L 410.511924 169.829892 
z
" clip-path="url(#p0131b9c333)" style="fill: #aa4499; fill-opacity: 0.5; stroke: #000000; stroke-width: 0.48; stroke-linejoin: miter"/>
   </g>
   <g id="line2d_27">
    <path d="M 306.260886 169.829892 
L 342.440973 169.739966 
L 345.224057 169.480087 
L 346.893907 169.129613 
L 348.563757 168.549365 
L 350.233607 167.690457 
L 351.903457 166.562142 
L 356.913008 162.896416 
L 358.026241 162.377608 
L 359.696091 161.900818 
L 362.479175 161.362869 
L 363.592409 160.889589 
L 364.705642 160.051836 
L 365.818875 158.715306 
L 366.932109 156.773192 
L 368.045342 154.155069 
L 369.158576 150.829483 
L 370.271809 146.80149 
L 371.385043 142.107658 
L 373.054893 133.964221 
L 375.28136 121.584679 
L 379.177677 99.445534 
L 380.29091 94.123056 
L 381.404144 89.708623 
L 382.517377 86.407712 
L 383.073994 85.218908 
L 383.63061 84.349229 
L 384.187227 83.798417 
L 384.743844 83.558782 
L 385.300461 83.615225 
L 385.857077 83.945615 
L 386.413694 84.521532 
L 387.526927 86.271789 
L 388.640161 88.562596 
L 392.536478 97.097708 
L 395.319562 102.805485 
L 396.432795 105.648929 
L 397.546028 109.124169 
L 398.659262 113.320039 
L 400.329112 120.837645 
L 405.338663 145.096622 
L 407.008513 151.343649 
L 408.121746 154.770822 
L 409.23498 157.663466 
L 410.348213 160.094473 
L 411.461446 162.135677 
L 412.57468 163.846174 
L 413.687913 165.269607 
L 414.801147 166.43759 
L 415.91438 167.375552 
L 417.027614 168.107947 
L 417.027614 168.107947 
" clip-path="url(#p0131b9c333)" style="fill: none; stroke: #aa4499; stroke-width: 2.8; stroke-linecap: square"/>
   </g>
   <g id="LineCollection_3">
    <path d="M 380.38573 169.829892 
L 380.38573 166.921035 
" clip-path="url(#p0131b9c333)" style="fill: none; stroke: #aa4499"/>
    <path d="M 384.100857 169.829892 
L 384.100857 166.921035 
" clip-path="url(#p0131b9c333)" style="fill: none; stroke: #aa4499"/>
    <path d="M 376.274072 169.829892 
L 376.274072 166.921035 
" clip-path="url(#p0131b9c333)" style="fill: none; stroke: #aa4499"/>
    <path d="M 396.094589 169.829892 
L 396.094589 166.921035 
" clip-path="url(#p0131b9c333)" style="fill: none; stroke: #aa4499"/>
    <path d="M 379.9743 169.829892 
L 379.9743 166.921035 
" clip-path="url(#p0131b9c333)" style="fill: none; stroke: #aa4499"/>
    <path d="M 396.969118 169.829892 
L 396.969118 166.921035 
" clip-path="url(#p0131b9c333)" style="fill: none; stroke: #aa4499"/>
    <path d="M 358.817918 169.829892 
L 358.817918 166.921035 
" clip-path="url(#p0131b9c333)" style="fill: none; stroke: #aa4499"/>
    <path d="M 396.525965 169.829892 
L 396.525965 166.921035 
" clip-path="url(#p0131b9c333)" style="fill: none; stroke: #aa4499"/>
    <path d="M 386.171805 169.829892 
L 386.171805 166.921035 
" clip-path="url(#p0131b9c333)" style="fill: none; stroke: #aa4499"/>
    <path d="M 407.454984 169.829892 
L 407.454984 166.921035 
" clip-path="url(#p0131b9c333)" style="fill: none; stroke: #aa4499"/>
    <path d="M 371.703387 169.829892 
L 371.703387 166.921035 
" clip-path="url(#p0131b9c333)" style="fill: none; stroke: #aa4499"/>
    <path d="M 387.538463 169.829892 
L 387.538463 166.921035 
" clip-path="url(#p0131b9c333)" style="fill: none; stroke: #aa4499"/>
    <path d="M 397.827925 169.829892 
L 397.827925 166.921035 
" clip-path="url(#p0131b9c333)" style="fill: none; stroke: #aa4499"/>
    <path d="M 381.449191 169.829892 
L 381.449191 166.921035 
" clip-path="url(#p0131b9c333)" style="fill: none; stroke: #aa4499"/>
    <path d="M 389.38125 169.829892 
L 389.38125 166.921035 
" clip-path="url(#p0131b9c333)" style="fill: none; stroke: #aa4499"/>
    <path d="M 383.730037 169.829892 
L 383.730037 166.921035 
" clip-path="url(#p0131b9c333)" style="fill: none; stroke: #aa4499"/>
    <path d="M 386.967004 169.829892 
L 386.967004 166.921035 
" clip-path="url(#p0131b9c333)" style="fill: none; stroke: #aa4499"/>
    <path d="M 390.101181 169.829892 
L 390.101181 166.921035 
" clip-path="url(#p0131b9c333)" style="fill: none; stroke: #aa4499"/>
    <path d="M 400.129993 169.829892 
L 400.129993 166.921035 
" clip-path="url(#p0131b9c333)" style="fill: none; stroke: #aa4499"/>
    <path d="M 397.366219 169.829892 
L 397.366219 166.921035 
" clip-path="url(#p0131b9c333)" style="fill: none; stroke: #aa4499"/>
    <path d="M 380.371737 169.829892 
L 380.371737 166.921035 
" clip-path="url(#p0131b9c333)" style="fill: none; stroke: #aa4499"/>
    <path d="M 396.179987 169.829892 
L 396.179987 166.921035 
" clip-path="url(#p0131b9c333)" style="fill: none; stroke: #aa4499"/>
    <path d="M 375.171393 169.829892 
L 375.171393 166.921035 
" clip-path="url(#p0131b9c333)" style="fill: none; stroke: #aa4499"/>
    <path d="M 383.508118 169.829892 
L 383.508118 166.921035 
" clip-path="url(#p0131b9c333)" style="fill: none; stroke: #aa4499"/>
    <path d="M 386.824427 169.829892 
L 386.824427 166.921035 
" clip-path="url(#p0131b9c333)" style="fill: none; stroke: #aa4499"/>
   </g>
   <g id="patch_60">
    <path d="M 300.72255 169.829892 
L 300.72255 53.475624 
" style="fill: none; stroke: #000000; stroke-width: 2; stroke-linejoin: miter; stroke-linecap: square"/>
   </g>
   <g id="patch_61">
    <path d="M 300.72255 169.829892 
L 422.56595 169.829892 
" style="fill: none; stroke: #000000; stroke-width: 2; stroke-linejoin: miter; stroke-linecap: square"/>
   </g>
   <g id="text_11">
    <!-- Source 2 -->
    <g transform="translate(333.42925 47.475624)scale(0.16 -0.16)">
     <use xlink:href="#TimesNewRomanPSMT-53"/>
     <use xlink:href="#TimesNewRomanPSMT-6f" x="55.615234"/>
     <use xlink:href="#TimesNewRomanPSMT-75" x="105.615234"/>
     <use xlink:href="#TimesNewRomanPSMT-72" x="155.615234"/>
     <use xlink:href="#TimesNewRomanPSMT-63" x="188.916016"/>
     <use xlink:href="#TimesNewRomanPSMT-65" x="233.300781"/>
     <use xlink:href="#TimesNewRomanPSMT-20" x="277.685547"/>
     <use xlink:href="#TimesNewRomanPSMT-32" x="302.685547"/>
    </g>
   </g>
  </g>
  <g id="axes_4">
   <g id="patch_62">
    <path d="M 426.14095 169.829892 
L 547.98435 169.829892 
L 547.98435 53.475624 
L 426.14095 53.475624 
z
" style="fill: #ffffff"/>
   </g>
   <g id="matplotlib.axis_7">
    <g id="text_12">
     <!-- Value -->
     <g transform="translate(467.0289 186.050892)scale(0.176 -0.176)">
      <use xlink:href="#TimesNewRomanPSMT-56"/>
      <use xlink:href="#TimesNewRomanPSMT-61" x="61.091797"/>
      <use xlink:href="#TimesNewRomanPSMT-6c" x="105.476562"/>
      <use xlink:href="#TimesNewRomanPSMT-75" x="133.259766"/>
      <use xlink:href="#TimesNewRomanPSMT-65" x="183.259766"/>
     </g>
    </g>
   </g>
   <g id="matplotlib.axis_8">
    <g id="ytick_13">
     <g id="line2d_28">
      <path d="M 426.14095 169.829892 
L 547.98435 169.829892 
" clip-path="url(#pabc371ad1f)" style="fill: none; stroke-dasharray: 7.4,3.2; stroke-dashoffset: 0; stroke: #b0b0b0; stroke-opacity: 0.5; stroke-width: 2"/>
     </g>
     <g id="line2d_29">
      <g>
       <use xlink:href="#me0a2d361c9" x="426.14095" y="169.829892" style="stroke: #000000; stroke-width: 2"/>
      </g>
     </g>
    </g>
    <g id="ytick_14">
     <g id="line2d_30">
      <path d="M 426.14095 139.608004 
L 547.98435 139.608004 
" clip-path="url(#pabc371ad1f)" style="fill: none; stroke-dasharray: 7.4,3.2; stroke-dashoffset: 0; stroke: #b0b0b0; stroke-opacity: 0.5; stroke-width: 2"/>
     </g>
     <g id="line2d_31">
      <g>
       <use xlink:href="#me0a2d361c9" x="426.14095" y="139.608004" style="stroke: #000000; stroke-width: 2"/>
      </g>
     </g>
    </g>
    <g id="ytick_15">
     <g id="line2d_32">
      <path d="M 426.14095 109.386116 
L 547.98435 109.386116 
" clip-path="url(#pabc371ad1f)" style="fill: none; stroke-dasharray: 7.4,3.2; stroke-dashoffset: 0; stroke: #b0b0b0; stroke-opacity: 0.5; stroke-width: 2"/>
     </g>
     <g id="line2d_33">
      <g>
       <use xlink:href="#me0a2d361c9" x="426.14095" y="109.386116" style="stroke: #000000; stroke-width: 2"/>
      </g>
     </g>
    </g>
    <g id="ytick_16">
     <g id="line2d_34">
      <path d="M 426.14095 79.164229 
L 547.98435 79.164229 
" clip-path="url(#pabc371ad1f)" style="fill: none; stroke-dasharray: 7.4,3.2; stroke-dashoffset: 0; stroke: #b0b0b0; stroke-opacity: 0.5; stroke-width: 2"/>
     </g>
     <g id="line2d_35">
      <g>
       <use xlink:href="#me0a2d361c9" x="426.14095" y="79.164229" style="stroke: #000000; stroke-width: 2"/>
      </g>
     </g>
    </g>
   </g>
   <g id="patch_63">
    <path d="M 431.679286 169.829892 
L 438.194976 169.829892 
L 438.194976 169.829892 
L 431.679286 169.829892 
z
" clip-path="url(#pabc371ad1f)" style="fill: #332288; fill-opacity: 0.5; stroke: #000000; stroke-width: 0.48; stroke-linejoin: miter"/>
   </g>
   <g id="patch_64">
    <path d="M 438.194976 169.829892 
L 444.710666 169.829892 
L 444.710666 169.829892 
L 438.194976 169.829892 
z
" clip-path="url(#pabc371ad1f)" style="fill: #332288; fill-opacity: 0.5; stroke: #000000; stroke-width: 0.48; stroke-linejoin: miter"/>
   </g>
   <g id="patch_65">
    <path d="M 444.710666 169.829892 
L 451.226356 169.829892 
L 451.226356 169.829892 
L 444.710666 169.829892 
z
" clip-path="url(#pabc371ad1f)" style="fill: #332288; fill-opacity: 0.5; stroke: #000000; stroke-width: 0.48; stroke-linejoin: miter"/>
   </g>
   <g id="patch_66">
    <path d="M 451.226356 169.829892 
L 457.742046 169.829892 
L 457.742046 169.829892 
L 451.226356 169.829892 
z
" clip-path="url(#pabc371ad1f)" style="fill: #332288; fill-opacity: 0.5; stroke: #000000; stroke-width: 0.48; stroke-linejoin: miter"/>
   </g>
   <g id="patch_67">
    <path d="M 457.742046 169.829892 
L 464.257736 169.829892 
L 464.257736 169.829892 
L 457.742046 169.829892 
z
" clip-path="url(#pabc371ad1f)" style="fill: #332288; fill-opacity: 0.5; stroke: #000000; stroke-width: 0.48; stroke-linejoin: miter"/>
   </g>
   <g id="patch_68">
    <path d="M 464.257736 169.829892 
L 470.773425 169.829892 
L 470.773425 169.829892 
L 464.257736 169.829892 
z
" clip-path="url(#pabc371ad1f)" style="fill: #332288; fill-opacity: 0.5; stroke: #000000; stroke-width: 0.48; stroke-linejoin: miter"/>
   </g>
   <g id="patch_69">
    <path d="M 470.773425 169.829892 
L 477.289115 169.829892 
L 477.289115 169.829892 
L 470.773425 169.829892 
z
" clip-path="url(#pabc371ad1f)" style="fill: #332288; fill-opacity: 0.5; stroke: #000000; stroke-width: 0.48; stroke-linejoin: miter"/>
   </g>
   <g id="patch_70">
    <path d="M 477.289115 169.829892 
L 483.804805 169.829892 
L 483.804805 169.829892 
L 477.289115 169.829892 
z
" clip-path="url(#pabc371ad1f)" style="fill: #332288; fill-opacity: 0.5; stroke: #000000; stroke-width: 0.48; stroke-linejoin: miter"/>
   </g>
   <g id="patch_71">
    <path d="M 483.804805 169.829892 
L 490.320495 169.829892 
L 490.320495 169.829892 
L 483.804805 169.829892 
z
" clip-path="url(#pabc371ad1f)" style="fill: #332288; fill-opacity: 0.5; stroke: #000000; stroke-width: 0.48; stroke-linejoin: miter"/>
   </g>
   <g id="patch_72">
    <path d="M 490.320495 169.829892 
L 496.836185 169.829892 
L 496.836185 154.718948 
L 490.320495 154.718948 
z
" clip-path="url(#pabc371ad1f)" style="fill: #332288; fill-opacity: 0.5; stroke: #000000; stroke-width: 0.48; stroke-linejoin: miter"/>
   </g>
   <g id="patch_73">
    <path d="M 496.836185 169.829892 
L 503.351875 169.829892 
L 503.351875 94.275173 
L 496.836185 94.275173 
z
" clip-path="url(#pabc371ad1f)" style="fill: #332288; fill-opacity: 0.5; stroke: #000000; stroke-width: 0.48; stroke-linejoin: miter"/>
   </g>
   <g id="patch_74">
    <path d="M 503.351875 169.829892 
L 509.867564 169.829892 
L 509.867564 109.386116 
L 503.351875 109.386116 
z
" clip-path="url(#pabc371ad1f)" style="fill: #332288; fill-opacity: 0.5; stroke: #000000; stroke-width: 0.48; stroke-linejoin: miter"/>
   </g>
   <g id="patch_75">
    <path d="M 509.867564 169.829892 
L 516.383254 169.829892 
L 516.383254 64.053285 
L 509.867564 64.053285 
z
" clip-path="url(#pabc371ad1f)" style="fill: #332288; fill-opacity: 0.5; stroke: #000000; stroke-width: 0.48; stroke-linejoin: miter"/>
   </g>
   <g id="patch_76">
    <path d="M 516.383254 169.829892 
L 522.898944 169.829892 
L 522.898944 124.49706 
L 516.383254 124.49706 
z
" clip-path="url(#pabc371ad1f)" style="fill: #332288; fill-opacity: 0.5; stroke: #000000; stroke-width: 0.48; stroke-linejoin: miter"/>
   </g>
   <g id="patch_77">
    <path d="M 522.898944 169.829892 
L 529.414634 169.829892 
L 529.414634 124.49706 
L 522.898944 124.49706 
z
" clip-path="url(#pabc371ad1f)" style="fill: #332288; fill-opacity: 0.5; stroke: #000000; stroke-width: 0.48; stroke-linejoin: miter"/>
   </g>
   <g id="patch_78">
    <path d="M 529.414634 169.829892 
L 535.930324 169.829892 
L 535.930324 154.718948 
L 529.414634 154.718948 
z
" clip-path="url(#pabc371ad1f)" style="fill: #332288; fill-opacity: 0.5; stroke: #000000; stroke-width: 0.48; stroke-linejoin: miter"/>
   </g>
   <g id="patch_79">
    <path d="M 535.930324 169.829892 
L 542.446014 169.829892 
L 542.446014 154.718948 
L 535.930324 154.718948 
z
" clip-path="url(#pabc371ad1f)" style="fill: #332288; fill-opacity: 0.5; stroke: #000000; stroke-width: 0.48; stroke-linejoin: miter"/>
   </g>
   <g id="line2d_36">
    <path d="M 431.679286 169.829892 
L 478.435091 169.736401 
L 480.661558 169.517537 
L 482.331408 169.125978 
L 483.444641 168.671225 
L 484.557875 167.986789 
L 485.671108 166.995281 
L 486.784342 165.612675 
L 487.897575 163.75662 
L 489.010809 161.357502 
L 490.124042 158.370752 
L 491.237275 154.788082 
L 492.907126 148.386635 
L 495.133592 138.454448 
L 499.586526 117.962668 
L 501.812993 109.055701 
L 503.482843 103.161097 
L 505.152693 97.947562 
L 506.822544 93.540164 
L 507.935777 91.191832 
L 509.04901 89.456982 
L 509.605627 88.860835 
L 510.162244 88.466143 
L 510.718861 88.28604 
L 511.275477 88.330833 
L 511.832094 88.607296 
L 512.388711 89.118087 
L 512.945327 89.861338 
L 514.058561 92.014025 
L 515.171794 94.957122 
L 516.285028 98.518801 
L 518.511495 106.636692 
L 521.294578 116.60977 
L 522.964428 121.819953 
L 524.634279 126.42414 
L 526.860745 131.923156 
L 529.643829 138.239311 
L 532.983529 145.232526 
L 539.66293 158.427274 
L 541.889397 162.35224 
L 542.446014 163.21949 
L 542.446014 163.21949 
" clip-path="url(#pabc371ad1f)" style="fill: none; stroke: #332288; stroke-width: 2.8; stroke-linecap: square"/>
   </g>
   <g id="LineCollection_4">
    <path d="M 514.788465 169.829892 
L 514.788465 166.921035 
" clip-path="url(#pabc371ad1f)" style="fill: none; stroke: #332288"/>
    <path d="M 513.315245 169.829892 
L 513.315245 166.921035 
" clip-path="url(#pabc371ad1f)" style="fill: none; stroke: #332288"/>
    <path d="M 498.081319 169.829892 
L 498.081319 166.921035 
" clip-path="url(#pabc371ad1f)" style="fill: none; stroke: #332288"/>
    <path d="M 525.721522 169.829892 
L 525.721522 166.921035 
" clip-path="url(#pabc371ad1f)" style="fill: none; stroke: #332288"/>
    <path d="M 536.427148 169.829892 
L 536.427148 166.921035 
" clip-path="url(#pabc371ad1f)" style="fill: none; stroke: #332288"/>
    <path d="M 496.321888 169.829892 
L 496.321888 166.921035 
" clip-path="url(#pabc371ad1f)" style="fill: none; stroke: #332288"/>
    <path d="M 498.199531 169.829892 
L 498.199531 166.921035 
" clip-path="url(#pabc371ad1f)" style="fill: none; stroke: #332288"/>
    <path d="M 502.046688 169.829892 
L 502.046688 166.921035 
" clip-path="url(#pabc371ad1f)" style="fill: none; stroke: #332288"/>
    <path d="M 511.266412 169.829892 
L 511.266412 166.921035 
" clip-path="url(#pabc371ad1f)" style="fill: none; stroke: #332288"/>
    <path d="M 508.864489 169.829892 
L 508.864489 166.921035 
" clip-path="url(#pabc371ad1f)" style="fill: none; stroke: #332288"/>
    <path d="M 514.106081 169.829892 
L 514.106081 166.921035 
" clip-path="url(#pabc371ad1f)" style="fill: none; stroke: #332288"/>
    <path d="M 510.165311 169.829892 
L 510.165311 166.921035 
" clip-path="url(#pabc371ad1f)" style="fill: none; stroke: #332288"/>
    <path d="M 522.115173 169.829892 
L 522.115173 166.921035 
" clip-path="url(#pabc371ad1f)" style="fill: none; stroke: #332288"/>
    <path d="M 512.092475 169.829892 
L 512.092475 166.921035 
" clip-path="url(#pabc371ad1f)" style="fill: none; stroke: #332288"/>
    <path d="M 502.087913 169.829892 
L 502.087913 166.921035 
" clip-path="url(#pabc371ad1f)" style="fill: none; stroke: #332288"/>
    <path d="M 507.346597 169.829892 
L 507.346597 166.921035 
" clip-path="url(#pabc371ad1f)" style="fill: none; stroke: #332288"/>
    <path d="M 526.403325 169.829892 
L 526.403325 166.921035 
" clip-path="url(#pabc371ad1f)" style="fill: none; stroke: #332288"/>
    <path d="M 515.980753 169.829892 
L 515.980753 166.921035 
" clip-path="url(#pabc371ad1f)" style="fill: none; stroke: #332288"/>
    <path d="M 505.429737 169.829892 
L 505.429737 166.921035 
" clip-path="url(#pabc371ad1f)" style="fill: none; stroke: #332288"/>
    <path d="M 533.916516 169.829892 
L 533.916516 166.921035 
" clip-path="url(#pabc371ad1f)" style="fill: none; stroke: #332288"/>
    <path d="M 526.580247 169.829892 
L 526.580247 166.921035 
" clip-path="url(#pabc371ad1f)" style="fill: none; stroke: #332288"/>
    <path d="M 519.079448 169.829892 
L 519.079448 166.921035 
" clip-path="url(#pabc371ad1f)" style="fill: none; stroke: #332288"/>
    <path d="M 508.46943 169.829892 
L 508.46943 166.921035 
" clip-path="url(#pabc371ad1f)" style="fill: none; stroke: #332288"/>
    <path d="M 503.008436 169.829892 
L 503.008436 166.921035 
" clip-path="url(#pabc371ad1f)" style="fill: none; stroke: #332288"/>
    <path d="M 516.867106 169.829892 
L 516.867106 166.921035 
" clip-path="url(#pabc371ad1f)" style="fill: none; stroke: #332288"/>
   </g>
   <g id="patch_80">
    <path d="M 426.14095 169.829892 
L 426.14095 53.475624 
" style="fill: none; stroke: #000000; stroke-width: 2; stroke-linejoin: miter; stroke-linecap: square"/>
   </g>
   <g id="patch_81">
    <path d="M 426.14095 169.829892 
L 547.98435 169.829892 
" style="fill: none; stroke: #000000; stroke-width: 2; stroke-linejoin: miter; stroke-linecap: square"/>
   </g>
   <g id="text_13">
    <!-- Source 3 -->
    <g transform="translate(458.84765 47.475624)scale(0.16 -0.16)">
     <defs>
      <path id="TimesNewRomanPSMT-33" d="M 325 3431 
Q 506 3859 782 4092 
Q 1059 4325 1472 4325 
Q 1981 4325 2253 3994 
Q 2459 3747 2459 3466 
Q 2459 3003 1878 2509 
Q 2269 2356 2469 2072 
Q 2669 1788 2669 1403 
Q 2669 853 2319 450 
Q 1863 -75 997 -75 
Q 569 -75 414 31 
Q 259 138 259 259 
Q 259 350 332 419 
Q 406 488 509 488 
Q 588 488 669 463 
Q 722 447 909 348 
Q 1097 250 1169 231 
Q 1284 197 1416 197 
Q 1734 197 1970 444 
Q 2206 691 2206 1028 
Q 2206 1275 2097 1509 
Q 2016 1684 1919 1775 
Q 1784 1900 1550 2001 
Q 1316 2103 1072 2103 
L 972 2103 
L 972 2197 
Q 1219 2228 1467 2375 
Q 1716 2522 1828 2728 
Q 1941 2934 1941 3181 
Q 1941 3503 1739 3701 
Q 1538 3900 1238 3900 
Q 753 3900 428 3381 
L 325 3431 
z
" transform="scale(0.015625)"/>
     </defs>
     <use xlink:href="#TimesNewRomanPSMT-53"/>
     <use xlink:href="#TimesNewRomanPSMT-6f" x="55.615234"/>
     <use xlink:href="#TimesNewRomanPSMT-75" x="105.615234"/>
     <use xlink:href="#TimesNewRomanPSMT-72" x="155.615234"/>
     <use xlink:href="#TimesNewRomanPSMT-63" x="188.916016"/>
     <use xlink:href="#TimesNewRomanPSMT-65" x="233.300781"/>
     <use xlink:href="#TimesNewRomanPSMT-20" x="277.685547"/>
     <use xlink:href="#TimesNewRomanPSMT-33" x="302.685547"/>
    </g>
   </g>
  </g>
  <g id="text_14">
   <!-- Training Loss on Unreliable CIFAR-10N (Steps 500-525) -->
   <g transform="translate(62.492862 21.0875)scale(0.2 -0.2)">
    <defs>
     <path id="TimesNewRomanPSMT-54" d="M 3703 4238 
L 3750 3244 
L 3631 3244 
Q 3597 3506 3538 3619 
Q 3441 3800 3280 3886 
Q 3119 3972 2856 3972 
L 2259 3972 
L 2259 734 
Q 2259 344 2344 247 
Q 2463 116 2709 116 
L 2856 116 
L 2856 0 
L 1059 0 
L 1059 116 
L 1209 116 
Q 1478 116 1591 278 
Q 1659 378 1659 734 
L 1659 3972 
L 1150 3972 
Q 853 3972 728 3928 
Q 566 3869 450 3700 
Q 334 3531 313 3244 
L 194 3244 
L 244 4238 
L 3703 4238 
z
" transform="scale(0.015625)"/>
     <path id="TimesNewRomanPSMT-69" d="M 928 4444 
Q 1059 4444 1151 4351 
Q 1244 4259 1244 4128 
Q 1244 3997 1151 3903 
Q 1059 3809 928 3809 
Q 797 3809 703 3903 
Q 609 3997 609 4128 
Q 609 4259 701 4351 
Q 794 4444 928 4444 
z
M 1188 2947 
L 1188 647 
Q 1188 378 1227 289 
Q 1266 200 1342 156 
Q 1419 113 1622 113 
L 1622 0 
L 231 0 
L 231 113 
Q 441 113 512 153 
Q 584 194 626 287 
Q 669 381 669 647 
L 669 1750 
Q 669 2216 641 2353 
Q 619 2453 572 2492 
Q 525 2531 444 2531 
Q 356 2531 231 2484 
L 188 2597 
L 1050 2947 
L 1188 2947 
z
" transform="scale(0.015625)"/>
     <path id="TimesNewRomanPSMT-67" d="M 966 1044 
Q 703 1172 562 1401 
Q 422 1631 422 1909 
Q 422 2334 742 2640 
Q 1063 2947 1563 2947 
Q 1972 2947 2272 2747 
L 2878 2747 
Q 3013 2747 3034 2739 
Q 3056 2731 3066 2713 
Q 3084 2684 3084 2613 
Q 3084 2531 3069 2500 
Q 3059 2484 3036 2475 
Q 3013 2466 2878 2466 
L 2506 2466 
Q 2681 2241 2681 1891 
Q 2681 1491 2375 1206 
Q 2069 922 1553 922 
Q 1341 922 1119 984 
Q 981 866 932 777 
Q 884 688 884 625 
Q 884 572 936 522 
Q 988 472 1138 450 
Q 1225 438 1575 428 
Q 2219 413 2409 384 
Q 2700 344 2873 169 
Q 3047 -6 3047 -263 
Q 3047 -616 2716 -925 
Q 2228 -1381 1444 -1381 
Q 841 -1381 425 -1109 
Q 191 -953 191 -784 
Q 191 -709 225 -634 
Q 278 -519 444 -313 
Q 466 -284 763 25 
Q 600 122 533 198 
Q 466 275 466 372 
Q 466 481 555 628 
Q 644 775 966 1044 
z
M 1509 2797 
Q 1278 2797 1122 2612 
Q 966 2428 966 2047 
Q 966 1553 1178 1281 
Q 1341 1075 1591 1075 
Q 1828 1075 1981 1253 
Q 2134 1431 2134 1813 
Q 2134 2309 1919 2591 
Q 1759 2797 1509 2797 
z
M 934 0 
Q 788 -159 713 -296 
Q 638 -434 638 -550 
Q 638 -700 819 -813 
Q 1131 -1006 1722 -1006 
Q 2284 -1006 2551 -807 
Q 2819 -609 2819 -384 
Q 2819 -222 2659 -153 
Q 2497 -84 2016 -72 
Q 1313 -53 934 0 
z
" transform="scale(0.015625)"/>
     <path id="TimesNewRomanPSMT-4c" d="M 3669 1172 
L 3772 1150 
L 3409 0 
L 128 0 
L 128 116 
L 288 116 
Q 556 116 672 291 
Q 738 391 738 753 
L 738 3488 
Q 738 3884 650 3984 
Q 528 4122 288 4122 
L 128 4122 
L 128 4238 
L 2047 4238 
L 2047 4122 
Q 1709 4125 1573 4059 
Q 1438 3994 1388 3894 
Q 1338 3794 1338 3416 
L 1338 753 
Q 1338 494 1388 397 
Q 1425 331 1503 300 
Q 1581 269 1991 269 
L 2300 269 
Q 2788 269 2984 341 
Q 3181 413 3343 595 
Q 3506 778 3669 1172 
z
" transform="scale(0.015625)"/>
     <path id="TimesNewRomanPSMT-73" d="M 2050 2947 
L 2050 1972 
L 1947 1972 
Q 1828 2431 1642 2597 
Q 1456 2763 1169 2763 
Q 950 2763 815 2647 
Q 681 2531 681 2391 
Q 681 2216 781 2091 
Q 878 1963 1175 1819 
L 1631 1597 
Q 2266 1288 2266 781 
Q 2266 391 1970 151 
Q 1675 -88 1309 -88 
Q 1047 -88 709 6 
Q 606 38 541 38 
Q 469 38 428 -44 
L 325 -44 
L 325 978 
L 428 978 
Q 516 541 762 319 
Q 1009 97 1316 97 
Q 1531 97 1667 223 
Q 1803 350 1803 528 
Q 1803 744 1651 891 
Q 1500 1038 1047 1263 
Q 594 1488 453 1669 
Q 313 1847 313 2119 
Q 313 2472 555 2709 
Q 797 2947 1181 2947 
Q 1350 2947 1591 2875 
Q 1750 2828 1803 2828 
Q 1853 2828 1881 2850 
Q 1909 2872 1947 2947 
L 2050 2947 
z
" transform="scale(0.015625)"/>
     <path id="TimesNewRomanPSMT-55" d="M 3053 4122 
L 3053 4238 
L 4553 4238 
L 4553 4122 
L 4394 4122 
Q 4144 4122 4009 3913 
Q 3944 3816 3944 3463 
L 3944 1744 
Q 3944 1106 3817 754 
Q 3691 403 3320 151 
Q 2950 -100 2313 -100 
Q 1619 -100 1259 140 
Q 900 381 750 788 
Q 650 1066 650 1831 
L 650 3488 
Q 650 3878 542 4000 
Q 434 4122 194 4122 
L 34 4122 
L 34 4238 
L 1866 4238 
L 1866 4122 
L 1703 4122 
Q 1441 4122 1328 3956 
Q 1250 3844 1250 3488 
L 1250 1641 
Q 1250 1394 1295 1075 
Q 1341 756 1459 578 
Q 1578 400 1801 284 
Q 2025 169 2350 169 
Q 2766 169 3094 350 
Q 3422 531 3542 814 
Q 3663 1097 3663 1772 
L 3663 3488 
Q 3663 3884 3575 3984 
Q 3453 4122 3213 4122 
L 3053 4122 
z
" transform="scale(0.015625)"/>
     <path id="TimesNewRomanPSMT-62" d="M 984 2369 
Q 1400 2947 1881 2947 
Q 2322 2947 2650 2570 
Q 2978 2194 2978 1541 
Q 2978 778 2472 313 
Q 2038 -88 1503 -88 
Q 1253 -88 995 3 
Q 738 94 469 275 
L 469 3241 
Q 469 3728 445 3840 
Q 422 3953 372 3993 
Q 322 4034 247 4034 
Q 159 4034 28 3984 
L -16 4094 
L 844 4444 
L 984 4444 
L 984 2369 
z
M 984 2169 
L 984 456 
Q 1144 300 1314 220 
Q 1484 141 1663 141 
Q 1947 141 2192 453 
Q 2438 766 2438 1363 
Q 2438 1913 2192 2208 
Q 1947 2503 1634 2503 
Q 1469 2503 1303 2419 
Q 1178 2356 984 2169 
z
" transform="scale(0.015625)"/>
     <path id="TimesNewRomanPSMT-49" d="M 1975 116 
L 1975 0 
L 159 0 
L 159 116 
L 309 116 
Q 572 116 691 269 
Q 766 369 766 750 
L 766 3488 
Q 766 3809 725 3913 
Q 694 3991 597 4047 
Q 459 4122 309 4122 
L 159 4122 
L 159 4238 
L 1975 4238 
L 1975 4122 
L 1822 4122 
Q 1563 4122 1444 3969 
Q 1366 3869 1366 3488 
L 1366 750 
Q 1366 428 1406 325 
Q 1438 247 1538 191 
Q 1672 116 1822 116 
L 1975 116 
z
" transform="scale(0.015625)"/>
     <path id="TimesNewRomanPSMT-46" d="M 1309 4006 
L 1309 2341 
L 2081 2341 
Q 2347 2341 2470 2458 
Q 2594 2575 2634 2922 
L 2750 2922 
L 2750 1488 
L 2634 1488 
Q 2631 1734 2570 1850 
Q 2509 1966 2401 2023 
Q 2294 2081 2081 2081 
L 1309 2081 
L 1309 750 
Q 1309 428 1350 325 
Q 1381 247 1481 191 
Q 1619 116 1769 116 
L 1922 116 
L 1922 0 
L 103 0 
L 103 116 
L 253 116 
Q 516 116 634 269 
Q 709 369 709 750 
L 709 3488 
Q 709 3809 669 3913 
Q 638 3991 541 4047 
Q 406 4122 253 4122 
L 103 4122 
L 103 4238 
L 3256 4238 
L 3297 3306 
L 3188 3306 
Q 3106 3603 2998 3742 
Q 2891 3881 2733 3943 
Q 2575 4006 2244 4006 
L 1309 4006 
z
" transform="scale(0.015625)"/>
     <path id="TimesNewRomanPSMT-41" d="M 2928 1419 
L 1288 1419 
L 1000 750 
Q 894 503 894 381 
Q 894 284 986 211 
Q 1078 138 1384 116 
L 1384 0 
L 50 0 
L 50 116 
Q 316 163 394 238 
Q 553 388 747 847 
L 2238 4334 
L 2347 4334 
L 3822 809 
Q 4000 384 4145 257 
Q 4291 131 4550 116 
L 4550 0 
L 2878 0 
L 2878 116 
Q 3131 128 3220 200 
Q 3309 272 3309 375 
Q 3309 513 3184 809 
L 2928 1419 
z
M 2841 1650 
L 2122 3363 
L 1384 1650 
L 2841 1650 
z
" transform="scale(0.015625)"/>
     <path id="TimesNewRomanPSMT-52" d="M 4325 0 
L 3194 0 
L 1759 1981 
Q 1600 1975 1500 1975 
Q 1459 1975 1412 1976 
Q 1366 1978 1316 1981 
L 1316 750 
Q 1316 350 1403 253 
Q 1522 116 1759 116 
L 1925 116 
L 1925 0 
L 109 0 
L 109 116 
L 269 116 
Q 538 116 653 291 
Q 719 388 719 750 
L 719 3488 
Q 719 3888 631 3984 
Q 509 4122 269 4122 
L 109 4122 
L 109 4238 
L 1653 4238 
Q 2328 4238 2648 4139 
Q 2969 4041 3192 3777 
Q 3416 3513 3416 3147 
Q 3416 2756 3161 2468 
Q 2906 2181 2372 2063 
L 3247 847 
Q 3547 428 3762 290 
Q 3978 153 4325 116 
L 4325 0 
z
M 1316 2178 
Q 1375 2178 1419 2176 
Q 1463 2175 1491 2175 
Q 2097 2175 2405 2437 
Q 2713 2700 2713 3106 
Q 2713 3503 2464 3751 
Q 2216 4000 1806 4000 
Q 1625 4000 1316 3941 
L 1316 2178 
z
" transform="scale(0.015625)"/>
     <path id="TimesNewRomanPSMT-2d" d="M 259 1672 
L 1875 1672 
L 1875 1200 
L 259 1200 
L 259 1672 
z
" transform="scale(0.015625)"/>
     <path id="TimesNewRomanPSMT-4e" d="M -84 4238 
L 1066 4238 
L 3656 1059 
L 3656 3503 
Q 3656 3894 3569 3991 
Q 3453 4122 3203 4122 
L 3056 4122 
L 3056 4238 
L 4531 4238 
L 4531 4122 
L 4381 4122 
Q 4113 4122 4000 3959 
Q 3931 3859 3931 3503 
L 3931 -69 
L 3819 -69 
L 1025 3344 
L 1025 734 
Q 1025 344 1109 247 
Q 1228 116 1475 116 
L 1625 116 
L 1625 0 
L 150 0 
L 150 116 
L 297 116 
Q 569 116 681 278 
Q 750 378 750 734 
L 750 3681 
Q 566 3897 470 3965 
Q 375 4034 191 4094 
Q 100 4122 -84 4122 
L -84 4238 
z
" transform="scale(0.015625)"/>
     <path id="TimesNewRomanPSMT-28" d="M 1988 -1253 
L 1988 -1369 
Q 1516 -1131 1200 -813 
Q 750 -359 506 256 
Q 263 872 263 1534 
Q 263 2503 741 3301 
Q 1219 4100 1988 4444 
L 1988 4313 
Q 1603 4100 1356 3731 
Q 1109 3363 987 2797 
Q 866 2231 866 1616 
Q 866 947 969 400 
Q 1050 -31 1165 -292 
Q 1281 -553 1476 -793 
Q 1672 -1034 1988 -1253 
z
" transform="scale(0.015625)"/>
     <path id="TimesNewRomanPSMT-70" d="M -6 2578 
L 875 2934 
L 994 2934 
L 994 2266 
Q 1216 2644 1439 2795 
Q 1663 2947 1909 2947 
Q 2341 2947 2628 2609 
Q 2981 2197 2981 1534 
Q 2981 794 2556 309 
Q 2206 -88 1675 -88 
Q 1444 -88 1275 -22 
Q 1150 25 994 166 
L 994 -706 
Q 994 -1000 1030 -1079 
Q 1066 -1159 1155 -1206 
Q 1244 -1253 1478 -1253 
L 1478 -1369 
L -22 -1369 
L -22 -1253 
L 56 -1253 
Q 228 -1256 350 -1188 
Q 409 -1153 442 -1076 
Q 475 -1000 475 -688 
L 475 2019 
Q 475 2297 450 2372 
Q 425 2447 370 2484 
Q 316 2522 222 2522 
Q 147 2522 31 2478 
L -6 2578 
z
M 994 2081 
L 994 1013 
Q 994 666 1022 556 
Q 1066 375 1236 237 
Q 1406 100 1666 100 
Q 1978 100 2172 344 
Q 2425 663 2425 1241 
Q 2425 1897 2138 2250 
Q 1938 2494 1663 2494 
Q 1513 2494 1366 2419 
Q 1253 2363 994 2081 
z
" transform="scale(0.015625)"/>
     <path id="TimesNewRomanPSMT-35" d="M 2778 4238 
L 2534 3706 
L 1259 3706 
L 981 3138 
Q 1809 3016 2294 2522 
Q 2709 2097 2709 1522 
Q 2709 1188 2573 903 
Q 2438 619 2231 419 
Q 2025 219 1772 97 
Q 1413 -75 1034 -75 
Q 653 -75 479 54 
Q 306 184 306 341 
Q 306 428 378 495 
Q 450 563 559 563 
Q 641 563 702 538 
Q 763 513 909 409 
Q 1144 247 1384 247 
Q 1750 247 2026 523 
Q 2303 800 2303 1197 
Q 2303 1581 2056 1914 
Q 1809 2247 1375 2428 
Q 1034 2569 447 2591 
L 1259 4238 
L 2778 4238 
z
" transform="scale(0.015625)"/>
     <path id="TimesNewRomanPSMT-29" d="M 144 4313 
L 144 4444 
Q 619 4209 934 3891 
Q 1381 3434 1625 2820 
Q 1869 2206 1869 1541 
Q 1869 572 1392 -226 
Q 916 -1025 144 -1369 
L 144 -1253 
Q 528 -1038 776 -670 
Q 1025 -303 1145 264 
Q 1266 831 1266 1447 
Q 1266 2113 1163 2663 
Q 1084 3094 967 3353 
Q 850 3613 656 3853 
Q 463 4094 144 4313 
z
" transform="scale(0.015625)"/>
    </defs>
    <use xlink:href="#TimesNewRomanPSMT-54"/>
    <use xlink:href="#TimesNewRomanPSMT-72" x="57.583984"/>
    <use xlink:href="#TimesNewRomanPSMT-61" x="90.884766"/>
    <use xlink:href="#TimesNewRomanPSMT-69" x="135.269531"/>
    <use xlink:href="#TimesNewRomanPSMT-6e" x="163.052734"/>
    <use xlink:href="#TimesNewRomanPSMT-69" x="213.052734"/>
    <use xlink:href="#TimesNewRomanPSMT-6e" x="240.835938"/>
    <use xlink:href="#TimesNewRomanPSMT-67" x="290.835938"/>
    <use xlink:href="#TimesNewRomanPSMT-20" x="340.835938"/>
    <use xlink:href="#TimesNewRomanPSMT-4c" x="365.835938"/>
    <use xlink:href="#TimesNewRomanPSMT-6f" x="426.919922"/>
    <use xlink:href="#TimesNewRomanPSMT-73" x="476.919922"/>
    <use xlink:href="#TimesNewRomanPSMT-73" x="515.835938"/>
    <use xlink:href="#TimesNewRomanPSMT-20" x="554.751953"/>
    <use xlink:href="#TimesNewRomanPSMT-6f" x="579.751953"/>
    <use xlink:href="#TimesNewRomanPSMT-6e" x="629.751953"/>
    <use xlink:href="#TimesNewRomanPSMT-20" x="679.751953"/>
    <use xlink:href="#TimesNewRomanPSMT-55" x="704.751953"/>
    <use xlink:href="#TimesNewRomanPSMT-6e" x="776.96875"/>
    <use xlink:href="#TimesNewRomanPSMT-72" x="826.96875"/>
    <use xlink:href="#TimesNewRomanPSMT-65" x="860.269531"/>
    <use xlink:href="#TimesNewRomanPSMT-6c" x="904.654297"/>
    <use xlink:href="#TimesNewRomanPSMT-69" x="932.4375"/>
    <use xlink:href="#TimesNewRomanPSMT-61" x="960.220703"/>
    <use xlink:href="#TimesNewRomanPSMT-62" x="1004.605469"/>
    <use xlink:href="#TimesNewRomanPSMT-6c" x="1054.605469"/>
    <use xlink:href="#TimesNewRomanPSMT-65" x="1082.388672"/>
    <use xlink:href="#TimesNewRomanPSMT-20" x="1126.773438"/>
    <use xlink:href="#TimesNewRomanPSMT-43" x="1151.773438"/>
    <use xlink:href="#TimesNewRomanPSMT-49" x="1218.472656"/>
    <use xlink:href="#TimesNewRomanPSMT-46" x="1251.773438"/>
    <use xlink:href="#TimesNewRomanPSMT-41" x="1300.013672"/>
    <use xlink:href="#TimesNewRomanPSMT-52" x="1372.230469"/>
    <use xlink:href="#TimesNewRomanPSMT-2d" x="1438.929688"/>
    <use xlink:href="#TimesNewRomanPSMT-31" x="1472.230469"/>
    <use xlink:href="#TimesNewRomanPSMT-30" x="1522.230469"/>
    <use xlink:href="#TimesNewRomanPSMT-4e" x="1572.230469"/>
    <use xlink:href="#TimesNewRomanPSMT-20" x="1644.447266"/>
    <use xlink:href="#TimesNewRomanPSMT-28" x="1669.447266"/>
    <use xlink:href="#TimesNewRomanPSMT-53" x="1702.748047"/>
    <use xlink:href="#TimesNewRomanPSMT-74" x="1758.363281"/>
    <use xlink:href="#TimesNewRomanPSMT-65" x="1786.146484"/>
    <use xlink:href="#TimesNewRomanPSMT-70" x="1830.53125"/>
    <use xlink:href="#TimesNewRomanPSMT-73" x="1880.53125"/>
    <use xlink:href="#TimesNewRomanPSMT-20" x="1919.447266"/>
    <use xlink:href="#TimesNewRomanPSMT-35" x="1944.447266"/>
    <use xlink:href="#TimesNewRomanPSMT-30" x="1994.447266"/>
    <use xlink:href="#TimesNewRomanPSMT-30" x="2044.447266"/>
    <use xlink:href="#TimesNewRomanPSMT-2d" x="2094.447266"/>
    <use xlink:href="#TimesNewRomanPSMT-35" x="2127.748047"/>
    <use xlink:href="#TimesNewRomanPSMT-32" x="2177.748047"/>
    <use xlink:href="#TimesNewRomanPSMT-35" x="2227.748047"/>
    <use xlink:href="#TimesNewRomanPSMT-29" x="2277.748047"/>
   </g>
  </g>
 </g>
 <defs>
  <clipPath id="pe247b2cdb8">
   <rect x="49.88575" y="53.475624" width="121.8434" height="116.354268"/>
  </clipPath>
  <clipPath id="pffde048f88">
   <rect x="175.30415" y="53.475624" width="121.8434" height="116.354268"/>
  </clipPath>
  <clipPath id="p0131b9c333">
   <rect x="300.72255" y="53.475624" width="121.8434" height="116.354268"/>
  </clipPath>
  <clipPath id="pabc371ad1f">
   <rect x="426.14095" y="53.475624" width="121.8434" height="116.354268"/>
  </clipPath>
 </defs>
</svg>
