<?xml version="1.0" encoding="utf-8" standalone="no"?>
<!DOCTYPE svg PUBLIC "-//W3C//DTD SVG 1.1//EN"
  "http://www.w3.org/Graphics/SVG/1.1/DTD/svg11.dtd">
<svg xmlns:xlink="http://www.w3.org/1999/xlink" width="476.463725pt" height="305.121402pt" viewBox="0 0 476.463725 305.121402" xmlns="http://www.w3.org/2000/svg" version="1.1">
 <metadata>
  <rdf:RDF xmlns:dc="http://purl.org/dc/elements/1.1/" xmlns:cc="http://creativecommons.org/ns#" xmlns:rdf="http://www.w3.org/1999/02/22-rdf-syntax-ns#">
   <cc:Work>
    <dc:type rdf:resource="http://purl.org/dc/dcmitype/StillImage"/>
    <dc:date>2022-11-30T22:30:48.436583</dc:date>
    <dc:format>image/svg+xml</dc:format>
    <dc:creator>
     <cc:Agent>
      <dc:title>Matplotlib v3.5.2, https://matplotlib.org/</dc:title>
     </cc:Agent>
    </dc:creator>
   </cc:Work>
  </rdf:RDF>
 </metadata>
 <defs>
  <style type="text/css">*{stroke-linejoin: round; stroke-linecap: butt}</style>
 </defs>
 <g id="figure_1">
  <g id="patch_1">
   <path d="M 0 305.121402 
L 476.463725 305.121402 
L 476.463725 0 
L 0 0 
z
" style="fill: #ffffff"/>
  </g>
  <g id="axes_1">
   <g id="patch_2">
    <path d="M 64.908 160.166646 
L 246.037336 160.166646 
L 246.037336 61.188228 
L 64.908 61.188228 
z
" style="fill: #ffffff"/>
   </g>
   <g id="matplotlib.axis_1">
    <g id="xtick_1">
     <g id="line2d_1">
      <path d="M 72.921308 160.166646 
L 72.921308 61.188228 
" clip-path="url(#p099064c509)" style="fill: none; stroke-dasharray: 7.4,3.2; stroke-dashoffset: 0; stroke: #b0b0b0; stroke-opacity: 0.5; stroke-width: 2"/>
     </g>
     <g id="line2d_2">
      <defs>
       <path id="mc9b1eea98f" d="M 0 0 
L 0 3.5 
" style="stroke: #000000; stroke-width: 2"/>
      </defs>
      <g>
       <use xlink:href="#mc9b1eea98f" x="72.921308" y="160.166646" style="stroke: #000000; stroke-width: 2"/>
      </g>
     </g>
     <g id="text_1">
      <!-- 0 -->
      <g transform="translate(68.921308 185.976646)scale(0.16 -0.16)">
       <defs>
        <path id="TimesNewRomanPSMT-30" d="M 231 2094 
Q 231 2819 450 3342 
Q 669 3866 1031 4122 
Q 1313 4325 1613 4325 
Q 2100 4325 2488 3828 
Q 2972 3213 2972 2159 
Q 2972 1422 2759 906 
Q 2547 391 2217 158 
Q 1888 -75 1581 -75 
Q 975 -75 572 641 
Q 231 1244 231 2094 
z
M 844 2016 
Q 844 1141 1059 588 
Q 1238 122 1591 122 
Q 1759 122 1940 273 
Q 2122 425 2216 781 
Q 2359 1319 2359 2297 
Q 2359 3022 2209 3506 
Q 2097 3866 1919 4016 
Q 1791 4119 1609 4119 
Q 1397 4119 1231 3928 
Q 1006 3669 925 3112 
Q 844 2556 844 2016 
z
" transform="scale(0.015625)"/>
       </defs>
       <use xlink:href="#TimesNewRomanPSMT-30"/>
      </g>
     </g>
    </g>
    <g id="xtick_2">
     <g id="line2d_3">
      <path d="M 182.843226 160.166646 
L 182.843226 61.188228 
" clip-path="url(#p099064c509)" style="fill: none; stroke-dasharray: 7.4,3.2; stroke-dashoffset: 0; stroke: #b0b0b0; stroke-opacity: 0.5; stroke-width: 2"/>
     </g>
     <g id="line2d_4">
      <g>
       <use xlink:href="#mc9b1eea98f" x="182.843226" y="160.166646" style="stroke: #000000; stroke-width: 2"/>
      </g>
     </g>
     <g id="text_2">
      <!-- 500 -->
      <g transform="translate(170.843226 185.976646)scale(0.16 -0.16)">
       <defs>
        <path id="TimesNewRomanPSMT-35" d="M 2778 4238 
L 2534 3706 
L 1259 3706 
L 981 3138 
Q 1809 3016 2294 2522 
Q 2709 2097 2709 1522 
Q 2709 1188 2573 903 
Q 2438 619 2231 419 
Q 2025 219 1772 97 
Q 1413 -75 1034 -75 
Q 653 -75 479 54 
Q 306 184 306 341 
Q 306 428 378 495 
Q 450 563 559 563 
Q 641 563 702 538 
Q 763 513 909 409 
Q 1144 247 1384 247 
Q 1750 247 2026 523 
Q 2303 800 2303 1197 
Q 2303 1581 2056 1914 
Q 1809 2247 1375 2428 
Q 1034 2569 447 2591 
L 1259 4238 
L 2778 4238 
z
" transform="scale(0.015625)"/>
       </defs>
       <use xlink:href="#TimesNewRomanPSMT-35"/>
       <use xlink:href="#TimesNewRomanPSMT-30" x="50"/>
       <use xlink:href="#TimesNewRomanPSMT-30" x="100"/>
      </g>
     </g>
    </g>
    <g id="text_3">
     <!-- Step -->
     <g transform="translate(139.827918 205.620146)scale(0.176 -0.176)">
      <defs>
       <path id="TimesNewRomanPSMT-53" d="M 2934 4334 
L 2934 2869 
L 2819 2869 
Q 2763 3291 2617 3541 
Q 2472 3791 2203 3937 
Q 1934 4084 1647 4084 
Q 1322 4084 1109 3886 
Q 897 3688 897 3434 
Q 897 3241 1031 3081 
Q 1225 2847 1953 2456 
Q 2547 2138 2764 1967 
Q 2981 1797 3098 1565 
Q 3216 1334 3216 1081 
Q 3216 600 2842 251 
Q 2469 -97 1881 -97 
Q 1697 -97 1534 -69 
Q 1438 -53 1133 45 
Q 828 144 747 144 
Q 669 144 623 97 
Q 578 50 556 -97 
L 441 -97 
L 441 1356 
L 556 1356 
Q 638 900 775 673 
Q 913 447 1195 297 
Q 1478 147 1816 147 
Q 2206 147 2432 353 
Q 2659 559 2659 841 
Q 2659 997 2573 1156 
Q 2488 1316 2306 1453 
Q 2184 1547 1640 1851 
Q 1097 2156 867 2337 
Q 638 2519 519 2737 
Q 400 2956 400 3219 
Q 400 3675 750 4004 
Q 1100 4334 1641 4334 
Q 1978 4334 2356 4169 
Q 2531 4091 2603 4091 
Q 2684 4091 2736 4139 
Q 2788 4188 2819 4334 
L 2934 4334 
z
" transform="scale(0.015625)"/>
       <path id="TimesNewRomanPSMT-74" d="M 1031 3803 
L 1031 2863 
L 1700 2863 
L 1700 2644 
L 1031 2644 
L 1031 788 
Q 1031 509 1111 412 
Q 1191 316 1316 316 
Q 1419 316 1516 380 
Q 1613 444 1666 569 
L 1788 569 
Q 1678 263 1478 108 
Q 1278 -47 1066 -47 
Q 922 -47 784 33 
Q 647 113 581 261 
Q 516 409 516 719 
L 516 2644 
L 63 2644 
L 63 2747 
Q 234 2816 414 2980 
Q 594 3144 734 3369 
Q 806 3488 934 3803 
L 1031 3803 
z
" transform="scale(0.015625)"/>
       <path id="TimesNewRomanPSMT-65" d="M 681 1784 
Q 678 1147 991 784 
Q 1303 422 1725 422 
Q 2006 422 2214 576 
Q 2422 731 2563 1106 
L 2659 1044 
Q 2594 616 2278 264 
Q 1963 -88 1488 -88 
Q 972 -88 605 314 
Q 238 716 238 1394 
Q 238 2128 614 2539 
Q 991 2950 1559 2950 
Q 2041 2950 2350 2633 
Q 2659 2316 2659 1784 
L 681 1784 
z
M 681 1966 
L 2006 1966 
Q 1991 2241 1941 2353 
Q 1863 2528 1708 2628 
Q 1553 2728 1384 2728 
Q 1125 2728 920 2526 
Q 716 2325 681 1966 
z
" transform="scale(0.015625)"/>
       <path id="TimesNewRomanPSMT-70" d="M -6 2578 
L 875 2934 
L 994 2934 
L 994 2266 
Q 1216 2644 1439 2795 
Q 1663 2947 1909 2947 
Q 2341 2947 2628 2609 
Q 2981 2197 2981 1534 
Q 2981 794 2556 309 
Q 2206 -88 1675 -88 
Q 1444 -88 1275 -22 
Q 1150 25 994 166 
L 994 -706 
Q 994 -1000 1030 -1079 
Q 1066 -1159 1155 -1206 
Q 1244 -1253 1478 -1253 
L 1478 -1369 
L -22 -1369 
L -22 -1253 
L 56 -1253 
Q 228 -1256 350 -1188 
Q 409 -1153 442 -1076 
Q 475 -1000 475 -688 
L 475 2019 
Q 475 2297 450 2372 
Q 425 2447 370 2484 
Q 316 2522 222 2522 
Q 147 2522 31 2478 
L -6 2578 
z
M 994 2081 
L 994 1013 
Q 994 666 1022 556 
Q 1066 375 1236 237 
Q 1406 100 1666 100 
Q 1978 100 2172 344 
Q 2425 663 2425 1241 
Q 2425 1897 2138 2250 
Q 1938 2494 1663 2494 
Q 1513 2494 1366 2419 
Q 1253 2363 994 2081 
z
" transform="scale(0.015625)"/>
      </defs>
      <use xlink:href="#TimesNewRomanPSMT-53"/>
      <use xlink:href="#TimesNewRomanPSMT-74" x="55.615234"/>
      <use xlink:href="#TimesNewRomanPSMT-65" x="83.398438"/>
      <use xlink:href="#TimesNewRomanPSMT-70" x="127.783203"/>
     </g>
    </g>
   </g>
   <g id="matplotlib.axis_2">
    <g id="ytick_1">
     <g id="line2d_5">
      <path d="M 64.908 160.166646 
L 246.037336 160.166646 
" clip-path="url(#p099064c509)" style="fill: none; stroke-dasharray: 7.4,3.2; stroke-dashoffset: 0; stroke: #b0b0b0; stroke-opacity: 0.5; stroke-width: 2"/>
     </g>
     <g id="line2d_6">
      <defs>
       <path id="mb2041d48eb" d="M 0 0 
L -3.5 0 
" style="stroke: #000000; stroke-width: 2"/>
      </defs>
      <g>
       <use xlink:href="#mb2041d48eb" x="64.908" y="160.166646" style="stroke: #000000; stroke-width: 2"/>
      </g>
     </g>
     <g id="text_4">
      <!-- 0.0 -->
      <g transform="translate(30.208 165.721646)scale(0.16 -0.16)">
       <defs>
        <path id="TimesNewRomanPSMT-2e" d="M 800 606 
Q 947 606 1047 504 
Q 1147 403 1147 259 
Q 1147 116 1045 14 
Q 944 -88 800 -88 
Q 656 -88 554 14 
Q 453 116 453 259 
Q 453 406 554 506 
Q 656 606 800 606 
z
" transform="scale(0.015625)"/>
       </defs>
       <use xlink:href="#TimesNewRomanPSMT-30"/>
       <use xlink:href="#TimesNewRomanPSMT-2e" x="50"/>
       <use xlink:href="#TimesNewRomanPSMT-30" x="75"/>
      </g>
     </g>
    </g>
    <g id="ytick_2">
     <g id="line2d_7">
      <path d="M 64.908 110.677437 
L 246.037336 110.677437 
" clip-path="url(#p099064c509)" style="fill: none; stroke-dasharray: 7.4,3.2; stroke-dashoffset: 0; stroke: #b0b0b0; stroke-opacity: 0.5; stroke-width: 2"/>
     </g>
     <g id="line2d_8">
      <g>
       <use xlink:href="#mb2041d48eb" x="64.908" y="110.677437" style="stroke: #000000; stroke-width: 2"/>
      </g>
     </g>
     <g id="text_5">
      <!-- 0.5 -->
      <g transform="translate(30.208 116.232437)scale(0.16 -0.16)">
       <use xlink:href="#TimesNewRomanPSMT-30"/>
       <use xlink:href="#TimesNewRomanPSMT-2e" x="50"/>
       <use xlink:href="#TimesNewRomanPSMT-35" x="75"/>
      </g>
     </g>
    </g>
    <g id="ytick_3">
     <g id="line2d_9">
      <path d="M 64.908 61.188228 
L 246.037336 61.188228 
" clip-path="url(#p099064c509)" style="fill: none; stroke-dasharray: 7.4,3.2; stroke-dashoffset: 0; stroke: #b0b0b0; stroke-opacity: 0.5; stroke-width: 2"/>
     </g>
     <g id="line2d_10">
      <g>
       <use xlink:href="#mb2041d48eb" x="64.908" y="61.188228" style="stroke: #000000; stroke-width: 2"/>
      </g>
     </g>
     <g id="text_6">
      <!-- 1.0 -->
      <g transform="translate(30.208 66.743228)scale(0.16 -0.16)">
       <defs>
        <path id="TimesNewRomanPSMT-31" d="M 750 3822 
L 1781 4325 
L 1884 4325 
L 1884 747 
Q 1884 391 1914 303 
Q 1944 216 2037 169 
Q 2131 122 2419 116 
L 2419 0 
L 825 0 
L 825 116 
Q 1125 122 1212 167 
Q 1300 213 1334 289 
Q 1369 366 1369 747 
L 1369 3034 
Q 1369 3497 1338 3628 
Q 1316 3728 1258 3775 
Q 1200 3822 1119 3822 
Q 1003 3822 797 3725 
L 750 3822 
z
" transform="scale(0.015625)"/>
       </defs>
       <use xlink:href="#TimesNewRomanPSMT-31"/>
       <use xlink:href="#TimesNewRomanPSMT-2e" x="50"/>
       <use xlink:href="#TimesNewRomanPSMT-30" x="75"/>
      </g>
     </g>
    </g>
    <g id="text_7">
     <!-- $1 - d_{\zeta}$  (%) -->
     <g transform="translate(20.576 153.885437)rotate(-90)scale(0.176 -0.176)">
      <defs>
       <path id="DejaVuSans-31" d="M 794 531 
L 1825 531 
L 1825 4091 
L 703 3866 
L 703 4441 
L 1819 4666 
L 2450 4666 
L 2450 531 
L 3481 531 
L 3481 0 
L 794 0 
L 794 531 
z
" transform="scale(0.015625)"/>
       <path id="DejaVuSans-2212" d="M 678 2272 
L 4684 2272 
L 4684 1741 
L 678 1741 
L 678 2272 
z
" transform="scale(0.015625)"/>
       <path id="DejaVuSans-Oblique-64" d="M 2675 525 
Q 2444 222 2128 65 
Q 1813 -91 1428 -91 
Q 903 -91 598 267 
Q 294 625 294 1247 
Q 294 1766 478 2236 
Q 663 2706 1013 3078 
Q 1244 3325 1534 3454 
Q 1825 3584 2144 3584 
Q 2481 3584 2739 3421 
Q 2997 3259 3138 2956 
L 3513 4863 
L 4091 4863 
L 3144 0 
L 2566 0 
L 2675 525 
z
M 891 1350 
Q 891 897 1095 644 
Q 1300 391 1663 391 
Q 1931 391 2161 520 
Q 2391 650 2566 903 
Q 2750 1166 2856 1509 
Q 2963 1853 2963 2188 
Q 2963 2622 2758 2865 
Q 2553 3109 2194 3109 
Q 1922 3109 1687 2981 
Q 1453 2853 1288 2613 
Q 1106 2353 998 2009 
Q 891 1666 891 1350 
z
" transform="scale(0.015625)"/>
       <path id="DejaVuSans-Oblique-3b6" d="M 1966 397 
Q 2378 394 2578 159 
Q 2794 -88 2722 -463 
Q 2650 -822 2372 -1072 
Q 2069 -1344 1559 -1344 
Q 1606 -1109 1650 -872 
Q 1863 -888 2022 -750 
Q 2144 -641 2166 -525 
Q 2197 -359 2125 -222 
Q 2050 -91 1872 -91 
Q -22 -91 316 1669 
Q 616 3206 2609 4284 
L 947 4284 
L 1059 4863 
L 3778 4863 
L 3666 4284 
Q 1181 3147 894 1669 
Q 647 397 1966 397 
z
" transform="scale(0.015625)"/>
       <path id="TimesNewRomanPSMT-20" transform="scale(0.015625)"/>
       <path id="TimesNewRomanPSMT-28" d="M 1988 -1253 
L 1988 -1369 
Q 1516 -1131 1200 -813 
Q 750 -359 506 256 
Q 263 872 263 1534 
Q 263 2503 741 3301 
Q 1219 4100 1988 4444 
L 1988 4313 
Q 1603 4100 1356 3731 
Q 1109 3363 987 2797 
Q 866 2231 866 1616 
Q 866 947 969 400 
Q 1050 -31 1165 -292 
Q 1281 -553 1476 -793 
Q 1672 -1034 1988 -1253 
z
" transform="scale(0.015625)"/>
       <path id="TimesNewRomanPSMT-25" d="M 4350 4334 
L 1263 -175 
L 984 -175 
L 4072 4334 
L 4350 4334 
z
M 1138 4334 
Q 1559 4334 1792 3984 
Q 2025 3634 2025 3181 
Q 2025 2638 1762 2341 
Q 1500 2044 1131 2044 
Q 884 2044 678 2180 
Q 472 2316 348 2584 
Q 225 2853 225 3181 
Q 225 3509 350 3786 
Q 475 4063 692 4198 
Q 909 4334 1138 4334 
z
M 1128 4159 
Q 969 4159 845 3971 
Q 722 3784 722 3184 
Q 722 2750 791 2522 
Q 844 2350 956 2256 
Q 1022 2200 1119 2200 
Q 1269 2200 1375 2363 
Q 1531 2603 1531 3166 
Q 1531 3759 1378 4000 
Q 1278 4159 1128 4159 
z
M 4206 2103 
Q 4428 2103 4648 1962 
Q 4869 1822 4989 1553 
Q 5109 1284 5109 963 
Q 5109 409 4843 117 
Q 4578 -175 4216 -175 
Q 3988 -175 3773 -34 
Q 3559 106 3436 367 
Q 3313 628 3313 963 
Q 3313 1291 3436 1562 
Q 3559 1834 3773 1968 
Q 3988 2103 4206 2103 
z
M 4209 1938 
Q 4059 1938 3950 1769 
Q 3809 1550 3809 941 
Q 3809 381 3953 159 
Q 4059 0 4209 0 
Q 4353 0 4466 172 
Q 4616 400 4616 956 
Q 4616 1544 4466 1778 
Q 4363 1938 4209 1938 
z
" transform="scale(0.015625)"/>
       <path id="TimesNewRomanPSMT-29" d="M 144 4313 
L 144 4444 
Q 619 4209 934 3891 
Q 1381 3434 1625 2820 
Q 1869 2206 1869 1541 
Q 1869 572 1392 -226 
Q 916 -1025 144 -1369 
L 144 -1253 
Q 528 -1038 776 -670 
Q 1025 -303 1145 264 
Q 1266 831 1266 1447 
Q 1266 2113 1163 2663 
Q 1084 3094 967 3353 
Q 850 3613 656 3853 
Q 463 4094 144 4313 
z
" transform="scale(0.015625)"/>
      </defs>
      <use xlink:href="#DejaVuSans-31" transform="translate(0 0.015625)"/>
      <use xlink:href="#DejaVuSans-2212" transform="translate(83.105469 0.015625)"/>
      <use xlink:href="#DejaVuSans-Oblique-64" transform="translate(186.376953 0.015625)"/>
      <use xlink:href="#DejaVuSans-Oblique-3b6" transform="translate(249.853516 -16.390625)scale(0.7)"/>
      <use xlink:href="#TimesNewRomanPSMT-20" transform="translate(290.664062 0.015625)"/>
      <use xlink:href="#TimesNewRomanPSMT-20" transform="translate(315.664062 0.015625)"/>
      <use xlink:href="#TimesNewRomanPSMT-28" transform="translate(340.664062 0.015625)"/>
      <use xlink:href="#TimesNewRomanPSMT-25" transform="translate(373.964844 0.015625)"/>
      <use xlink:href="#TimesNewRomanPSMT-29" transform="translate(457.265625 0.015625)"/>
     </g>
    </g>
   </g>
   <g id="line2d_11">
    <path d="M 73.141152 61.188228 
L 79.516623 61.277253 
L 81.05553 61.605239 
L 82.594437 62.171451 
L 84.133343 62.970418 
L 85.892094 64.15861 
L 87.650845 65.626117 
L 89.629439 67.588787 
L 91.827878 70.122265 
L 94.24616 73.286117 
L 96.884286 77.114716 
L 100.181943 82.325296 
L 104.57882 89.735804 
L 115.571012 108.458047 
L 119.528201 114.691185 
L 123.265546 120.161771 
L 126.563204 124.613468 
L 129.860861 128.697318 
L 132.938675 132.175379 
L 136.016489 135.338011 
L 139.094302 138.197434 
L 142.172116 140.769832 
L 145.469774 143.22876 
L 148.767431 145.404458 
L 152.065089 147.322283 
L 155.58259 149.111937 
L 159.319935 150.755774 
L 163.277124 152.242548 
L 167.454157 153.567157 
L 171.851034 154.730071 
L 176.687598 155.779597 
L 181.96385 156.699108 
L 187.899634 157.508495 
L 194.714793 158.209988 
L 202.629171 158.797423 
L 212.3023 159.282634 
L 224.393711 159.655648 
L 232.308089 159.809856 
L 232.308089 159.809856 
" clip-path="url(#p099064c509)" style="fill: none; stroke: #cc6677; stroke-opacity: 0.5; stroke-width: 4; stroke-linecap: square"/>
   </g>
   <g id="line2d_12">
    <path d="M 73.141152 61.188228 
L 79.956311 61.277253 
L 81.495217 61.605239 
L 83.034124 62.171451 
L 84.573031 62.970418 
L 86.331782 64.15861 
L 88.090532 65.626117 
L 90.069127 67.588787 
L 92.267565 70.122265 
L 94.685848 73.286117 
L 97.323974 77.114716 
L 100.621631 82.325296 
L 105.018508 89.735804 
L 116.0107 108.458047 
L 119.967889 114.691185 
L 123.705234 120.161771 
L 127.002891 124.613468 
L 130.300549 128.697318 
L 133.378363 132.175379 
L 136.456176 135.338011 
L 139.53399 138.197434 
L 142.611804 140.769832 
L 145.909461 143.22876 
L 149.207119 145.404458 
L 152.504776 147.322283 
L 156.022278 149.111937 
L 159.759623 150.755774 
L 163.716812 152.242548 
L 167.893845 153.567157 
L 172.290722 154.730071 
L 177.127286 155.779597 
L 182.403538 156.699108 
L 188.339322 157.508495 
L 195.154481 158.209988 
L 203.068859 158.797423 
L 212.741987 159.282634 
L 224.833398 159.655648 
L 232.308089 159.802662 
L 232.308089 159.802662 
" clip-path="url(#p099064c509)" style="fill: none; stroke: #cc6677; stroke-opacity: 0.5; stroke-width: 4; stroke-linecap: square"/>
   </g>
   <g id="line2d_13">
    <path d="M 73.141152 61.188228 
L 80.176154 61.277253 
L 81.715061 61.605239 
L 83.253968 62.171451 
L 84.792875 62.970418 
L 86.551626 64.15861 
L 88.310376 65.626117 
L 90.288971 67.588787 
L 92.487409 70.122265 
L 94.905691 73.286117 
L 97.543817 77.114716 
L 100.841475 82.325296 
L 105.238352 89.735804 
L 116.230543 108.458047 
L 120.187733 114.691185 
L 123.925078 120.161771 
L 127.222735 124.613468 
L 130.520393 128.697318 
L 133.598207 132.175379 
L 136.67602 135.338011 
L 139.753834 138.197434 
L 142.831648 140.769832 
L 146.129305 143.22876 
L 149.426963 145.404458 
L 152.72462 147.322283 
L 156.242122 149.111937 
L 159.979467 150.755774 
L 163.936656 152.242548 
L 168.113689 153.567157 
L 172.510565 154.730071 
L 177.34713 155.779597 
L 182.623382 156.699108 
L 188.559165 157.508495 
L 195.374324 158.209988 
L 203.288702 158.797423 
L 212.961831 159.282634 
L 225.053242 159.655648 
L 232.308089 159.799011 
L 232.308089 159.799011 
" clip-path="url(#p099064c509)" style="fill: none; stroke: #cc6677; stroke-opacity: 0.5; stroke-width: 4; stroke-linecap: square"/>
   </g>
   <g id="line2d_14">
    <path d="M 73.141152 61.188228 
L 80.835686 61.277253 
L 82.374593 61.605239 
L 83.9135 62.171451 
L 85.452406 62.970418 
L 87.211157 64.15861 
L 88.969908 65.626117 
L 90.948502 67.588787 
L 93.146941 70.122265 
L 95.565223 73.286117 
L 98.203349 77.114716 
L 101.501006 82.325296 
L 105.897883 89.735804 
L 116.890075 108.458047 
L 120.847264 114.691185 
L 124.584609 120.161771 
L 127.882267 124.613468 
L 131.179924 128.697318 
L 134.257738 132.175379 
L 137.335552 135.338011 
L 140.413365 138.197434 
L 143.491179 140.769832 
L 146.788837 143.22876 
L 150.086494 145.404458 
L 153.384152 147.322283 
L 156.901653 149.111937 
L 160.638998 150.755774 
L 164.596187 152.242548 
L 168.77322 153.567157 
L 173.170097 154.730071 
L 178.006661 155.779597 
L 183.282913 156.699108 
L 189.218697 157.508495 
L 196.033856 158.209988 
L 203.948234 158.797423 
L 213.621363 159.282634 
L 225.712774 159.655648 
L 232.308089 159.787836 
L 232.308089 159.787836 
" clip-path="url(#p099064c509)" style="fill: none; stroke: #cc6677; stroke-opacity: 0.5; stroke-width: 4; stroke-linecap: square"/>
   </g>
   <g id="line2d_15">
    <path d="M 73.141152 61.188228 
L 237.804185 61.188228 
L 237.804185 61.188228 
" clip-path="url(#p099064c509)" style="fill: none; stroke: #44aa99; stroke-opacity: 0.5; stroke-width: 4; stroke-linecap: square"/>
   </g>
   <g id="line2d_16">
    <path d="M 73.141152 61.188228 
L 237.804185 61.188228 
L 237.804185 61.188228 
" clip-path="url(#p099064c509)" style="fill: none; stroke: #44aa99; stroke-opacity: 0.5; stroke-width: 4; stroke-linecap: square"/>
   </g>
   <g id="line2d_17">
    <path d="M 73.141152 61.188228 
L 237.804185 61.188228 
L 237.804185 61.188228 
" clip-path="url(#p099064c509)" style="fill: none; stroke: #44aa99; stroke-opacity: 0.5; stroke-width: 4; stroke-linecap: square"/>
   </g>
   <g id="line2d_18">
    <path d="M 73.141152 61.188228 
L 232.308089 61.188228 
L 232.308089 61.188228 
" clip-path="url(#p099064c509)" style="fill: none; stroke: #44aa99; stroke-opacity: 0.5; stroke-width: 4; stroke-linecap: square"/>
   </g>
   <g id="line2d_19">
    <path d="M 73.141152 61.188228 
L 232.308089 61.188228 
L 232.308089 61.188228 
" clip-path="url(#p099064c509)" style="fill: none; stroke: #44aa99; stroke-opacity: 0.5; stroke-width: 4; stroke-linecap: square"/>
   </g>
   <g id="line2d_20">
    <path d="M 73.141152 61.188228 
L 232.308089 61.188228 
L 232.308089 61.188228 
" clip-path="url(#p099064c509)" style="fill: none; stroke: #44aa99; stroke-opacity: 0.5; stroke-width: 4; stroke-linecap: square"/>
   </g>
   <g id="line2d_21"/>
   <g id="line2d_22"/>
   <g id="patch_3">
    <path d="M 64.908 160.166646 
L 64.908 61.188228 
" style="fill: none; stroke: #000000; stroke-width: 2; stroke-linejoin: miter; stroke-linecap: square"/>
   </g>
   <g id="patch_4">
    <path d="M 64.908 160.166646 
L 246.037336 160.166646 
" style="fill: none; stroke: #000000; stroke-width: 2; stroke-linejoin: miter; stroke-linecap: square"/>
   </g>
   <g id="text_8">
    <!-- (a) -->
    <g transform="translate(144.374231 293.643277)scale(0.2 -0.2)">
     <defs>
      <path id="TimesNewRomanPSMT-61" d="M 1822 413 
Q 1381 72 1269 19 
Q 1100 -59 909 -59 
Q 613 -59 420 144 
Q 228 347 228 678 
Q 228 888 322 1041 
Q 450 1253 767 1440 
Q 1084 1628 1822 1897 
L 1822 2009 
Q 1822 2438 1686 2597 
Q 1550 2756 1291 2756 
Q 1094 2756 978 2650 
Q 859 2544 859 2406 
L 866 2225 
Q 866 2081 792 2003 
Q 719 1925 600 1925 
Q 484 1925 411 2006 
Q 338 2088 338 2228 
Q 338 2497 613 2722 
Q 888 2947 1384 2947 
Q 1766 2947 2009 2819 
Q 2194 2722 2281 2516 
Q 2338 2381 2338 1966 
L 2338 994 
Q 2338 584 2353 492 
Q 2369 400 2405 369 
Q 2441 338 2488 338 
Q 2538 338 2575 359 
Q 2641 400 2828 588 
L 2828 413 
Q 2478 -56 2159 -56 
Q 2006 -56 1915 50 
Q 1825 156 1822 413 
z
M 1822 616 
L 1822 1706 
Q 1350 1519 1213 1441 
Q 966 1303 859 1153 
Q 753 1003 753 825 
Q 753 600 887 451 
Q 1022 303 1197 303 
Q 1434 303 1822 616 
z
" transform="scale(0.015625)"/>
     </defs>
     <use xlink:href="#TimesNewRomanPSMT-28"/>
     <use xlink:href="#TimesNewRomanPSMT-61" x="33.300781"/>
     <use xlink:href="#TimesNewRomanPSMT-29" x="77.685547"/>
    </g>
   </g>
   <g id="text_9">
    <!-- Always Unreliable -->
    <g transform="translate(87.742043 55.188228)scale(0.18 -0.18)">
     <defs>
      <path id="TimesNewRomanPSMT-41" d="M 2928 1419 
L 1288 1419 
L 1000 750 
Q 894 503 894 381 
Q 894 284 986 211 
Q 1078 138 1384 116 
L 1384 0 
L 50 0 
L 50 116 
Q 316 163 394 238 
Q 553 388 747 847 
L 2238 4334 
L 2347 4334 
L 3822 809 
Q 4000 384 4145 257 
Q 4291 131 4550 116 
L 4550 0 
L 2878 0 
L 2878 116 
Q 3131 128 3220 200 
Q 3309 272 3309 375 
Q 3309 513 3184 809 
L 2928 1419 
z
M 2841 1650 
L 2122 3363 
L 1384 1650 
L 2841 1650 
z
" transform="scale(0.015625)"/>
      <path id="TimesNewRomanPSMT-6c" d="M 1184 4444 
L 1184 647 
Q 1184 378 1223 290 
Q 1263 203 1344 158 
Q 1425 113 1647 113 
L 1647 0 
L 244 0 
L 244 113 
Q 441 113 512 153 
Q 584 194 625 287 
Q 666 381 666 647 
L 666 3247 
Q 666 3731 644 3842 
Q 622 3953 573 3993 
Q 525 4034 450 4034 
Q 369 4034 244 3984 
L 191 4094 
L 1044 4444 
L 1184 4444 
z
" transform="scale(0.015625)"/>
      <path id="TimesNewRomanPSMT-77" d="M 41 2863 
L 1241 2863 
L 1241 2747 
Q 1075 2734 1023 2687 
Q 972 2641 972 2553 
Q 972 2456 1025 2319 
L 1638 672 
L 2253 2013 
L 2091 2434 
Q 2016 2622 1894 2694 
Q 1825 2738 1638 2747 
L 1638 2863 
L 3000 2863 
L 3000 2747 
Q 2775 2738 2681 2666 
Q 2619 2616 2619 2506 
Q 2619 2444 2644 2378 
L 3294 734 
L 3897 2319 
Q 3959 2488 3959 2588 
Q 3959 2647 3898 2694 
Q 3838 2741 3659 2747 
L 3659 2863 
L 4563 2863 
L 4563 2747 
Q 4291 2706 4163 2378 
L 3206 -88 
L 3078 -88 
L 2363 1741 
L 1528 -88 
L 1413 -88 
L 494 2319 
Q 403 2547 315 2626 
Q 228 2706 41 2747 
L 41 2863 
z
" transform="scale(0.015625)"/>
      <path id="TimesNewRomanPSMT-79" d="M 38 2863 
L 1372 2863 
L 1372 2747 
L 1306 2747 
Q 1166 2747 1095 2686 
Q 1025 2625 1025 2534 
Q 1025 2413 1128 2197 
L 1825 753 
L 2466 2334 
Q 2519 2463 2519 2588 
Q 2519 2644 2497 2672 
Q 2472 2706 2419 2726 
Q 2366 2747 2231 2747 
L 2231 2863 
L 3163 2863 
L 3163 2747 
Q 3047 2734 2984 2696 
Q 2922 2659 2847 2556 
Q 2819 2513 2741 2316 
L 1575 -541 
Q 1406 -956 1132 -1168 
Q 859 -1381 606 -1381 
Q 422 -1381 303 -1275 
Q 184 -1169 184 -1031 
Q 184 -900 270 -820 
Q 356 -741 506 -741 
Q 609 -741 788 -809 
Q 913 -856 944 -856 
Q 1038 -856 1148 -759 
Q 1259 -663 1372 -384 
L 1575 113 
L 547 2272 
Q 500 2369 397 2513 
Q 319 2622 269 2659 
Q 197 2709 38 2747 
L 38 2863 
z
" transform="scale(0.015625)"/>
      <path id="TimesNewRomanPSMT-73" d="M 2050 2947 
L 2050 1972 
L 1947 1972 
Q 1828 2431 1642 2597 
Q 1456 2763 1169 2763 
Q 950 2763 815 2647 
Q 681 2531 681 2391 
Q 681 2216 781 2091 
Q 878 1963 1175 1819 
L 1631 1597 
Q 2266 1288 2266 781 
Q 2266 391 1970 151 
Q 1675 -88 1309 -88 
Q 1047 -88 709 6 
Q 606 38 541 38 
Q 469 38 428 -44 
L 325 -44 
L 325 978 
L 428 978 
Q 516 541 762 319 
Q 1009 97 1316 97 
Q 1531 97 1667 223 
Q 1803 350 1803 528 
Q 1803 744 1651 891 
Q 1500 1038 1047 1263 
Q 594 1488 453 1669 
Q 313 1847 313 2119 
Q 313 2472 555 2709 
Q 797 2947 1181 2947 
Q 1350 2947 1591 2875 
Q 1750 2828 1803 2828 
Q 1853 2828 1881 2850 
Q 1909 2872 1947 2947 
L 2050 2947 
z
" transform="scale(0.015625)"/>
      <path id="TimesNewRomanPSMT-55" d="M 3053 4122 
L 3053 4238 
L 4553 4238 
L 4553 4122 
L 4394 4122 
Q 4144 4122 4009 3913 
Q 3944 3816 3944 3463 
L 3944 1744 
Q 3944 1106 3817 754 
Q 3691 403 3320 151 
Q 2950 -100 2313 -100 
Q 1619 -100 1259 140 
Q 900 381 750 788 
Q 650 1066 650 1831 
L 650 3488 
Q 650 3878 542 4000 
Q 434 4122 194 4122 
L 34 4122 
L 34 4238 
L 1866 4238 
L 1866 4122 
L 1703 4122 
Q 1441 4122 1328 3956 
Q 1250 3844 1250 3488 
L 1250 1641 
Q 1250 1394 1295 1075 
Q 1341 756 1459 578 
Q 1578 400 1801 284 
Q 2025 169 2350 169 
Q 2766 169 3094 350 
Q 3422 531 3542 814 
Q 3663 1097 3663 1772 
L 3663 3488 
Q 3663 3884 3575 3984 
Q 3453 4122 3213 4122 
L 3053 4122 
z
" transform="scale(0.015625)"/>
      <path id="TimesNewRomanPSMT-6e" d="M 1034 2341 
Q 1538 2947 1994 2947 
Q 2228 2947 2397 2830 
Q 2566 2713 2666 2444 
Q 2734 2256 2734 1869 
L 2734 647 
Q 2734 375 2778 278 
Q 2813 200 2889 156 
Q 2966 113 3172 113 
L 3172 0 
L 1756 0 
L 1756 113 
L 1816 113 
Q 2016 113 2095 173 
Q 2175 234 2206 353 
Q 2219 400 2219 647 
L 2219 1819 
Q 2219 2209 2117 2386 
Q 2016 2563 1775 2563 
Q 1403 2563 1034 2156 
L 1034 647 
Q 1034 356 1069 288 
Q 1113 197 1189 155 
Q 1266 113 1500 113 
L 1500 0 
L 84 0 
L 84 113 
L 147 113 
Q 366 113 442 223 
Q 519 334 519 647 
L 519 1709 
Q 519 2225 495 2337 
Q 472 2450 423 2490 
Q 375 2531 294 2531 
Q 206 2531 84 2484 
L 38 2597 
L 900 2947 
L 1034 2947 
L 1034 2341 
z
" transform="scale(0.015625)"/>
      <path id="TimesNewRomanPSMT-72" d="M 1038 2947 
L 1038 2303 
Q 1397 2947 1775 2947 
Q 1947 2947 2059 2842 
Q 2172 2738 2172 2600 
Q 2172 2478 2090 2393 
Q 2009 2309 1897 2309 
Q 1788 2309 1652 2417 
Q 1516 2525 1450 2525 
Q 1394 2525 1328 2463 
Q 1188 2334 1038 2041 
L 1038 669 
Q 1038 431 1097 309 
Q 1138 225 1241 169 
Q 1344 113 1538 113 
L 1538 0 
L 72 0 
L 72 113 
Q 291 113 397 181 
Q 475 231 506 341 
Q 522 394 522 644 
L 522 1753 
Q 522 2253 501 2348 
Q 481 2444 426 2487 
Q 372 2531 291 2531 
Q 194 2531 72 2484 
L 41 2597 
L 906 2947 
L 1038 2947 
z
" transform="scale(0.015625)"/>
      <path id="TimesNewRomanPSMT-69" d="M 928 4444 
Q 1059 4444 1151 4351 
Q 1244 4259 1244 4128 
Q 1244 3997 1151 3903 
Q 1059 3809 928 3809 
Q 797 3809 703 3903 
Q 609 3997 609 4128 
Q 609 4259 701 4351 
Q 794 4444 928 4444 
z
M 1188 2947 
L 1188 647 
Q 1188 378 1227 289 
Q 1266 200 1342 156 
Q 1419 113 1622 113 
L 1622 0 
L 231 0 
L 231 113 
Q 441 113 512 153 
Q 584 194 626 287 
Q 669 381 669 647 
L 669 1750 
Q 669 2216 641 2353 
Q 619 2453 572 2492 
Q 525 2531 444 2531 
Q 356 2531 231 2484 
L 188 2597 
L 1050 2947 
L 1188 2947 
z
" transform="scale(0.015625)"/>
      <path id="TimesNewRomanPSMT-62" d="M 984 2369 
Q 1400 2947 1881 2947 
Q 2322 2947 2650 2570 
Q 2978 2194 2978 1541 
Q 2978 778 2472 313 
Q 2038 -88 1503 -88 
Q 1253 -88 995 3 
Q 738 94 469 275 
L 469 3241 
Q 469 3728 445 3840 
Q 422 3953 372 3993 
Q 322 4034 247 4034 
Q 159 4034 28 3984 
L -16 4094 
L 844 4444 
L 984 4444 
L 984 2369 
z
M 984 2169 
L 984 456 
Q 1144 300 1314 220 
Q 1484 141 1663 141 
Q 1947 141 2192 453 
Q 2438 766 2438 1363 
Q 2438 1913 2192 2208 
Q 1947 2503 1634 2503 
Q 1469 2503 1303 2419 
Q 1178 2356 984 2169 
z
" transform="scale(0.015625)"/>
     </defs>
     <use xlink:href="#TimesNewRomanPSMT-41"/>
     <use xlink:href="#TimesNewRomanPSMT-6c" x="72.216797"/>
     <use xlink:href="#TimesNewRomanPSMT-77" x="100"/>
     <use xlink:href="#TimesNewRomanPSMT-61" x="172.216797"/>
     <use xlink:href="#TimesNewRomanPSMT-79" x="216.601562"/>
     <use xlink:href="#TimesNewRomanPSMT-73" x="266.601562"/>
     <use xlink:href="#TimesNewRomanPSMT-20" x="305.517578"/>
     <use xlink:href="#TimesNewRomanPSMT-55" x="330.517578"/>
     <use xlink:href="#TimesNewRomanPSMT-6e" x="402.734375"/>
     <use xlink:href="#TimesNewRomanPSMT-72" x="452.734375"/>
     <use xlink:href="#TimesNewRomanPSMT-65" x="486.035156"/>
     <use xlink:href="#TimesNewRomanPSMT-6c" x="530.419922"/>
     <use xlink:href="#TimesNewRomanPSMT-69" x="558.203125"/>
     <use xlink:href="#TimesNewRomanPSMT-61" x="585.986328"/>
     <use xlink:href="#TimesNewRomanPSMT-62" x="630.371094"/>
     <use xlink:href="#TimesNewRomanPSMT-6c" x="680.371094"/>
     <use xlink:href="#TimesNewRomanPSMT-65" x="708.154297"/>
    </g>
   </g>
   <g id="legend_1"/>
  </g>
  <g id="axes_2">
   <g id="patch_5">
    <path d="M 282.263204 160.166646 
L 463.39254 160.166646 
L 463.39254 61.188228 
L 282.263204 61.188228 
z
" style="fill: #ffffff"/>
   </g>
   <g id="matplotlib.axis_3">
    <g id="xtick_3">
     <g id="line2d_23">
      <path d="M 290.276511 160.166646 
L 290.276511 61.188228 
" clip-path="url(#p5f55c689a8)" style="fill: none; stroke-dasharray: 7.4,3.2; stroke-dashoffset: 0; stroke: #b0b0b0; stroke-opacity: 0.5; stroke-width: 2"/>
     </g>
     <g id="line2d_24">
      <g>
       <use xlink:href="#mc9b1eea98f" x="290.276511" y="160.166646" style="stroke: #000000; stroke-width: 2"/>
      </g>
     </g>
     <g id="text_10">
      <!-- 0 -->
      <g transform="translate(286.276511 185.976646)scale(0.16 -0.16)">
       <use xlink:href="#TimesNewRomanPSMT-30"/>
      </g>
     </g>
    </g>
    <g id="xtick_4">
     <g id="line2d_25">
      <path d="M 400.198429 160.166646 
L 400.198429 61.188228 
" clip-path="url(#p5f55c689a8)" style="fill: none; stroke-dasharray: 7.4,3.2; stroke-dashoffset: 0; stroke: #b0b0b0; stroke-opacity: 0.5; stroke-width: 2"/>
     </g>
     <g id="line2d_26">
      <g>
       <use xlink:href="#mc9b1eea98f" x="400.198429" y="160.166646" style="stroke: #000000; stroke-width: 2"/>
      </g>
     </g>
     <g id="text_11">
      <!-- 500 -->
      <g transform="translate(388.198429 185.976646)scale(0.16 -0.16)">
       <use xlink:href="#TimesNewRomanPSMT-35"/>
       <use xlink:href="#TimesNewRomanPSMT-30" x="50"/>
       <use xlink:href="#TimesNewRomanPSMT-30" x="100"/>
      </g>
     </g>
    </g>
    <g id="text_12">
     <!-- Step -->
     <g transform="translate(357.183122 205.620146)scale(0.176 -0.176)">
      <use xlink:href="#TimesNewRomanPSMT-53"/>
      <use xlink:href="#TimesNewRomanPSMT-74" x="55.615234"/>
      <use xlink:href="#TimesNewRomanPSMT-65" x="83.398438"/>
      <use xlink:href="#TimesNewRomanPSMT-70" x="127.783203"/>
     </g>
    </g>
   </g>
   <g id="matplotlib.axis_4">
    <g id="ytick_4">
     <g id="line2d_27">
      <path d="M 282.263204 160.166646 
L 463.39254 160.166646 
" clip-path="url(#p5f55c689a8)" style="fill: none; stroke-dasharray: 7.4,3.2; stroke-dashoffset: 0; stroke: #b0b0b0; stroke-opacity: 0.5; stroke-width: 2"/>
     </g>
     <g id="line2d_28">
      <g>
       <use xlink:href="#mb2041d48eb" x="282.263204" y="160.166646" style="stroke: #000000; stroke-width: 2"/>
      </g>
     </g>
    </g>
    <g id="ytick_5">
     <g id="line2d_29">
      <path d="M 282.263204 110.677437 
L 463.39254 110.677437 
" clip-path="url(#p5f55c689a8)" style="fill: none; stroke-dasharray: 7.4,3.2; stroke-dashoffset: 0; stroke: #b0b0b0; stroke-opacity: 0.5; stroke-width: 2"/>
     </g>
     <g id="line2d_30">
      <g>
       <use xlink:href="#mb2041d48eb" x="282.263204" y="110.677437" style="stroke: #000000; stroke-width: 2"/>
      </g>
     </g>
    </g>
    <g id="ytick_6">
     <g id="line2d_31">
      <path d="M 282.263204 61.188228 
L 463.39254 61.188228 
" clip-path="url(#p5f55c689a8)" style="fill: none; stroke-dasharray: 7.4,3.2; stroke-dashoffset: 0; stroke: #b0b0b0; stroke-opacity: 0.5; stroke-width: 2"/>
     </g>
     <g id="line2d_32">
      <g>
       <use xlink:href="#mb2041d48eb" x="282.263204" y="61.188228" style="stroke: #000000; stroke-width: 2"/>
      </g>
     </g>
    </g>
   </g>
   <g id="line2d_33">
    <path d="M 290.496355 61.188228 
L 296.871827 61.277253 
L 298.410733 61.605239 
L 299.94964 62.171451 
L 301.488547 62.970418 
L 303.247298 64.15861 
L 305.006048 65.626117 
L 306.984643 67.588787 
L 309.183081 70.122265 
L 311.601364 73.286117 
L 314.23949 77.114716 
L 317.537147 82.325296 
L 321.934024 89.735804 
L 327.649964 99.612681 
L 339.081843 80.193928 
L 342.379501 75.156306 
L 345.017627 71.514953 
L 347.435909 68.559863 
L 349.634347 66.244918 
L 351.612942 64.499948 
L 353.371692 63.240424 
L 355.130443 62.271496 
L 356.66935 61.671645 
L 358.208257 61.309376 
L 359.747164 61.188228 
L 449.663292 61.188228 
L 449.663292 61.188228 
" clip-path="url(#p5f55c689a8)" style="fill: none; stroke: #cc6677; stroke-opacity: 0.5; stroke-width: 4; stroke-linecap: square"/>
   </g>
   <g id="line2d_34">
    <path d="M 290.496355 61.188228 
L 297.311514 61.277253 
L 298.850421 61.605239 
L 300.389328 62.171451 
L 301.928235 62.970418 
L 303.686985 64.15861 
L 305.445736 65.626117 
L 307.424331 67.588787 
L 309.622769 70.122265 
L 312.041051 73.286117 
L 314.679177 77.114716 
L 317.976835 82.325296 
L 322.373711 89.735804 
L 326.770588 97.341127 
L 336.004029 81.608722 
L 339.301687 76.452784 
L 342.159657 72.387489 
L 344.577939 69.325663 
L 346.776377 66.899505 
L 348.754972 65.04413 
L 350.513722 63.679453 
L 352.272473 62.599943 
L 353.81138 61.899917 
L 355.350287 61.435261 
L 356.889194 61.210493 
L 359.087632 61.188228 
L 449.663292 61.188228 
L 449.663292 61.188228 
" clip-path="url(#p5f55c689a8)" style="fill: none; stroke: #cc6677; stroke-opacity: 0.5; stroke-width: 4; stroke-linecap: square"/>
   </g>
   <g id="line2d_35">
    <path d="M 290.496355 61.188228 
L 297.311514 61.277253 
L 298.850421 61.605239 
L 300.389328 62.171451 
L 301.928235 62.970418 
L 303.686985 64.15861 
L 305.445736 65.626117 
L 307.424331 67.588787 
L 309.622769 70.122265 
L 312.041051 73.286117 
L 314.679177 77.114716 
L 317.976835 82.325296 
L 322.373711 89.735804 
L 326.550744 96.961283 
L 335.344498 81.966284 
L 338.861999 76.452784 
L 339.521531 75.476871 
L 339.741375 75.799843 
L 342.379501 72.093678 
L 344.797783 69.066914 
L 346.996221 66.677398 
L 348.974816 64.858488 
L 350.733566 63.528612 
L 352.492317 62.485762 
L 354.031224 61.818999 
L 355.570131 61.388389 
L 357.109038 61.198127 
L 360.626539 61.188228 
L 449.663292 61.188228 
L 449.663292 61.188228 
" clip-path="url(#p5f55c689a8)" style="fill: none; stroke: #cc6677; stroke-opacity: 0.5; stroke-width: 4; stroke-linecap: square"/>
   </g>
   <g id="line2d_36">
    <path d="M 290.496355 61.188228 
L 298.410733 61.277253 
L 299.94964 61.605239 
L 301.488547 62.171451 
L 303.027454 62.970418 
L 304.786205 64.15861 
L 306.544955 65.626117 
L 308.52355 67.588787 
L 310.721988 70.122265 
L 313.14027 73.286117 
L 315.778396 77.114716 
L 319.076054 82.325296 
L 323.472931 89.735804 
L 326.111057 94.296929 
L 333.146059 82.325296 
L 336.663561 76.782653 
L 339.521531 72.684196 
L 341.939813 69.58784 
L 344.138251 67.125464 
L 346.116846 65.233973 
L 347.875596 63.834753 
L 349.634347 62.718796 
L 351.173254 61.985644 
L 352.712161 61.487035 
L 354.251068 61.227808 
L 356.009818 61.188228 
L 449.663292 61.188228 
L 449.663292 61.188228 
" clip-path="url(#p5f55c689a8)" style="fill: none; stroke: #cc6677; stroke-opacity: 0.5; stroke-width: 4; stroke-linecap: square"/>
   </g>
   <g id="line2d_37">
    <path d="M 290.496355 61.188228 
L 455.159388 61.188228 
L 455.159388 61.188228 
" clip-path="url(#p5f55c689a8)" style="fill: none; stroke: #44aa99; stroke-opacity: 0.5; stroke-width: 4; stroke-linecap: square"/>
   </g>
   <g id="line2d_38">
    <path d="M 290.496355 61.188228 
L 455.159388 61.188228 
L 455.159388 61.188228 
" clip-path="url(#p5f55c689a8)" style="fill: none; stroke: #44aa99; stroke-opacity: 0.5; stroke-width: 4; stroke-linecap: square"/>
   </g>
   <g id="line2d_39">
    <path d="M 290.496355 61.188228 
L 455.159388 61.188228 
L 455.159388 61.188228 
" clip-path="url(#p5f55c689a8)" style="fill: none; stroke: #44aa99; stroke-opacity: 0.5; stroke-width: 4; stroke-linecap: square"/>
   </g>
   <g id="line2d_40">
    <path d="M 290.496355 61.188228 
L 449.663292 61.188228 
L 449.663292 61.188228 
" clip-path="url(#p5f55c689a8)" style="fill: none; stroke: #44aa99; stroke-opacity: 0.5; stroke-width: 4; stroke-linecap: square"/>
   </g>
   <g id="line2d_41">
    <path d="M 290.496355 61.188228 
L 449.663292 61.188228 
L 449.663292 61.188228 
" clip-path="url(#p5f55c689a8)" style="fill: none; stroke: #44aa99; stroke-opacity: 0.5; stroke-width: 4; stroke-linecap: square"/>
   </g>
   <g id="line2d_42">
    <path d="M 290.496355 61.188228 
L 449.663292 61.188228 
L 449.663292 61.188228 
" clip-path="url(#p5f55c689a8)" style="fill: none; stroke: #44aa99; stroke-opacity: 0.5; stroke-width: 4; stroke-linecap: square"/>
   </g>
   <g id="line2d_43"/>
   <g id="line2d_44"/>
   <g id="patch_6">
    <path d="M 282.263204 160.166646 
L 282.263204 61.188228 
" style="fill: none; stroke: #000000; stroke-width: 2; stroke-linejoin: miter; stroke-linecap: square"/>
   </g>
   <g id="patch_7">
    <path d="M 282.263204 160.166646 
L 463.39254 160.166646 
" style="fill: none; stroke: #000000; stroke-width: 2; stroke-linejoin: miter; stroke-linecap: square"/>
   </g>
   <g id="text_13">
    <!-- (b) -->
    <g transform="translate(361.168497 293.643277)scale(0.2 -0.2)">
     <use xlink:href="#TimesNewRomanPSMT-28"/>
     <use xlink:href="#TimesNewRomanPSMT-62" x="33.300781"/>
     <use xlink:href="#TimesNewRomanPSMT-29" x="83.300781"/>
    </g>
   </g>
   <g id="text_14">
    <!-- Unreliable to Reliable -->
    <g transform="translate(293.355059 55.188228)scale(0.18 -0.18)">
     <defs>
      <path id="TimesNewRomanPSMT-6f" d="M 1600 2947 
Q 2250 2947 2644 2453 
Q 2978 2031 2978 1484 
Q 2978 1100 2793 706 
Q 2609 313 2286 112 
Q 1963 -88 1566 -88 
Q 919 -88 538 428 
Q 216 863 216 1403 
Q 216 1797 411 2186 
Q 606 2575 925 2761 
Q 1244 2947 1600 2947 
z
M 1503 2744 
Q 1338 2744 1170 2645 
Q 1003 2547 900 2300 
Q 797 2053 797 1666 
Q 797 1041 1045 587 
Q 1294 134 1700 134 
Q 2003 134 2200 384 
Q 2397 634 2397 1244 
Q 2397 2006 2069 2444 
Q 1847 2744 1503 2744 
z
" transform="scale(0.015625)"/>
      <path id="TimesNewRomanPSMT-52" d="M 4325 0 
L 3194 0 
L 1759 1981 
Q 1600 1975 1500 1975 
Q 1459 1975 1412 1976 
Q 1366 1978 1316 1981 
L 1316 750 
Q 1316 350 1403 253 
Q 1522 116 1759 116 
L 1925 116 
L 1925 0 
L 109 0 
L 109 116 
L 269 116 
Q 538 116 653 291 
Q 719 388 719 750 
L 719 3488 
Q 719 3888 631 3984 
Q 509 4122 269 4122 
L 109 4122 
L 109 4238 
L 1653 4238 
Q 2328 4238 2648 4139 
Q 2969 4041 3192 3777 
Q 3416 3513 3416 3147 
Q 3416 2756 3161 2468 
Q 2906 2181 2372 2063 
L 3247 847 
Q 3547 428 3762 290 
Q 3978 153 4325 116 
L 4325 0 
z
M 1316 2178 
Q 1375 2178 1419 2176 
Q 1463 2175 1491 2175 
Q 2097 2175 2405 2437 
Q 2713 2700 2713 3106 
Q 2713 3503 2464 3751 
Q 2216 4000 1806 4000 
Q 1625 4000 1316 3941 
L 1316 2178 
z
" transform="scale(0.015625)"/>
     </defs>
     <use xlink:href="#TimesNewRomanPSMT-55"/>
     <use xlink:href="#TimesNewRomanPSMT-6e" x="72.216797"/>
     <use xlink:href="#TimesNewRomanPSMT-72" x="122.216797"/>
     <use xlink:href="#TimesNewRomanPSMT-65" x="155.517578"/>
     <use xlink:href="#TimesNewRomanPSMT-6c" x="199.902344"/>
     <use xlink:href="#TimesNewRomanPSMT-69" x="227.685547"/>
     <use xlink:href="#TimesNewRomanPSMT-61" x="255.46875"/>
     <use xlink:href="#TimesNewRomanPSMT-62" x="299.853516"/>
     <use xlink:href="#TimesNewRomanPSMT-6c" x="349.853516"/>
     <use xlink:href="#TimesNewRomanPSMT-65" x="377.636719"/>
     <use xlink:href="#TimesNewRomanPSMT-20" x="422.021484"/>
     <use xlink:href="#TimesNewRomanPSMT-74" x="447.021484"/>
     <use xlink:href="#TimesNewRomanPSMT-6f" x="474.804688"/>
     <use xlink:href="#TimesNewRomanPSMT-20" x="524.804688"/>
     <use xlink:href="#TimesNewRomanPSMT-52" x="549.804688"/>
     <use xlink:href="#TimesNewRomanPSMT-65" x="616.503906"/>
     <use xlink:href="#TimesNewRomanPSMT-6c" x="660.888672"/>
     <use xlink:href="#TimesNewRomanPSMT-69" x="688.671875"/>
     <use xlink:href="#TimesNewRomanPSMT-61" x="716.455078"/>
     <use xlink:href="#TimesNewRomanPSMT-62" x="760.839844"/>
     <use xlink:href="#TimesNewRomanPSMT-6c" x="810.839844"/>
     <use xlink:href="#TimesNewRomanPSMT-65" x="838.623047"/>
    </g>
   </g>
   <g id="legend_2"/>
  </g>
  <g id="text_15">
   <!-- Depression Values with Different Source Behaviours -->
   <g transform="translate(46.182475 21.0875)scale(0.2 -0.2)">
    <defs>
     <path id="TimesNewRomanPSMT-44" d="M 109 0 
L 109 116 
L 269 116 
Q 538 116 650 288 
Q 719 391 719 750 
L 719 3488 
Q 719 3884 631 3984 
Q 509 4122 269 4122 
L 109 4122 
L 109 4238 
L 1834 4238 
Q 2784 4238 3279 4022 
Q 3775 3806 4076 3303 
Q 4378 2800 4378 2141 
Q 4378 1256 3841 663 
Q 3238 0 2003 0 
L 109 0 
z
M 1319 306 
Q 1716 219 1984 219 
Q 2709 219 3187 728 
Q 3666 1238 3666 2109 
Q 3666 2988 3187 3494 
Q 2709 4000 1959 4000 
Q 1678 4000 1319 3909 
L 1319 306 
z
" transform="scale(0.015625)"/>
     <path id="TimesNewRomanPSMT-56" d="M 4544 4238 
L 4544 4122 
Q 4319 4081 4203 3978 
Q 4038 3825 3909 3509 
L 2431 -97 
L 2316 -97 
L 728 3556 
Q 606 3838 556 3900 
Q 478 3997 364 4051 
Q 250 4106 56 4122 
L 56 4238 
L 1788 4238 
L 1788 4122 
Q 1494 4094 1406 4022 
Q 1319 3950 1319 3838 
Q 1319 3681 1463 3350 
L 2541 866 
L 3541 3319 
Q 3688 3681 3688 3822 
Q 3688 3913 3597 3995 
Q 3506 4078 3291 4113 
Q 3275 4116 3238 4122 
L 3238 4238 
L 4544 4238 
z
" transform="scale(0.015625)"/>
     <path id="TimesNewRomanPSMT-75" d="M 2709 2863 
L 2709 1128 
Q 2709 631 2732 520 
Q 2756 409 2807 365 
Q 2859 322 2928 322 
Q 3025 322 3147 375 
L 3191 266 
L 2334 -88 
L 2194 -88 
L 2194 519 
Q 1825 119 1631 15 
Q 1438 -88 1222 -88 
Q 981 -88 804 51 
Q 628 191 559 409 
Q 491 628 491 1028 
L 491 2306 
Q 491 2509 447 2587 
Q 403 2666 317 2708 
Q 231 2750 6 2747 
L 6 2863 
L 1009 2863 
L 1009 947 
Q 1009 547 1148 422 
Q 1288 297 1484 297 
Q 1619 297 1789 381 
Q 1959 466 2194 703 
L 2194 2325 
Q 2194 2569 2105 2655 
Q 2016 2741 1734 2747 
L 1734 2863 
L 2709 2863 
z
" transform="scale(0.015625)"/>
     <path id="TimesNewRomanPSMT-68" d="M 1041 4444 
L 1041 2350 
Q 1388 2731 1591 2839 
Q 1794 2947 1997 2947 
Q 2241 2947 2416 2812 
Q 2591 2678 2675 2391 
Q 2734 2191 2734 1659 
L 2734 647 
Q 2734 375 2778 275 
Q 2809 200 2884 156 
Q 2959 113 3159 113 
L 3159 0 
L 1753 0 
L 1753 113 
L 1819 113 
Q 2019 113 2097 173 
Q 2175 234 2206 353 
Q 2216 403 2216 647 
L 2216 1659 
Q 2216 2128 2167 2275 
Q 2119 2422 2012 2495 
Q 1906 2569 1756 2569 
Q 1603 2569 1437 2487 
Q 1272 2406 1041 2159 
L 1041 647 
Q 1041 353 1073 281 
Q 1106 209 1195 161 
Q 1284 113 1503 113 
L 1503 0 
L 84 0 
L 84 113 
Q 275 113 384 172 
Q 447 203 484 290 
Q 522 378 522 647 
L 522 3238 
Q 522 3728 498 3840 
Q 475 3953 426 3993 
Q 378 4034 297 4034 
Q 231 4034 84 3984 
L 41 4094 
L 897 4444 
L 1041 4444 
z
" transform="scale(0.015625)"/>
     <path id="TimesNewRomanPSMT-66" d="M 1319 2638 
L 1319 756 
Q 1319 356 1406 250 
Q 1522 113 1716 113 
L 1975 113 
L 1975 0 
L 266 0 
L 266 113 
L 394 113 
Q 519 113 622 175 
Q 725 238 764 344 
Q 803 450 803 756 
L 803 2638 
L 247 2638 
L 247 2863 
L 803 2863 
L 803 3050 
Q 803 3478 940 3775 
Q 1078 4072 1361 4255 
Q 1644 4438 1997 4438 
Q 2325 4438 2600 4225 
Q 2781 4084 2781 3909 
Q 2781 3816 2700 3733 
Q 2619 3650 2525 3650 
Q 2453 3650 2373 3701 
Q 2294 3753 2178 3923 
Q 2063 4094 1966 4153 
Q 1869 4213 1750 4213 
Q 1606 4213 1506 4136 
Q 1406 4059 1362 3898 
Q 1319 3738 1319 3069 
L 1319 2863 
L 2056 2863 
L 2056 2638 
L 1319 2638 
z
" transform="scale(0.015625)"/>
     <path id="TimesNewRomanPSMT-63" d="M 2631 1088 
Q 2516 522 2178 217 
Q 1841 -88 1431 -88 
Q 944 -88 581 321 
Q 219 731 219 1428 
Q 219 2103 620 2525 
Q 1022 2947 1584 2947 
Q 2006 2947 2278 2723 
Q 2550 2500 2550 2259 
Q 2550 2141 2473 2067 
Q 2397 1994 2259 1994 
Q 2075 1994 1981 2113 
Q 1928 2178 1911 2362 
Q 1894 2547 1784 2644 
Q 1675 2738 1481 2738 
Q 1169 2738 978 2506 
Q 725 2200 725 1697 
Q 725 1184 976 792 
Q 1228 400 1656 400 
Q 1963 400 2206 609 
Q 2378 753 2541 1131 
L 2631 1088 
z
" transform="scale(0.015625)"/>
     <path id="TimesNewRomanPSMT-42" d="M 2956 2163 
Q 3397 2069 3616 1863 
Q 3919 1575 3919 1159 
Q 3919 844 3719 555 
Q 3519 266 3170 133 
Q 2822 0 2106 0 
L 106 0 
L 106 116 
L 266 116 
Q 531 116 647 284 
Q 719 394 719 750 
L 719 3488 
Q 719 3881 628 3984 
Q 506 4122 266 4122 
L 106 4122 
L 106 4238 
L 1938 4238 
Q 2450 4238 2759 4163 
Q 3228 4050 3475 3764 
Q 3722 3478 3722 3106 
Q 3722 2788 3528 2536 
Q 3334 2284 2956 2163 
z
M 1319 2331 
Q 1434 2309 1582 2298 
Q 1731 2288 1909 2288 
Q 2366 2288 2595 2386 
Q 2825 2484 2947 2687 
Q 3069 2891 3069 3131 
Q 3069 3503 2766 3765 
Q 2463 4028 1881 4028 
Q 1569 4028 1319 3959 
L 1319 2331 
z
M 1319 306 
Q 1681 222 2034 222 
Q 2600 222 2897 476 
Q 3194 731 3194 1106 
Q 3194 1353 3059 1581 
Q 2925 1809 2622 1940 
Q 2319 2072 1872 2072 
Q 1678 2072 1540 2065 
Q 1403 2059 1319 2044 
L 1319 306 
z
" transform="scale(0.015625)"/>
     <path id="TimesNewRomanPSMT-76" d="M 53 2863 
L 1400 2863 
L 1400 2747 
L 1313 2747 
Q 1191 2747 1127 2687 
Q 1063 2628 1063 2528 
Q 1063 2419 1128 2269 
L 1794 688 
L 2463 2328 
Q 2534 2503 2534 2594 
Q 2534 2638 2509 2666 
Q 2475 2713 2422 2730 
Q 2369 2747 2206 2747 
L 2206 2863 
L 3141 2863 
L 3141 2747 
Q 2978 2734 2916 2681 
Q 2806 2588 2719 2369 
L 1703 -88 
L 1575 -88 
L 553 2328 
Q 484 2497 421 2570 
Q 359 2644 263 2694 
Q 209 2722 53 2747 
L 53 2863 
z
" transform="scale(0.015625)"/>
    </defs>
    <use xlink:href="#TimesNewRomanPSMT-44"/>
    <use xlink:href="#TimesNewRomanPSMT-65" x="72.216797"/>
    <use xlink:href="#TimesNewRomanPSMT-70" x="116.601562"/>
    <use xlink:href="#TimesNewRomanPSMT-72" x="166.601562"/>
    <use xlink:href="#TimesNewRomanPSMT-65" x="199.902344"/>
    <use xlink:href="#TimesNewRomanPSMT-73" x="244.287109"/>
    <use xlink:href="#TimesNewRomanPSMT-73" x="283.203125"/>
    <use xlink:href="#TimesNewRomanPSMT-69" x="322.119141"/>
    <use xlink:href="#TimesNewRomanPSMT-6f" x="349.902344"/>
    <use xlink:href="#TimesNewRomanPSMT-6e" x="399.902344"/>
    <use xlink:href="#TimesNewRomanPSMT-20" x="449.902344"/>
    <use xlink:href="#TimesNewRomanPSMT-56" x="473.152344"/>
    <use xlink:href="#TimesNewRomanPSMT-61" x="534.244141"/>
    <use xlink:href="#TimesNewRomanPSMT-6c" x="578.628906"/>
    <use xlink:href="#TimesNewRomanPSMT-75" x="606.412109"/>
    <use xlink:href="#TimesNewRomanPSMT-65" x="656.412109"/>
    <use xlink:href="#TimesNewRomanPSMT-73" x="700.796875"/>
    <use xlink:href="#TimesNewRomanPSMT-20" x="739.712891"/>
    <use xlink:href="#TimesNewRomanPSMT-77" x="764.712891"/>
    <use xlink:href="#TimesNewRomanPSMT-69" x="836.929688"/>
    <use xlink:href="#TimesNewRomanPSMT-74" x="864.712891"/>
    <use xlink:href="#TimesNewRomanPSMT-68" x="892.496094"/>
    <use xlink:href="#TimesNewRomanPSMT-20" x="942.496094"/>
    <use xlink:href="#TimesNewRomanPSMT-44" x="967.496094"/>
    <use xlink:href="#TimesNewRomanPSMT-69" x="1039.712891"/>
    <use xlink:href="#TimesNewRomanPSMT-66" x="1067.496094"/>
    <use xlink:href="#TimesNewRomanPSMT-66" x="1099.046875"/>
    <use xlink:href="#TimesNewRomanPSMT-65" x="1132.347656"/>
    <use xlink:href="#TimesNewRomanPSMT-72" x="1176.732422"/>
    <use xlink:href="#TimesNewRomanPSMT-65" x="1210.033203"/>
    <use xlink:href="#TimesNewRomanPSMT-6e" x="1254.417969"/>
    <use xlink:href="#TimesNewRomanPSMT-74" x="1304.417969"/>
    <use xlink:href="#TimesNewRomanPSMT-20" x="1332.201172"/>
    <use xlink:href="#TimesNewRomanPSMT-53" x="1357.201172"/>
    <use xlink:href="#TimesNewRomanPSMT-6f" x="1412.816406"/>
    <use xlink:href="#TimesNewRomanPSMT-75" x="1462.816406"/>
    <use xlink:href="#TimesNewRomanPSMT-72" x="1512.816406"/>
    <use xlink:href="#TimesNewRomanPSMT-63" x="1546.117188"/>
    <use xlink:href="#TimesNewRomanPSMT-65" x="1590.501953"/>
    <use xlink:href="#TimesNewRomanPSMT-20" x="1634.886719"/>
    <use xlink:href="#TimesNewRomanPSMT-42" x="1659.886719"/>
    <use xlink:href="#TimesNewRomanPSMT-65" x="1726.585938"/>
    <use xlink:href="#TimesNewRomanPSMT-68" x="1770.970703"/>
    <use xlink:href="#TimesNewRomanPSMT-61" x="1820.970703"/>
    <use xlink:href="#TimesNewRomanPSMT-76" x="1865.355469"/>
    <use xlink:href="#TimesNewRomanPSMT-69" x="1915.355469"/>
    <use xlink:href="#TimesNewRomanPSMT-6f" x="1943.138672"/>
    <use xlink:href="#TimesNewRomanPSMT-75" x="1993.138672"/>
    <use xlink:href="#TimesNewRomanPSMT-72" x="2043.138672"/>
    <use xlink:href="#TimesNewRomanPSMT-73" x="2076.439453"/>
   </g>
  </g>
  <g id="legend_3">
   <g id="patch_8">
    <path d="M 84.70185 269.98279 
L 430.74435 269.98279 
Q 433.94435 269.98279 433.94435 266.78279 
L 433.94435 223.22779 
Q 433.94435 220.02779 430.74435 220.02779 
L 84.70185 220.02779 
Q 81.50185 220.02779 81.50185 223.22779 
L 81.50185 266.78279 
Q 81.50185 269.98279 84.70185 269.98279 
z
" style="fill: #ffffff; opacity: 0.8; stroke: #cccccc; stroke-width: 0.48; stroke-linejoin: miter"/>
   </g>
   <g id="text_16">
    <!-- Reliable Source -->
    <g transform="translate(206.8506 237.53779)scale(0.16 -0.16)">
     <use xlink:href="#TimesNewRomanPSMT-52"/>
     <use xlink:href="#TimesNewRomanPSMT-65" x="66.699219"/>
     <use xlink:href="#TimesNewRomanPSMT-6c" x="111.083984"/>
     <use xlink:href="#TimesNewRomanPSMT-69" x="138.867188"/>
     <use xlink:href="#TimesNewRomanPSMT-61" x="166.650391"/>
     <use xlink:href="#TimesNewRomanPSMT-62" x="211.035156"/>
     <use xlink:href="#TimesNewRomanPSMT-6c" x="261.035156"/>
     <use xlink:href="#TimesNewRomanPSMT-65" x="288.818359"/>
     <use xlink:href="#TimesNewRomanPSMT-20" x="333.203125"/>
     <use xlink:href="#TimesNewRomanPSMT-53" x="358.203125"/>
     <use xlink:href="#TimesNewRomanPSMT-6f" x="413.818359"/>
     <use xlink:href="#TimesNewRomanPSMT-75" x="463.818359"/>
     <use xlink:href="#TimesNewRomanPSMT-72" x="513.818359"/>
     <use xlink:href="#TimesNewRomanPSMT-63" x="547.119141"/>
     <use xlink:href="#TimesNewRomanPSMT-65" x="591.503906"/>
    </g>
   </g>
   <g id="line2d_45">
    <path d="M 87.90185 254.56029 
L 103.90185 254.56029 
L 119.90185 254.56029 
" style="fill: none; stroke: #cc6677; stroke-width: 2.8; stroke-linecap: square"/>
   </g>
   <g id="text_17">
    <!-- False (4 Sources) -->
    <g transform="translate(132.70185 260.16029)scale(0.16 -0.16)">
     <defs>
      <path id="TimesNewRomanPSMT-46" d="M 1309 4006 
L 1309 2341 
L 2081 2341 
Q 2347 2341 2470 2458 
Q 2594 2575 2634 2922 
L 2750 2922 
L 2750 1488 
L 2634 1488 
Q 2631 1734 2570 1850 
Q 2509 1966 2401 2023 
Q 2294 2081 2081 2081 
L 1309 2081 
L 1309 750 
Q 1309 428 1350 325 
Q 1381 247 1481 191 
Q 1619 116 1769 116 
L 1922 116 
L 1922 0 
L 103 0 
L 103 116 
L 253 116 
Q 516 116 634 269 
Q 709 369 709 750 
L 709 3488 
Q 709 3809 669 3913 
Q 638 3991 541 4047 
Q 406 4122 253 4122 
L 103 4122 
L 103 4238 
L 3256 4238 
L 3297 3306 
L 3188 3306 
Q 3106 3603 2998 3742 
Q 2891 3881 2733 3943 
Q 2575 4006 2244 4006 
L 1309 4006 
z
" transform="scale(0.015625)"/>
      <path id="TimesNewRomanPSMT-34" d="M 2978 1563 
L 2978 1119 
L 2409 1119 
L 2409 0 
L 1894 0 
L 1894 1119 
L 100 1119 
L 100 1519 
L 2066 4325 
L 2409 4325 
L 2409 1563 
L 2978 1563 
z
M 1894 1563 
L 1894 3666 
L 406 1563 
L 1894 1563 
z
" transform="scale(0.015625)"/>
     </defs>
     <use xlink:href="#TimesNewRomanPSMT-46"/>
     <use xlink:href="#TimesNewRomanPSMT-61" x="55.615234"/>
     <use xlink:href="#TimesNewRomanPSMT-6c" x="100"/>
     <use xlink:href="#TimesNewRomanPSMT-73" x="127.783203"/>
     <use xlink:href="#TimesNewRomanPSMT-65" x="166.699219"/>
     <use xlink:href="#TimesNewRomanPSMT-20" x="211.083984"/>
     <use xlink:href="#TimesNewRomanPSMT-28" x="236.083984"/>
     <use xlink:href="#TimesNewRomanPSMT-34" x="269.384766"/>
     <use xlink:href="#TimesNewRomanPSMT-20" x="319.384766"/>
     <use xlink:href="#TimesNewRomanPSMT-53" x="344.384766"/>
     <use xlink:href="#TimesNewRomanPSMT-6f" x="400"/>
     <use xlink:href="#TimesNewRomanPSMT-75" x="450"/>
     <use xlink:href="#TimesNewRomanPSMT-72" x="500"/>
     <use xlink:href="#TimesNewRomanPSMT-63" x="533.300781"/>
     <use xlink:href="#TimesNewRomanPSMT-65" x="577.685547"/>
     <use xlink:href="#TimesNewRomanPSMT-73" x="622.070312"/>
     <use xlink:href="#TimesNewRomanPSMT-29" x="660.986328"/>
    </g>
   </g>
   <g id="line2d_46">
    <path d="M 275.78935 254.56029 
L 291.78935 254.56029 
L 307.78935 254.56029 
" style="fill: none; stroke: #44aa99; stroke-width: 2.8; stroke-linecap: square"/>
   </g>
   <g id="text_18">
    <!-- True (6 Sources) -->
    <g transform="translate(320.58935 260.16029)scale(0.16 -0.16)">
     <defs>
      <path id="TimesNewRomanPSMT-54" d="M 3703 4238 
L 3750 3244 
L 3631 3244 
Q 3597 3506 3538 3619 
Q 3441 3800 3280 3886 
Q 3119 3972 2856 3972 
L 2259 3972 
L 2259 734 
Q 2259 344 2344 247 
Q 2463 116 2709 116 
L 2856 116 
L 2856 0 
L 1059 0 
L 1059 116 
L 1209 116 
Q 1478 116 1591 278 
Q 1659 378 1659 734 
L 1659 3972 
L 1150 3972 
Q 853 3972 728 3928 
Q 566 3869 450 3700 
Q 334 3531 313 3244 
L 194 3244 
L 244 4238 
L 3703 4238 
z
" transform="scale(0.015625)"/>
      <path id="TimesNewRomanPSMT-36" d="M 2869 4325 
L 2869 4209 
Q 2456 4169 2195 4045 
Q 1934 3922 1679 3669 
Q 1425 3416 1258 3105 
Q 1091 2794 978 2366 
Q 1428 2675 1881 2675 
Q 2316 2675 2634 2325 
Q 2953 1975 2953 1425 
Q 2953 894 2631 456 
Q 2244 -75 1606 -75 
Q 1172 -75 869 213 
Q 275 772 275 1663 
Q 275 2231 503 2743 
Q 731 3256 1154 3653 
Q 1578 4050 1965 4187 
Q 2353 4325 2688 4325 
L 2869 4325 
z
M 925 2138 
Q 869 1716 869 1456 
Q 869 1156 980 804 
Q 1091 453 1309 247 
Q 1469 100 1697 100 
Q 1969 100 2183 356 
Q 2397 613 2397 1088 
Q 2397 1622 2184 2012 
Q 1972 2403 1581 2403 
Q 1463 2403 1327 2353 
Q 1191 2303 925 2138 
z
" transform="scale(0.015625)"/>
     </defs>
     <use xlink:href="#TimesNewRomanPSMT-54"/>
     <use xlink:href="#TimesNewRomanPSMT-72" x="57.583984"/>
     <use xlink:href="#TimesNewRomanPSMT-75" x="90.884766"/>
     <use xlink:href="#TimesNewRomanPSMT-65" x="140.884766"/>
     <use xlink:href="#TimesNewRomanPSMT-20" x="185.269531"/>
     <use xlink:href="#TimesNewRomanPSMT-28" x="210.269531"/>
     <use xlink:href="#TimesNewRomanPSMT-36" x="243.570312"/>
     <use xlink:href="#TimesNewRomanPSMT-20" x="293.570312"/>
     <use xlink:href="#TimesNewRomanPSMT-53" x="318.570312"/>
     <use xlink:href="#TimesNewRomanPSMT-6f" x="374.185547"/>
     <use xlink:href="#TimesNewRomanPSMT-75" x="424.185547"/>
     <use xlink:href="#TimesNewRomanPSMT-72" x="474.185547"/>
     <use xlink:href="#TimesNewRomanPSMT-63" x="507.486328"/>
     <use xlink:href="#TimesNewRomanPSMT-65" x="551.871094"/>
     <use xlink:href="#TimesNewRomanPSMT-73" x="596.255859"/>
     <use xlink:href="#TimesNewRomanPSMT-29" x="635.171875"/>
    </g>
   </g>
  </g>
 </g>
 <defs>
  <clipPath id="p099064c509">
   <rect x="64.908" y="61.188228" width="181.129336" height="98.978418"/>
  </clipPath>
  <clipPath id="p5f55c689a8">
   <rect x="282.263204" y="61.188228" width="181.129336" height="98.978418"/>
  </clipPath>
 </defs>
</svg>
