<?xml version="1.0" encoding="utf-8" standalone="no"?>
<!DOCTYPE svg PUBLIC "-//W3C//DTD SVG 1.1//EN"
  "http://www.w3.org/Graphics/SVG/1.1/DTD/svg11.dtd">
<svg xmlns:xlink="http://www.w3.org/1999/xlink" width="467.57029pt" height="292.267062pt" viewBox="0 0 467.57029 292.267062" xmlns="http://www.w3.org/2000/svg" version="1.1">
 <metadata>
  <rdf:RDF xmlns:dc="http://purl.org/dc/elements/1.1/" xmlns:cc="http://creativecommons.org/ns#" xmlns:rdf="http://www.w3.org/1999/02/22-rdf-syntax-ns#">
   <cc:Work>
    <dc:type rdf:resource="http://purl.org/dc/dcmitype/StillImage"/>
    <dc:date>2022-11-30T22:30:50.487877</dc:date>
    <dc:format>image/svg+xml</dc:format>
    <dc:creator>
     <cc:Agent>
      <dc:title>Matplotlib v3.5.2, https://matplotlib.org/</dc:title>
     </cc:Agent>
    </dc:creator>
   </cc:Work>
  </rdf:RDF>
 </metadata>
 <defs>
  <style type="text/css">*{stroke-linejoin: round; stroke-linecap: butt}</style>
 </defs>
 <g id="figure_1">
  <g id="patch_1">
   <path d="M 0 292.267062 
L 467.57029 292.267062 
L 467.57029 -0 
L 0 -0 
z
" style="fill: #ffffff"/>
  </g>
  <g id="axes_1">
   <g id="patch_2">
    <path d="M 61.88575 147.312306 
L 238.98999 147.312306 
L 238.98999 48.333888 
L 61.88575 48.333888 
z
" style="fill: #ffffff"/>
   </g>
   <g id="matplotlib.axis_1">
    <g id="xtick_1">
     <g id="line2d_1">
      <path d="M 69.935943 147.312306 
L 69.935943 48.333888 
" clip-path="url(#p89c935745f)" style="fill: none; stroke-dasharray: 7.4,3.2; stroke-dashoffset: 0; stroke: #b0b0b0; stroke-opacity: 0.5; stroke-width: 2"/>
     </g>
     <g id="line2d_2">
      <defs>
       <path id="m6b9a8951b8" d="M 0 0 
L 0 3.5 
" style="stroke: #000000; stroke-width: 2"/>
      </defs>
      <g>
       <use xlink:href="#m6b9a8951b8" x="69.935943" y="147.312306" style="stroke: #000000; stroke-width: 2"/>
      </g>
     </g>
     <g id="text_1">
      <!-- 0 -->
      <g transform="translate(65.935943 173.122306)scale(0.16 -0.16)">
       <defs>
        <path id="TimesNewRomanPSMT-30" d="M 231 2094 
Q 231 2819 450 3342 
Q 669 3866 1031 4122 
Q 1313 4325 1613 4325 
Q 2100 4325 2488 3828 
Q 2972 3213 2972 2159 
Q 2972 1422 2759 906 
Q 2547 391 2217 158 
Q 1888 -75 1581 -75 
Q 975 -75 572 641 
Q 231 1244 231 2094 
z
M 844 2016 
Q 844 1141 1059 588 
Q 1238 122 1591 122 
Q 1759 122 1940 273 
Q 2122 425 2216 781 
Q 2359 1319 2359 2297 
Q 2359 3022 2209 3506 
Q 2097 3866 1919 4016 
Q 1791 4119 1609 4119 
Q 1397 4119 1231 3928 
Q 1006 3669 925 3112 
Q 844 2556 844 2016 
z
" transform="scale(0.015625)"/>
       </defs>
       <use xlink:href="#TimesNewRomanPSMT-30"/>
      </g>
     </g>
    </g>
    <g id="xtick_2">
     <g id="line2d_3">
      <path d="M 110.593482 147.312306 
L 110.593482 48.333888 
" clip-path="url(#p89c935745f)" style="fill: none; stroke-dasharray: 7.4,3.2; stroke-dashoffset: 0; stroke: #b0b0b0; stroke-opacity: 0.5; stroke-width: 2"/>
     </g>
     <g id="line2d_4">
      <g>
       <use xlink:href="#m6b9a8951b8" x="110.593482" y="147.312306" style="stroke: #000000; stroke-width: 2"/>
      </g>
     </g>
     <g id="text_2">
      <!-- 25 -->
      <g transform="translate(102.593482 173.122306)scale(0.16 -0.16)">
       <defs>
        <path id="TimesNewRomanPSMT-32" d="M 2934 816 
L 2638 0 
L 138 0 
L 138 116 
Q 1241 1122 1691 1759 
Q 2141 2397 2141 2925 
Q 2141 3328 1894 3587 
Q 1647 3847 1303 3847 
Q 991 3847 742 3664 
Q 494 3481 375 3128 
L 259 3128 
Q 338 3706 661 4015 
Q 984 4325 1469 4325 
Q 1984 4325 2329 3994 
Q 2675 3663 2675 3213 
Q 2675 2891 2525 2569 
Q 2294 2063 1775 1497 
Q 997 647 803 472 
L 1909 472 
Q 2247 472 2383 497 
Q 2519 522 2628 598 
Q 2738 675 2819 816 
L 2934 816 
z
" transform="scale(0.015625)"/>
        <path id="TimesNewRomanPSMT-35" d="M 2778 4238 
L 2534 3706 
L 1259 3706 
L 981 3138 
Q 1809 3016 2294 2522 
Q 2709 2097 2709 1522 
Q 2709 1188 2573 903 
Q 2438 619 2231 419 
Q 2025 219 1772 97 
Q 1413 -75 1034 -75 
Q 653 -75 479 54 
Q 306 184 306 341 
Q 306 428 378 495 
Q 450 563 559 563 
Q 641 563 702 538 
Q 763 513 909 409 
Q 1144 247 1384 247 
Q 1750 247 2026 523 
Q 2303 800 2303 1197 
Q 2303 1581 2056 1914 
Q 1809 2247 1375 2428 
Q 1034 2569 447 2591 
L 1259 4238 
L 2778 4238 
z
" transform="scale(0.015625)"/>
       </defs>
       <use xlink:href="#TimesNewRomanPSMT-32"/>
       <use xlink:href="#TimesNewRomanPSMT-35" x="50"/>
      </g>
     </g>
    </g>
    <g id="xtick_3">
     <g id="line2d_5">
      <path d="M 151.251021 147.312306 
L 151.251021 48.333888 
" clip-path="url(#p89c935745f)" style="fill: none; stroke-dasharray: 7.4,3.2; stroke-dashoffset: 0; stroke: #b0b0b0; stroke-opacity: 0.5; stroke-width: 2"/>
     </g>
     <g id="line2d_6">
      <g>
       <use xlink:href="#m6b9a8951b8" x="151.251021" y="147.312306" style="stroke: #000000; stroke-width: 2"/>
      </g>
     </g>
     <g id="text_3">
      <!-- 50 -->
      <g transform="translate(143.251021 173.122306)scale(0.16 -0.16)">
       <use xlink:href="#TimesNewRomanPSMT-35"/>
       <use xlink:href="#TimesNewRomanPSMT-30" x="50"/>
      </g>
     </g>
    </g>
    <g id="xtick_4">
     <g id="line2d_7">
      <path d="M 191.90856 147.312306 
L 191.90856 48.333888 
" clip-path="url(#p89c935745f)" style="fill: none; stroke-dasharray: 7.4,3.2; stroke-dashoffset: 0; stroke: #b0b0b0; stroke-opacity: 0.5; stroke-width: 2"/>
     </g>
     <g id="line2d_8">
      <g>
       <use xlink:href="#m6b9a8951b8" x="191.90856" y="147.312306" style="stroke: #000000; stroke-width: 2"/>
      </g>
     </g>
     <g id="text_4">
      <!-- 75 -->
      <g transform="translate(183.90856 173.122306)scale(0.16 -0.16)">
       <defs>
        <path id="TimesNewRomanPSMT-37" d="M 644 4238 
L 2916 4238 
L 2916 4119 
L 1503 -88 
L 1153 -88 
L 2419 3728 
L 1253 3728 
Q 900 3728 750 3644 
Q 488 3500 328 3200 
L 238 3234 
L 644 4238 
z
" transform="scale(0.015625)"/>
       </defs>
       <use xlink:href="#TimesNewRomanPSMT-37"/>
       <use xlink:href="#TimesNewRomanPSMT-35" x="50"/>
      </g>
     </g>
    </g>
    <g id="xtick_5">
     <g id="line2d_9">
      <path d="M 232.566099 147.312306 
L 232.566099 48.333888 
" clip-path="url(#p89c935745f)" style="fill: none; stroke-dasharray: 7.4,3.2; stroke-dashoffset: 0; stroke: #b0b0b0; stroke-opacity: 0.5; stroke-width: 2"/>
     </g>
     <g id="line2d_10">
      <g>
       <use xlink:href="#m6b9a8951b8" x="232.566099" y="147.312306" style="stroke: #000000; stroke-width: 2"/>
      </g>
     </g>
     <g id="text_5">
      <!-- 100 -->
      <g transform="translate(220.566099 173.122306)scale(0.16 -0.16)">
       <defs>
        <path id="TimesNewRomanPSMT-31" d="M 750 3822 
L 1781 4325 
L 1884 4325 
L 1884 747 
Q 1884 391 1914 303 
Q 1944 216 2037 169 
Q 2131 122 2419 116 
L 2419 0 
L 825 0 
L 825 116 
Q 1125 122 1212 167 
Q 1300 213 1334 289 
Q 1369 366 1369 747 
L 1369 3034 
Q 1369 3497 1338 3628 
Q 1316 3728 1258 3775 
Q 1200 3822 1119 3822 
Q 1003 3822 797 3725 
L 750 3822 
z
" transform="scale(0.015625)"/>
       </defs>
       <use xlink:href="#TimesNewRomanPSMT-31"/>
       <use xlink:href="#TimesNewRomanPSMT-30" x="50"/>
       <use xlink:href="#TimesNewRomanPSMT-30" x="100"/>
      </g>
     </g>
    </g>
    <g id="text_6">
     <!-- Step -->
     <g transform="translate(134.79312 192.765806)scale(0.176 -0.176)">
      <defs>
       <path id="TimesNewRomanPSMT-53" d="M 2934 4334 
L 2934 2869 
L 2819 2869 
Q 2763 3291 2617 3541 
Q 2472 3791 2203 3937 
Q 1934 4084 1647 4084 
Q 1322 4084 1109 3886 
Q 897 3688 897 3434 
Q 897 3241 1031 3081 
Q 1225 2847 1953 2456 
Q 2547 2138 2764 1967 
Q 2981 1797 3098 1565 
Q 3216 1334 3216 1081 
Q 3216 600 2842 251 
Q 2469 -97 1881 -97 
Q 1697 -97 1534 -69 
Q 1438 -53 1133 45 
Q 828 144 747 144 
Q 669 144 623 97 
Q 578 50 556 -97 
L 441 -97 
L 441 1356 
L 556 1356 
Q 638 900 775 673 
Q 913 447 1195 297 
Q 1478 147 1816 147 
Q 2206 147 2432 353 
Q 2659 559 2659 841 
Q 2659 997 2573 1156 
Q 2488 1316 2306 1453 
Q 2184 1547 1640 1851 
Q 1097 2156 867 2337 
Q 638 2519 519 2737 
Q 400 2956 400 3219 
Q 400 3675 750 4004 
Q 1100 4334 1641 4334 
Q 1978 4334 2356 4169 
Q 2531 4091 2603 4091 
Q 2684 4091 2736 4139 
Q 2788 4188 2819 4334 
L 2934 4334 
z
" transform="scale(0.015625)"/>
       <path id="TimesNewRomanPSMT-74" d="M 1031 3803 
L 1031 2863 
L 1700 2863 
L 1700 2644 
L 1031 2644 
L 1031 788 
Q 1031 509 1111 412 
Q 1191 316 1316 316 
Q 1419 316 1516 380 
Q 1613 444 1666 569 
L 1788 569 
Q 1678 263 1478 108 
Q 1278 -47 1066 -47 
Q 922 -47 784 33 
Q 647 113 581 261 
Q 516 409 516 719 
L 516 2644 
L 63 2644 
L 63 2747 
Q 234 2816 414 2980 
Q 594 3144 734 3369 
Q 806 3488 934 3803 
L 1031 3803 
z
" transform="scale(0.015625)"/>
       <path id="TimesNewRomanPSMT-65" d="M 681 1784 
Q 678 1147 991 784 
Q 1303 422 1725 422 
Q 2006 422 2214 576 
Q 2422 731 2563 1106 
L 2659 1044 
Q 2594 616 2278 264 
Q 1963 -88 1488 -88 
Q 972 -88 605 314 
Q 238 716 238 1394 
Q 238 2128 614 2539 
Q 991 2950 1559 2950 
Q 2041 2950 2350 2633 
Q 2659 2316 2659 1784 
L 681 1784 
z
M 681 1966 
L 2006 1966 
Q 1991 2241 1941 2353 
Q 1863 2528 1708 2628 
Q 1553 2728 1384 2728 
Q 1125 2728 920 2526 
Q 716 2325 681 1966 
z
" transform="scale(0.015625)"/>
       <path id="TimesNewRomanPSMT-70" d="M -6 2578 
L 875 2934 
L 994 2934 
L 994 2266 
Q 1216 2644 1439 2795 
Q 1663 2947 1909 2947 
Q 2341 2947 2628 2609 
Q 2981 2197 2981 1534 
Q 2981 794 2556 309 
Q 2206 -88 1675 -88 
Q 1444 -88 1275 -22 
Q 1150 25 994 166 
L 994 -706 
Q 994 -1000 1030 -1079 
Q 1066 -1159 1155 -1206 
Q 1244 -1253 1478 -1253 
L 1478 -1369 
L -22 -1369 
L -22 -1253 
L 56 -1253 
Q 228 -1256 350 -1188 
Q 409 -1153 442 -1076 
Q 475 -1000 475 -688 
L 475 2019 
Q 475 2297 450 2372 
Q 425 2447 370 2484 
Q 316 2522 222 2522 
Q 147 2522 31 2478 
L -6 2578 
z
M 994 2081 
L 994 1013 
Q 994 666 1022 556 
Q 1066 375 1236 237 
Q 1406 100 1666 100 
Q 1978 100 2172 344 
Q 2425 663 2425 1241 
Q 2425 1897 2138 2250 
Q 1938 2494 1663 2494 
Q 1513 2494 1366 2419 
Q 1253 2363 994 2081 
z
" transform="scale(0.015625)"/>
      </defs>
      <use xlink:href="#TimesNewRomanPSMT-53"/>
      <use xlink:href="#TimesNewRomanPSMT-74" x="55.615234"/>
      <use xlink:href="#TimesNewRomanPSMT-65" x="83.398438"/>
      <use xlink:href="#TimesNewRomanPSMT-70" x="127.783203"/>
     </g>
    </g>
   </g>
   <g id="matplotlib.axis_2">
    <g id="ytick_1">
     <g id="line2d_11">
      <path d="M 61.88575 137.702335 
L 238.98999 137.702335 
" clip-path="url(#p89c935745f)" style="fill: none; stroke-dasharray: 7.4,3.2; stroke-dashoffset: 0; stroke: #b0b0b0; stroke-opacity: 0.5; stroke-width: 2"/>
     </g>
     <g id="line2d_12">
      <defs>
       <path id="m4f06da0ba5" d="M 0 0 
L -3.5 0 
" style="stroke: #000000; stroke-width: 2"/>
      </defs>
      <g>
       <use xlink:href="#m4f06da0ba5" x="61.88575" y="137.702335" style="stroke: #000000; stroke-width: 2"/>
      </g>
     </g>
     <g id="text_7">
      <!-- 4.0 -->
      <g transform="translate(27.18575 143.257335)scale(0.16 -0.16)">
       <defs>
        <path id="TimesNewRomanPSMT-34" d="M 2978 1563 
L 2978 1119 
L 2409 1119 
L 2409 0 
L 1894 0 
L 1894 1119 
L 100 1119 
L 100 1519 
L 2066 4325 
L 2409 4325 
L 2409 1563 
L 2978 1563 
z
M 1894 1563 
L 1894 3666 
L 406 1563 
L 1894 1563 
z
" transform="scale(0.015625)"/>
        <path id="TimesNewRomanPSMT-2e" d="M 800 606 
Q 947 606 1047 504 
Q 1147 403 1147 259 
Q 1147 116 1045 14 
Q 944 -88 800 -88 
Q 656 -88 554 14 
Q 453 116 453 259 
Q 453 406 554 506 
Q 656 606 800 606 
z
" transform="scale(0.015625)"/>
       </defs>
       <use xlink:href="#TimesNewRomanPSMT-34"/>
       <use xlink:href="#TimesNewRomanPSMT-2e" x="50"/>
       <use xlink:href="#TimesNewRomanPSMT-30" x="75"/>
      </g>
     </g>
    </g>
    <g id="ytick_2">
     <g id="line2d_13">
      <path d="M 61.88575 110.313113 
L 238.98999 110.313113 
" clip-path="url(#p89c935745f)" style="fill: none; stroke-dasharray: 7.4,3.2; stroke-dashoffset: 0; stroke: #b0b0b0; stroke-opacity: 0.5; stroke-width: 2"/>
     </g>
     <g id="line2d_14">
      <g>
       <use xlink:href="#m4f06da0ba5" x="61.88575" y="110.313113" style="stroke: #000000; stroke-width: 2"/>
      </g>
     </g>
     <g id="text_8">
      <!-- 4.5 -->
      <g transform="translate(27.18575 115.868113)scale(0.16 -0.16)">
       <use xlink:href="#TimesNewRomanPSMT-34"/>
       <use xlink:href="#TimesNewRomanPSMT-2e" x="50"/>
       <use xlink:href="#TimesNewRomanPSMT-35" x="75"/>
      </g>
     </g>
    </g>
    <g id="ytick_3">
     <g id="line2d_15">
      <path d="M 61.88575 82.923892 
L 238.98999 82.923892 
" clip-path="url(#p89c935745f)" style="fill: none; stroke-dasharray: 7.4,3.2; stroke-dashoffset: 0; stroke: #b0b0b0; stroke-opacity: 0.5; stroke-width: 2"/>
     </g>
     <g id="line2d_16">
      <g>
       <use xlink:href="#m4f06da0ba5" x="61.88575" y="82.923892" style="stroke: #000000; stroke-width: 2"/>
      </g>
     </g>
     <g id="text_9">
      <!-- 5.0 -->
      <g transform="translate(27.18575 88.478892)scale(0.16 -0.16)">
       <use xlink:href="#TimesNewRomanPSMT-35"/>
       <use xlink:href="#TimesNewRomanPSMT-2e" x="50"/>
       <use xlink:href="#TimesNewRomanPSMT-30" x="75"/>
      </g>
     </g>
    </g>
    <g id="ytick_4">
     <g id="line2d_17">
      <path d="M 61.88575 55.53467 
L 238.98999 55.53467 
" clip-path="url(#p89c935745f)" style="fill: none; stroke-dasharray: 7.4,3.2; stroke-dashoffset: 0; stroke: #b0b0b0; stroke-opacity: 0.5; stroke-width: 2"/>
     </g>
     <g id="line2d_18">
      <g>
       <use xlink:href="#m4f06da0ba5" x="61.88575" y="55.53467" style="stroke: #000000; stroke-width: 2"/>
      </g>
     </g>
     <g id="text_10">
      <!-- 5.5 -->
      <g transform="translate(27.18575 61.08967)scale(0.16 -0.16)">
       <use xlink:href="#TimesNewRomanPSMT-35"/>
       <use xlink:href="#TimesNewRomanPSMT-2e" x="50"/>
       <use xlink:href="#TimesNewRomanPSMT-35" x="75"/>
      </g>
     </g>
    </g>
    <g id="text_11">
     <!-- Loss -->
     <g transform="translate(19.421 114.448222)rotate(-90)scale(0.176 -0.176)">
      <defs>
       <path id="TimesNewRomanPSMT-4c" d="M 3669 1172 
L 3772 1150 
L 3409 0 
L 128 0 
L 128 116 
L 288 116 
Q 556 116 672 291 
Q 738 391 738 753 
L 738 3488 
Q 738 3884 650 3984 
Q 528 4122 288 4122 
L 128 4122 
L 128 4238 
L 2047 4238 
L 2047 4122 
Q 1709 4125 1573 4059 
Q 1438 3994 1388 3894 
Q 1338 3794 1338 3416 
L 1338 753 
Q 1338 494 1388 397 
Q 1425 331 1503 300 
Q 1581 269 1991 269 
L 2300 269 
Q 2788 269 2984 341 
Q 3181 413 3343 595 
Q 3506 778 3669 1172 
z
" transform="scale(0.015625)"/>
       <path id="TimesNewRomanPSMT-6f" d="M 1600 2947 
Q 2250 2947 2644 2453 
Q 2978 2031 2978 1484 
Q 2978 1100 2793 706 
Q 2609 313 2286 112 
Q 1963 -88 1566 -88 
Q 919 -88 538 428 
Q 216 863 216 1403 
Q 216 1797 411 2186 
Q 606 2575 925 2761 
Q 1244 2947 1600 2947 
z
M 1503 2744 
Q 1338 2744 1170 2645 
Q 1003 2547 900 2300 
Q 797 2053 797 1666 
Q 797 1041 1045 587 
Q 1294 134 1700 134 
Q 2003 134 2200 384 
Q 2397 634 2397 1244 
Q 2397 2006 2069 2444 
Q 1847 2744 1503 2744 
z
" transform="scale(0.015625)"/>
       <path id="TimesNewRomanPSMT-73" d="M 2050 2947 
L 2050 1972 
L 1947 1972 
Q 1828 2431 1642 2597 
Q 1456 2763 1169 2763 
Q 950 2763 815 2647 
Q 681 2531 681 2391 
Q 681 2216 781 2091 
Q 878 1963 1175 1819 
L 1631 1597 
Q 2266 1288 2266 781 
Q 2266 391 1970 151 
Q 1675 -88 1309 -88 
Q 1047 -88 709 6 
Q 606 38 541 38 
Q 469 38 428 -44 
L 325 -44 
L 325 978 
L 428 978 
Q 516 541 762 319 
Q 1009 97 1316 97 
Q 1531 97 1667 223 
Q 1803 350 1803 528 
Q 1803 744 1651 891 
Q 1500 1038 1047 1263 
Q 594 1488 453 1669 
Q 313 1847 313 2119 
Q 313 2472 555 2709 
Q 797 2947 1181 2947 
Q 1350 2947 1591 2875 
Q 1750 2828 1803 2828 
Q 1853 2828 1881 2850 
Q 1909 2872 1947 2947 
L 2050 2947 
z
" transform="scale(0.015625)"/>
      </defs>
      <use xlink:href="#TimesNewRomanPSMT-4c"/>
      <use xlink:href="#TimesNewRomanPSMT-6f" x="61.083984"/>
      <use xlink:href="#TimesNewRomanPSMT-73" x="111.083984"/>
      <use xlink:href="#TimesNewRomanPSMT-73" x="150"/>
     </g>
    </g>
   </g>
   <g id="line2d_19">
    <path d="M 69.935943 104.573235 
L 71.562244 102.57808 
L 73.188546 98.213466 
L 74.814847 107.690704 
L 76.441149 106.792032 
L 78.067451 105.655507 
L 79.693752 105.159716 
L 81.320054 100.841779 
L 82.946355 102.375961 
L 84.572657 102.80794 
L 86.198958 95.872922 
L 87.82526 104.111504 
L 89.451561 107.95277 
L 91.077863 109.591825 
L 92.704165 100.299023 
L 94.330466 117.808283 
L 95.956768 101.516103 
L 97.583069 110.085761 
L 99.209371 99.486627 
L 100.835672 120.158414 
L 102.461974 111.778102 
L 104.088276 100.837077 
L 105.714577 98.810944 
L 107.340879 105.418621 
L 108.96718 100.486411 
L 110.593482 102.889435 
L 112.219783 80.219412 
L 113.846085 94.558256 
L 115.472386 94.328083 
L 117.098688 107.231821 
L 118.72499 99.972727 
L 120.351291 92.900734 
L 121.977593 102.038746 
L 123.603894 86.388606 
L 125.230196 115.585333 
L 126.856497 115.435114 
L 128.482799 84.215467 
L 130.1091 100.162701 
L 131.735402 83.027564 
L 133.361704 102.382621 
L 134.988005 101.912585 
L 136.614307 119.878795 
L 138.240608 112.566651 
L 139.86691 111.584132 
L 141.493211 131.230798 
L 143.119513 93.890567 
L 144.745815 123.686574 
L 146.372116 114.572697 
L 147.998418 111.103203 
L 149.624719 113.114996 
L 151.251021 96.88177 
L 152.877322 102.813921 
L 154.503624 112.039907 
L 156.129925 122.277431 
L 157.756227 98.19816 
L 159.382529 89.573335 
L 161.00883 95.790173 
L 162.635132 111.090822 
L 164.261433 104.025594 
L 165.887735 118.156442 
L 167.514036 109.458898 
L 169.140338 91.639119 
L 170.76664 87.624623 
L 172.392941 122.13194 
L 174.019243 106.84934 
L 175.645544 89.133416 
L 177.271846 108.160349 
L 178.898147 78.38226 
L 180.524449 100.862754 
L 182.15075 97.903156 
L 183.777052 123.749054 
L 185.403354 105.081877 
L 187.029655 113.371368 
L 188.655957 135.580706 
L 190.282258 87.839019 
L 191.90856 126.791297 
L 193.534861 124.40081 
L 195.161163 112.87145 
L 196.787464 109.307086 
L 198.413766 101.251216 
L 200.040068 112.285151 
L 201.666369 107.054437 
L 203.292671 134.956846 
L 204.918972 113.087335 
L 206.545274 95.829902 
L 208.171575 106.345373 
L 209.797877 119.152177 
L 211.424179 93.708299 
L 213.05048 128.643363 
L 214.676782 105.964355 
L 216.303083 90.938283 
L 217.929385 96.483277 
L 219.555686 131.706659 
L 221.181988 110.590434 
L 222.808289 94.884735 
L 224.434591 112.991159 
L 226.060893 87.095946 
L 227.687194 98.621859 
L 229.313496 89.144961 
L 230.939797 125.837745 
" clip-path="url(#p89c935745f)" style="fill: none; stroke: #cc6677; stroke-opacity: 0.75; stroke-width: 2; stroke-linecap: square"/>
   </g>
   <g id="line2d_20">
    <path d="M 69.935943 98.868488 
L 71.562244 108.507985 
L 73.188546 100.762791 
L 74.814847 101.206916 
L 76.441149 110.049036 
L 78.067451 105.951268 
L 79.693752 104.171372 
L 81.320054 106.397326 
L 82.946355 99.239711 
L 84.572657 108.321041 
L 86.198958 96.975098 
L 87.82526 102.34378 
L 89.451561 108.230586 
L 91.077863 91.415424 
L 92.704165 99.030434 
L 94.330466 101.389785 
L 95.956768 104.0263 
L 97.583069 98.706437 
L 99.209371 57.462408 
L 100.835672 131.384621 
L 102.461974 82.813011 
L 104.088276 102.352452 
L 105.714577 108.318795 
L 107.340879 100.860142 
L 108.96718 92.110174 
L 110.593482 94.722554 
L 112.219783 101.518872 
L 113.846085 87.296681 
L 115.472386 91.46568 
L 117.098688 86.581609 
L 118.72499 111.912152 
L 120.351291 95.559477 
L 121.977593 89.451013 
L 123.603894 108.045941 
L 125.230196 89.907807 
L 126.856497 129.332681 
L 128.482799 113.506959 
L 130.1091 100.420953 
L 131.735402 107.084319 
L 133.361704 106.20589 
L 134.988005 97.450516 
L 136.614307 125.15454 
L 138.240608 110.488512 
L 139.86691 112.676043 
L 141.493211 113.211825 
L 143.119513 108.367718 
L 144.745815 100.30652 
L 146.372116 70.000512 
L 147.998418 116.984655 
L 149.624719 103.955827 
L 151.251021 102.415611 
L 152.877322 104.497511 
L 154.503624 96.601812 
L 156.129925 112.032018 
L 157.756227 86.919216 
L 159.382529 112.363199 
L 161.00883 102.683842 
L 162.635132 52.832907 
L 164.261433 95.223047 
L 165.887735 107.456247 
L 167.514036 84.898698 
L 169.140338 107.461184 
L 170.76664 132.769367 
L 172.392941 91.190083 
L 174.019243 124.393601 
L 175.645544 107.89891 
L 177.271846 109.766936 
L 178.898147 115.233151 
L 180.524449 107.16396 
L 182.15075 94.110109 
L 183.777052 132.788331 
L 185.403354 113.795668 
L 187.029655 125.84216 
L 188.655957 128.123985 
L 190.282258 112.217212 
L 191.90856 86.711349 
L 193.534861 68.527766 
L 195.161163 106.591923 
L 196.787464 108.961644 
L 198.413766 113.024672 
L 200.040068 107.281188 
L 201.666369 97.633985 
L 203.292671 126.69311 
L 204.918972 85.574746 
L 206.545274 122.087222 
L 208.171575 108.117694 
L 209.797877 65.012117 
L 211.424179 102.031093 
L 213.05048 94.543681 
L 214.676782 88.996701 
L 216.303083 123.046337 
L 217.929385 138.970637 
L 219.555686 71.699252 
L 221.181988 117.278143 
L 222.808289 104.607322 
L 224.434591 104.186365 
L 226.060893 100.14217 
L 227.687194 108.552677 
L 229.313496 86.635835 
L 230.939797 136.546194 
" clip-path="url(#p89c935745f)" style="fill: none; stroke: #cc6677; stroke-opacity: 0.75; stroke-width: 2; stroke-linecap: square"/>
   </g>
   <g id="line2d_21">
    <path d="M 69.935943 104.262976 
L 71.562244 104.040431 
L 73.188546 104.766865 
L 74.814847 104.144573 
L 76.441149 104.612781 
L 78.067451 104.684037 
L 79.693752 104.294243 
L 81.320054 104.883284 
L 82.946355 104.723244 
L 84.572657 105.513281 
L 86.198958 107.403667 
L 87.82526 107.233754 
L 89.451561 109.916397 
L 91.077863 109.676507 
L 92.704165 110.779101 
L 94.330466 114.669839 
L 95.956768 111.927641 
L 97.583069 110.552167 
L 99.209371 118.317735 
L 100.835672 112.921209 
L 102.461974 100.989934 
L 104.088276 110.968344 
L 105.714577 109.709262 
L 107.340879 110.252619 
L 108.96718 116.001927 
L 110.593482 115.432293 
L 112.219783 113.822859 
L 113.846085 109.82077 
L 115.472386 112.872338 
L 117.098688 116.710208 
L 118.72499 117.194428 
L 120.351291 118.681436 
L 121.977593 115.645436 
L 123.603894 118.295324 
L 125.230196 115.092363 
L 126.856497 117.708895 
L 128.482799 122.536153 
L 130.1091 117.75693 
L 131.735402 111.54247 
L 133.361704 113.612564 
L 134.988005 120.976165 
L 136.614307 119.273977 
L 138.240608 119.158368 
L 139.86691 118.450349 
L 141.493211 117.654225 
L 143.119513 121.825052 
L 144.745815 120.539432 
L 146.372116 117.593991 
L 147.998418 129.008135 
L 149.624719 121.65937 
L 151.251021 105.88777 
L 152.877322 120.013445 
L 154.503624 118.007921 
L 156.129925 116.766602 
L 157.756227 121.623872 
L 159.382529 124.27922 
L 161.00883 122.179662 
L 162.635132 116.850892 
L 164.261433 122.149049 
L 165.887735 125.312307 
L 167.514036 123.731553 
L 169.140338 125.927208 
L 170.76664 121.048571 
L 172.392941 127.758509 
L 174.019243 122.371569 
L 175.645544 125.075265 
L 177.271846 126.069773 
L 178.898147 125.097781 
L 180.524449 116.515663 
L 182.15075 118.32147 
L 183.777052 127.95133 
L 185.403354 125.582941 
L 187.029655 123.833997 
L 188.655957 124.186153 
L 190.282258 121.717357 
L 191.90856 130.362216 
L 193.534861 125.047995 
L 195.161163 126.375695 
L 196.787464 138.182219 
L 198.413766 128.737345 
L 200.040068 113.497947 
L 201.666369 126.321156 
L 203.292671 124.927763 
L 204.918972 123.851576 
L 206.545274 129.69962 
L 208.171575 133.534225 
L 209.797877 125.964926 
L 211.424179 124.212795 
L 213.05048 131.168083 
L 214.676782 136.039093 
L 216.303083 133.708787 
L 217.929385 134.405079 
L 219.555686 128.269972 
L 221.181988 136.965949 
L 222.808289 131.579688 
L 224.434591 131.797506 
L 226.060893 135.963213 
L 227.687194 132.021567 
L 229.313496 121.870475 
L 230.939797 120.929279 
" clip-path="url(#p89c935745f)" style="fill: none; stroke: #44aa99; stroke-opacity: 0.75; stroke-width: 2; stroke-linecap: square"/>
   </g>
   <g id="line2d_22">
    <path d="M 69.935943 104.349748 
L 71.562244 104.464103 
L 73.188546 104.65635 
L 74.814847 104.46345 
L 76.441149 104.69634 
L 78.067451 104.145304 
L 79.693752 104.832218 
L 81.320054 104.737036 
L 82.946355 105.048678 
L 84.572657 104.831487 
L 86.198958 107.436213 
L 87.82526 107.310835 
L 89.451561 110.429401 
L 91.077863 113.633512 
L 92.704165 110.521972 
L 94.330466 113.547237 
L 95.956768 114.977067 
L 97.583069 110.449279 
L 99.209371 112.209533 
L 100.835672 112.99048 
L 102.461974 103.640893 
L 104.088276 111.506163 
L 105.714577 110.701524 
L 107.340879 112.807429 
L 108.96718 113.772264 
L 110.593482 116.696494 
L 112.219783 112.167636 
L 113.846085 113.397279 
L 115.472386 112.268878 
L 117.098688 117.384271 
L 118.72499 116.007308 
L 120.351291 115.850612 
L 121.977593 115.742447 
L 123.603894 117.146105 
L 125.230196 120.792225 
L 126.856497 119.296832 
L 128.482799 118.874439 
L 130.1091 117.065732 
L 131.735402 119.738815 
L 133.361704 113.801075 
L 134.988005 118.892097 
L 136.614307 116.304767 
L 138.240608 119.110803 
L 139.86691 124.83117 
L 141.493211 118.821519 
L 143.119513 116.683565 
L 144.745815 121.730391 
L 146.372116 118.437105 
L 147.998418 118.250658 
L 149.624719 118.314105 
L 151.251021 109.524983 
L 152.877322 122.731638 
L 154.503624 118.568282 
L 156.129925 121.437634 
L 157.756227 121.014092 
L 159.382529 124.591489 
L 161.00883 119.369656 
L 162.635132 118.892828 
L 164.261433 118.437445 
L 165.887735 124.900572 
L 167.514036 126.448571 
L 169.140338 121.980651 
L 170.76664 122.569483 
L 172.392941 124.380567 
L 174.019243 127.124985 
L 175.645544 129.393175 
L 177.271846 128.021332 
L 178.898147 126.756008 
L 180.524449 124.439416 
L 182.15075 117.518138 
L 183.777052 126.011864 
L 185.403354 122.532392 
L 187.029655 126.237623 
L 188.655957 129.581765 
L 190.282258 127.150321 
L 191.90856 124.990086 
L 193.534861 127.300853 
L 195.161163 128.006809 
L 196.787464 125.77072 
L 198.413766 122.565983 
L 200.040068 115.967317 
L 201.666369 130.104016 
L 203.292671 127.048635 
L 204.918972 130.481978 
L 206.545274 124.011198 
L 208.171575 131.017734 
L 209.797877 124.277783 
L 211.424179 125.777538 
L 213.05048 125.860653 
L 214.676782 130.967844 
L 216.303083 137.203096 
L 217.929385 130.297777 
L 219.555686 129.344487 
L 221.181988 129.717565 
L 222.808289 133.416161 
L 224.434591 135.235786 
L 226.060893 136.665825 
L 227.687194 136.890774 
L 229.313496 130.363104 
L 230.939797 122.841292 
" clip-path="url(#p89c935745f)" style="fill: none; stroke: #44aa99; stroke-opacity: 0.75; stroke-width: 2; stroke-linecap: square"/>
   </g>
   <g id="line2d_23">
    <path d="M 69.935943 104.522796 
L 71.562244 104.669122 
L 73.188546 104.356409 
L 74.814847 104.362939 
L 76.441149 104.532017 
L 78.067451 104.39619 
L 79.693752 104.54223 
L 81.320054 104.610822 
L 82.946355 104.972511 
L 84.572657 105.7824 
L 86.198958 106.723701 
L 87.82526 109.910076 
L 89.451561 113.015582 
L 91.077863 112.838486 
L 92.704165 113.893201 
L 94.330466 110.418039 
L 95.956768 111.082882 
L 97.583069 106.59848 
L 99.209371 110.68687 
L 100.835672 113.021433 
L 102.461974 111.514234 
L 104.088276 111.021917 
L 105.714577 109.371134 
L 107.340879 111.311539 
L 108.96718 114.314654 
L 110.593482 115.649484 
L 112.219783 109.012422 
L 113.846085 114.571887 
L 115.472386 112.080158 
L 117.098688 116.894722 
L 118.72499 116.983793 
L 120.351291 114.701784 
L 121.977593 120.426435 
L 123.603894 118.598974 
L 125.230196 121.66287 
L 126.856497 116.163456 
L 128.482799 124.66285 
L 130.1091 113.063147 
L 131.735402 119.992549 
L 133.361704 114.373216 
L 134.988005 113.630796 
L 136.614307 116.807062 
L 138.240608 120.530786 
L 139.86691 121.817163 
L 141.493211 121.060246 
L 143.119513 116.153582 
L 144.745815 119.965958 
L 146.372116 113.167838 
L 147.998418 117.890928 
L 149.624719 121.292744 
L 151.251021 119.59753 
L 152.877322 120.936018 
L 154.503624 117.721041 
L 156.129925 117.691917 
L 157.756227 121.444608 
L 159.382529 118.762487 
L 161.00883 112.982383 
L 162.635132 125.780307 
L 164.261433 120.466817 
L 165.887735 123.547535 
L 167.514036 124.639159 
L 169.140338 121.105565 
L 170.76664 129.741622 
L 172.392941 127.526716 
L 174.019243 128.063073 
L 175.645544 121.734649 
L 177.271846 132.827067 
L 178.898147 121.117711 
L 180.524449 128.078222 
L 182.15075 116.426357 
L 183.777052 118.839333 
L 185.403354 119.170723 
L 187.029655 127.687278 
L 188.655957 127.782278 
L 190.282258 127.135433 
L 191.90856 122.200167 
L 193.534861 128.904202 
L 195.161163 119.518725 
L 196.787464 124.502941 
L 198.413766 128.844464 
L 200.040068 128.325165 
L 201.666369 129.25223 
L 203.292671 123.717657 
L 204.918972 124.398799 
L 206.545274 127.046597 
L 208.171575 123.96648 
L 209.797877 117.016156 
L 211.424179 133.133303 
L 213.05048 126.748929 
L 214.676782 131.91766 
L 216.303083 132.09183 
L 217.929385 129.881235 
L 219.555686 139.209391 
L 221.181988 131.433283 
L 222.808289 133.415638 
L 224.434591 125.80021 
L 226.060893 139.208764 
L 227.687194 128.926012 
L 229.313496 137.712391 
L 230.939797 120.030084 
" clip-path="url(#p89c935745f)" style="fill: none; stroke: #44aa99; stroke-opacity: 0.75; stroke-width: 2; stroke-linecap: square"/>
   </g>
   <g id="line2d_24">
    <path d="M 69.935943 104.186548 
L 71.562244 104.194698 
L 73.188546 103.884805 
L 74.814847 105.27778 
L 76.441149 104.671735 
L 78.067451 103.699925 
L 79.693752 104.75707 
L 81.320054 104.23474 
L 82.946355 105.09768 
L 84.572657 105.936432 
L 86.198958 109.035878 
L 87.82526 109.601333 
L 89.451561 110.014139 
L 91.077863 109.315654 
L 92.704165 116.684322 
L 94.330466 109.762731 
L 95.956768 110.511184 
L 97.583069 111.515775 
L 99.209371 111.008491 
L 100.835672 109.97522 
L 102.461974 109.88359 
L 104.088276 109.116251 
L 105.714577 113.695339 
L 107.340879 113.065446 
L 108.96718 115.411084 
L 110.593482 116.74359 
L 112.219783 110.527536 
L 113.846085 115.387079 
L 115.472386 113.973156 
L 117.098688 116.278594 
L 118.72499 115.949242 
L 120.351291 118.44899 
L 121.977593 120.624114 
L 123.603894 116.353037 
L 125.230196 113.51187 
L 126.856497 119.229651 
L 128.482799 118.62849 
L 130.1091 120.74654 
L 131.735402 118.925087 
L 133.361704 120.328457 
L 134.988005 116.336686 
L 136.614307 116.442474 
L 138.240608 120.421707 
L 139.86691 122.477356 
L 141.493211 115.93788 
L 143.119513 117.262628 
L 144.745815 118.921534 
L 146.372116 118.689977 
L 147.998418 118.730229 
L 149.624719 118.906672 
L 151.251021 118.298615 
L 152.877322 123.570913 
L 154.503624 118.769749 
L 156.129925 121.766359 
L 157.756227 123.959898 
L 159.382529 118.176999 
L 161.00883 123.265278 
L 162.635132 121.383643 
L 164.261433 122.23091 
L 165.887735 123.092439 
L 167.514036 125.816092 
L 169.140338 126.015651 
L 170.76664 124.556331 
L 172.392941 121.18983 
L 174.019243 123.680044 
L 175.645544 126.353597 
L 177.271846 128.513885 
L 178.898147 125.804207 
L 180.524449 123.521702 
L 182.15075 121.878938 
L 183.777052 123.616676 
L 185.403354 126.877546 
L 187.029655 131.182266 
L 188.655957 124.675309 
L 190.282258 120.061873 
L 191.90856 126.460691 
L 193.534861 125.892886 
L 195.161163 125.129465 
L 196.787464 124.952969 
L 198.413766 124.3761 
L 200.040068 133.145579 
L 201.666369 125.243141 
L 203.292671 125.754656 
L 204.918972 130.057626 
L 206.545274 126.536022 
L 208.171575 129.813453 
L 209.797877 127.60944 
L 211.424179 128.34883 
L 213.05048 129.596523 
L 214.676782 134.642148 
L 216.303083 135.279198 
L 217.929385 132.883122 
L 219.555686 130.116057 
L 221.181988 132.85068 
L 222.808289 133.9125 
L 224.434591 132.802044 
L 226.060893 133.112903 
L 227.687194 129.356293 
L 229.313496 129.576279 
L 230.939797 129.77038 
" clip-path="url(#p89c935745f)" style="fill: none; stroke: #44aa99; stroke-opacity: 0.75; stroke-width: 2; stroke-linecap: square"/>
   </g>
   <g id="line2d_25">
    <path d="M 69.935943 104.154054 
L 71.562244 104.564406 
L 73.188546 104.29931 
L 74.814847 104.876623 
L 76.441149 104.346562 
L 78.067451 105.330595 
L 79.693752 104.430408 
L 81.320054 104.279589 
L 82.946355 105.857209 
L 84.572657 105.746249 
L 86.198958 109.579783 
L 87.82526 112.593685 
L 89.451561 108.760543 
L 91.077863 111.834862 
L 92.704165 111.32635 
L 94.330466 112.874845 
L 95.956768 116.281441 
L 97.583069 113.076808 
L 99.209371 114.959227 
L 100.835672 110.872482 
L 102.461974 108.498059 
L 104.088276 109.715191 
L 105.714577 108.762554 
L 107.340879 112.00582 
L 108.96718 117.420891 
L 110.593482 118.081032 
L 112.219783 114.99893 
L 113.846085 110.242823 
L 115.472386 115.010475 
L 117.098688 117.507454 
L 118.72499 117.10298 
L 120.351291 113.159845 
L 121.977593 118.395391 
L 123.603894 120.402143 
L 125.230196 118.840378 
L 126.856497 115.828644 
L 128.482799 111.08518 
L 130.1091 114.131733 
L 131.735402 117.677106 
L 133.361704 120.862828 
L 134.988005 119.150636 
L 136.614307 112.603036 
L 138.240608 116.977106 
L 139.86691 118.173159 
L 141.493211 120.118031 
L 143.119513 125.810606 
L 144.745815 118.841893 
L 146.372116 121.152843 
L 147.998418 116.567904 
L 149.624719 117.028615 
L 151.251021 118.185279 
L 152.877322 115.937488 
L 154.503624 118.301514 
L 156.129925 125.494967 
L 157.756227 129.110971 
L 159.382529 124.755029 
L 161.00883 116.602383 
L 162.635132 124.424684 
L 164.261433 126.719387 
L 165.887735 124.496933 
L 167.514036 125.773803 
L 169.140338 124.805467 
L 170.76664 129.943271 
L 172.392941 124.125945 
L 174.019243 125.352533 
L 175.645544 119.83533 
L 177.271846 122.679267 
L 178.898147 121.887218 
L 180.524449 127.611373 
L 182.15075 123.782566 
L 183.777052 118.827501 
L 185.403354 123.14933 
L 187.029655 128.824116 
L 188.655957 125.765784 
L 190.282258 134.119687 
L 191.90856 124.046748 
L 193.534861 128.424683 
L 195.161163 124.556775 
L 196.787464 123.677197 
L 198.413766 125.788639 
L 200.040068 123.82752 
L 201.666369 125.06991 
L 203.292671 130.409546 
L 204.918972 136.743194 
L 206.545274 135.4267 
L 208.171575 121.18296 
L 209.797877 130.044592 
L 211.424179 136.584539 
L 213.05048 133.776518 
L 214.676782 137.859815 
L 216.303083 130.078392 
L 217.929385 137.069621 
L 219.555686 132.088461 
L 221.181988 133.753715 
L 222.808289 128.480555 
L 224.434591 130.404766 
L 226.060893 127.465098 
L 227.687194 138.490061 
L 229.313496 128.849741 
L 230.939797 125.434159 
" clip-path="url(#p89c935745f)" style="fill: none; stroke: #44aa99; stroke-opacity: 0.75; stroke-width: 2; stroke-linecap: square"/>
   </g>
   <g id="line2d_26">
    <path d="M 69.935943 104.394963 
L 71.562244 104.468675 
L 73.188546 104.005351 
L 74.814847 103.924143 
L 76.441149 103.896664 
L 78.067451 104.224266 
L 79.693752 104.368111 
L 81.320054 104.87691 
L 82.946355 106.121181 
L 84.572657 106.891054 
L 86.198958 111.176706 
L 87.82526 111.404424 
L 89.451561 110.581527 
L 91.077863 106.170915 
L 92.704165 111.577079 
L 94.330466 112.231735 
L 95.956768 119.590164 
L 97.583069 116.89945 
L 99.209371 111.874042 
L 100.835672 110.857698 
L 102.461974 110.726913 
L 104.088276 110.999714 
L 105.714577 110.837559 
L 107.340879 113.485148 
L 108.96718 115.383553 
L 110.593482 116.508323 
L 112.219783 117.337907 
L 113.846085 109.888187 
L 115.472386 114.767608 
L 117.098688 113.898739 
L 118.72499 122.063191 
L 120.351291 114.869451 
L 121.977593 117.024697 
L 123.603894 112.409249 
L 125.230196 120.82336 
L 126.856497 118.079334 
L 128.482799 119.185376 
L 130.1091 121.008058 
L 131.735402 118.23799 
L 133.361704 119.276511 
L 134.988005 118.455181 
L 136.614307 118.036236 
L 138.240608 115.594188 
L 139.86691 119.267395 
L 141.493211 117.810686 
L 143.119513 126.777374 
L 144.745815 122.608637 
L 146.372116 120.853373 
L 147.998418 117.595794 
L 149.624719 119.820363 
L 151.251021 121.169665 
L 152.877322 119.311878 
L 154.503624 124.769264 
L 156.129925 124.97363 
L 157.756227 121.897771 
L 159.382529 123.611608 
L 161.00883 115.253395 
L 162.635132 123.728471 
L 164.261433 120.616356 
L 165.887735 127.038761 
L 167.514036 120.26441 
L 169.140338 123.117672 
L 170.76664 118.294645 
L 172.392941 124.682362 
L 174.019243 125.545693 
L 175.645544 126.298222 
L 177.271846 130.335417 
L 178.898147 123.240438 
L 180.524449 125.331166 
L 182.15075 126.565172 
L 183.777052 123.47398 
L 185.403354 123.098212 
L 187.029655 125.138111 
L 188.655957 123.848494 
L 190.282258 130.255227 
L 191.90856 131.172392 
L 193.534861 129.721796 
L 195.161163 126.488404 
L 196.787464 127.760076 
L 198.413766 127.348889 
L 200.040068 126.750784 
L 201.666369 135.612991 
L 203.292671 130.780822 
L 204.918972 128.436751 
L 206.545274 132.992514 
L 208.171575 118.869476 
L 209.797877 132.460259 
L 211.424179 130.818043 
L 213.05048 134.258073 
L 214.676782 124.873067 
L 216.303083 126.956377 
L 217.929385 124.77219 
L 219.555686 133.142079 
L 221.181988 131.329063 
L 222.808289 133.314944 
L 224.434591 139.719182 
L 226.060893 131.375061 
L 227.687194 132.034862 
L 229.313496 134.150353 
L 230.939797 131.861919 
" clip-path="url(#p89c935745f)" style="fill: none; stroke: #44aa99; stroke-opacity: 0.75; stroke-width: 2; stroke-linecap: square"/>
   </g>
   <g id="line2d_27">
    <path d="M 69.935943 104.292806 
L 71.562244 104.64308 
L 73.188546 104.72199 
L 74.814847 105.025953 
L 76.441149 104.558999 
L 78.067451 104.393474 
L 79.693752 104.583709 
L 81.320054 105.299695 
L 82.946355 106.380583 
L 84.572657 109.107918 
L 86.198958 107.110413 
L 87.82526 104.540845 
L 89.451561 109.584537 
L 91.077863 110.543391 
L 92.704165 112.800742 
L 94.330466 115.418659 
L 95.956768 110.846309 
L 97.583069 113.645684 
L 99.209371 109.871078 
L 100.835672 111.078232 
L 102.461974 109.1448 
L 104.088276 109.736427 
L 105.714577 115.404762 
L 107.340879 114.680548 
L 108.96718 115.077892 
L 110.593482 113.024881 
L 112.219783 115.146745 
L 113.846085 114.106213 
L 115.472386 112.179128 
L 117.098688 121.832313 
L 118.72499 112.87461 
L 120.351291 114.775496 
L 121.977593 116.533947 
L 123.603894 116.380934 
L 125.230196 122.827239 
L 126.856497 115.993804 
L 128.482799 120.602904 
L 130.1091 118.698858 
L 131.735402 125.969732 
L 133.361704 116.322633 
L 134.988005 118.65333 
L 136.614307 115.546988 
L 138.240608 118.300313 
L 139.86691 121.292718 
L 141.493211 124.225908 
L 143.119513 116.61142 
L 144.745815 118.530773 
L 146.372116 117.991361 
L 147.998418 121.359638 
L 149.624719 116.383703 
L 151.251021 117.939329 
L 152.877322 124.765216 
L 154.503624 117.161072 
L 156.129925 118.176868 
L 157.756227 121.526887 
L 159.382529 122.766718 
L 161.00883 124.260073 
L 162.635132 119.876731 
L 164.261433 128.349848 
L 165.887735 121.640171 
L 167.514036 121.67721 
L 169.140338 124.865518 
L 170.76664 125.67431 
L 172.392941 133.030989 
L 174.019243 122.631806 
L 175.645544 128.615284 
L 177.271846 124.586761 
L 178.898147 131.263814 
L 180.524449 122.314469 
L 182.15075 121.14472 
L 183.777052 120.011068 
L 185.403354 126.556762 
L 187.029655 130.130815 
L 188.655957 131.26956 
L 190.282258 122.584502 
L 191.90856 125.442021 
L 193.534861 127.222544 
L 195.161163 127.063811 
L 196.787464 121.222402 
L 198.413766 123.140161 
L 200.040068 130.846358 
L 201.666369 122.96936 
L 203.292671 125.431077 
L 204.918972 127.197573 
L 206.545274 131.939052 
L 208.171575 133.23734 
L 209.797877 126.147977 
L 211.424179 138.063854 
L 213.05048 129.899049 
L 214.676782 126.351795 
L 216.303083 133.800914 
L 217.929385 131.167325 
L 219.555686 142.813287 
L 221.181988 128.659166 
L 222.808289 136.93066 
L 224.434591 128.575032 
L 226.060893 135.567672 
L 227.687194 129.453958 
L 229.313496 126.980278 
L 230.939797 128.264252 
" clip-path="url(#p89c935745f)" style="fill: none; stroke: #44aa99; stroke-opacity: 0.75; stroke-width: 2; stroke-linecap: square"/>
   </g>
   <g id="line2d_28">
    <path d="M 69.935943 104.289227 
L 71.562244 104.522639 
L 73.188546 103.857562 
L 74.814847 104.891198 
L 76.441149 104.104373 
L 78.067451 104.234218 
L 79.693752 104.652196 
L 81.320054 104.667712 
L 82.946355 105.513151 
L 84.572657 106.671486 
L 86.198958 107.523533 
L 87.82526 106.793442 
L 89.451561 107.213772 
L 91.077863 112.011122 
L 92.704165 108.120985 
L 94.330466 115.419651 
L 95.956768 109.256778 
L 97.583069 114.975578 
L 99.209371 111.774106 
L 100.835672 109.400859 
L 102.461974 110.456541 
L 104.088276 111.102002 
L 105.714577 110.675429 
L 107.340879 115.769795 
L 108.96718 112.002189 
L 110.593482 110.824185 
L 112.219783 112.626675 
L 113.846085 116.851676 
L 115.472386 115.457317 
L 117.098688 118.270222 
L 118.72499 120.02486 
L 120.351291 118.411246 
L 121.977593 119.004937 
L 123.603894 114.884235 
L 125.230196 118.365614 
L 126.856497 115.067261 
L 128.482799 115.831622 
L 130.1091 116.372523 
L 131.735402 116.330208 
L 133.361704 117.812567 
L 134.988005 118.620183 
L 136.614307 114.441834 
L 138.240608 116.921992 
L 139.86691 115.635876 
L 141.493211 121.046011 
L 143.119513 118.010507 
L 144.745815 119.953891 
L 146.372116 121.252832 
L 147.998418 118.058151 
L 149.624719 118.63899 
L 151.251021 119.984399 
L 152.877322 119.199899 
L 154.503624 120.632603 
L 156.129925 117.928672 
L 157.756227 114.865272 
L 159.382529 121.846287 
L 161.00883 126.019491 
L 162.635132 120.930872 
L 164.261433 125.281381 
L 165.887735 128.732173 
L 167.514036 125.493583 
L 169.140338 127.926776 
L 170.76664 120.935887 
L 172.392941 121.873218 
L 174.019243 123.000052 
L 175.645544 118.099081 
L 177.271846 123.706295 
L 178.898147 122.246217 
L 180.524449 123.067103 
L 182.15075 124.407314 
L 183.777052 120.091624 
L 185.403354 122.360128 
L 187.029655 128.817743 
L 188.655957 127.014077 
L 190.282258 124.249547 
L 191.90856 126.381572 
L 193.534861 129.290496 
L 195.161163 127.170904 
L 196.787464 124.984888 
L 198.413766 128.713706 
L 200.040068 122.714294 
L 201.666369 125.705028 
L 203.292671 126.352552 
L 204.918972 119.237591 
L 206.545274 130.598005 
L 208.171575 135.14635 
L 209.797877 127.141336 
L 211.424179 130.735085 
L 213.05048 134.140114 
L 214.676782 136.036611 
L 216.303083 132.889887 
L 217.929385 127.131593 
L 219.555686 131.02395 
L 221.181988 132.53337 
L 222.808289 120.701222 
L 224.434591 129.743763 
L 226.060893 128.77104 
L 227.687194 128.017649 
L 229.313496 129.900381 
L 230.939797 129.364495 
" clip-path="url(#p89c935745f)" style="fill: none; stroke: #44aa99; stroke-opacity: 0.75; stroke-width: 2; stroke-linecap: square"/>
   </g>
   <g id="line2d_29"/>
   <g id="line2d_30"/>
   <g id="patch_3">
    <path d="M 69.935943 135.080731 
L 110.593482 135.080731 
L 110.593482 53.766297 
L 69.935943 53.766297 
L 69.935943 135.080731 
z
" clip-path="url(#p89c935745f)" style="fill: none; stroke: #332288; stroke-width: 3; stroke-linejoin: miter"/>
   </g>
   <g id="patch_4">
    <path d="M 61.88575 147.312306 
L 61.88575 48.333888 
" style="fill: none; stroke: #000000; stroke-width: 2; stroke-linejoin: miter; stroke-linecap: square"/>
   </g>
   <g id="patch_5">
    <path d="M 61.88575 147.312306 
L 238.98999 147.312306 
" style="fill: none; stroke: #000000; stroke-width: 2; stroke-linejoin: miter; stroke-linecap: square"/>
   </g>
   <g id="text_12">
    <!-- (a) -->
    <g transform="translate(139.339433 280.788937)scale(0.2 -0.2)">
     <defs>
      <path id="TimesNewRomanPSMT-28" d="M 1988 -1253 
L 1988 -1369 
Q 1516 -1131 1200 -813 
Q 750 -359 506 256 
Q 263 872 263 1534 
Q 263 2503 741 3301 
Q 1219 4100 1988 4444 
L 1988 4313 
Q 1603 4100 1356 3731 
Q 1109 3363 987 2797 
Q 866 2231 866 1616 
Q 866 947 969 400 
Q 1050 -31 1165 -292 
Q 1281 -553 1476 -793 
Q 1672 -1034 1988 -1253 
z
" transform="scale(0.015625)"/>
      <path id="TimesNewRomanPSMT-61" d="M 1822 413 
Q 1381 72 1269 19 
Q 1100 -59 909 -59 
Q 613 -59 420 144 
Q 228 347 228 678 
Q 228 888 322 1041 
Q 450 1253 767 1440 
Q 1084 1628 1822 1897 
L 1822 2009 
Q 1822 2438 1686 2597 
Q 1550 2756 1291 2756 
Q 1094 2756 978 2650 
Q 859 2544 859 2406 
L 866 2225 
Q 866 2081 792 2003 
Q 719 1925 600 1925 
Q 484 1925 411 2006 
Q 338 2088 338 2228 
Q 338 2497 613 2722 
Q 888 2947 1384 2947 
Q 1766 2947 2009 2819 
Q 2194 2722 2281 2516 
Q 2338 2381 2338 1966 
L 2338 994 
Q 2338 584 2353 492 
Q 2369 400 2405 369 
Q 2441 338 2488 338 
Q 2538 338 2575 359 
Q 2641 400 2828 588 
L 2828 413 
Q 2478 -56 2159 -56 
Q 2006 -56 1915 50 
Q 1825 156 1822 413 
z
M 1822 616 
L 1822 1706 
Q 1350 1519 1213 1441 
Q 966 1303 859 1153 
Q 753 1003 753 825 
Q 753 600 887 451 
Q 1022 303 1197 303 
Q 1434 303 1822 616 
z
" transform="scale(0.015625)"/>
      <path id="TimesNewRomanPSMT-29" d="M 144 4313 
L 144 4444 
Q 619 4209 934 3891 
Q 1381 3434 1625 2820 
Q 1869 2206 1869 1541 
Q 1869 572 1392 -226 
Q 916 -1025 144 -1369 
L 144 -1253 
Q 528 -1038 776 -670 
Q 1025 -303 1145 264 
Q 1266 831 1266 1447 
Q 1266 2113 1163 2663 
Q 1084 3094 967 3353 
Q 850 3613 656 3853 
Q 463 4094 144 4313 
z
" transform="scale(0.015625)"/>
     </defs>
     <use xlink:href="#TimesNewRomanPSMT-28"/>
     <use xlink:href="#TimesNewRomanPSMT-61" x="33.300781"/>
     <use xlink:href="#TimesNewRomanPSMT-29" x="77.685547"/>
    </g>
   </g>
   <g id="legend_1"/>
  </g>
  <g id="axes_2">
   <g id="patch_6">
    <path d="M 283.26605 147.312306 
L 460.37029 147.312306 
L 460.37029 48.333888 
L 283.26605 48.333888 
z
" style="fill: #ffffff"/>
   </g>
   <g id="matplotlib.axis_3">
    <g id="xtick_6">
     <g id="line2d_31">
      <path d="M 291.316243 147.312306 
L 291.316243 48.333888 
" clip-path="url(#pb6aa81193a)" style="fill: none; stroke-dasharray: 7.4,3.2; stroke-dashoffset: 0; stroke: #b0b0b0; stroke-opacity: 0.5; stroke-width: 2"/>
     </g>
     <g id="line2d_32">
      <g>
       <use xlink:href="#m6b9a8951b8" x="291.316243" y="147.312306" style="stroke: #000000; stroke-width: 2"/>
      </g>
     </g>
     <g id="text_13">
      <!-- 0 -->
      <g transform="translate(287.316243 173.122306)scale(0.16 -0.16)">
       <use xlink:href="#TimesNewRomanPSMT-30"/>
      </g>
     </g>
    </g>
    <g id="xtick_7">
     <g id="line2d_33">
      <path d="M 358.401182 147.312306 
L 358.401182 48.333888 
" clip-path="url(#pb6aa81193a)" style="fill: none; stroke-dasharray: 7.4,3.2; stroke-dashoffset: 0; stroke: #b0b0b0; stroke-opacity: 0.5; stroke-width: 2"/>
     </g>
     <g id="line2d_34">
      <g>
       <use xlink:href="#m6b9a8951b8" x="358.401182" y="147.312306" style="stroke: #000000; stroke-width: 2"/>
      </g>
     </g>
     <g id="text_14">
      <!-- 10 -->
      <g transform="translate(350.401182 173.122306)scale(0.16 -0.16)">
       <use xlink:href="#TimesNewRomanPSMT-31"/>
       <use xlink:href="#TimesNewRomanPSMT-30" x="50"/>
      </g>
     </g>
    </g>
    <g id="xtick_8">
     <g id="line2d_35">
      <path d="M 425.486122 147.312306 
L 425.486122 48.333888 
" clip-path="url(#pb6aa81193a)" style="fill: none; stroke-dasharray: 7.4,3.2; stroke-dashoffset: 0; stroke: #b0b0b0; stroke-opacity: 0.5; stroke-width: 2"/>
     </g>
     <g id="line2d_36">
      <g>
       <use xlink:href="#m6b9a8951b8" x="425.486122" y="147.312306" style="stroke: #000000; stroke-width: 2"/>
      </g>
     </g>
     <g id="text_15">
      <!-- 20 -->
      <g transform="translate(417.486122 173.122306)scale(0.16 -0.16)">
       <use xlink:href="#TimesNewRomanPSMT-32"/>
       <use xlink:href="#TimesNewRomanPSMT-30" x="50"/>
      </g>
     </g>
    </g>
    <g id="text_16">
     <!-- Step -->
     <g transform="translate(356.17342 192.765806)scale(0.176 -0.176)">
      <use xlink:href="#TimesNewRomanPSMT-53"/>
      <use xlink:href="#TimesNewRomanPSMT-74" x="55.615234"/>
      <use xlink:href="#TimesNewRomanPSMT-65" x="83.398438"/>
      <use xlink:href="#TimesNewRomanPSMT-70" x="127.783203"/>
     </g>
    </g>
   </g>
   <g id="matplotlib.axis_4">
    <g id="ytick_5">
     <g id="line2d_37">
      <path d="M 283.26605 117.164403 
L 460.37029 117.164403 
" clip-path="url(#pb6aa81193a)" style="fill: none; stroke-dasharray: 7.4,3.2; stroke-dashoffset: 0; stroke: #b0b0b0; stroke-opacity: 0.5; stroke-width: 2"/>
     </g>
     <g id="line2d_38">
      <g>
       <use xlink:href="#m4f06da0ba5" x="283.26605" y="117.164403" style="stroke: #000000; stroke-width: 2"/>
      </g>
     </g>
     <g id="text_17">
      <!-- 4.5 -->
      <g transform="translate(248.56605 122.719403)scale(0.16 -0.16)">
       <use xlink:href="#TimesNewRomanPSMT-34"/>
       <use xlink:href="#TimesNewRomanPSMT-2e" x="50"/>
       <use xlink:href="#TimesNewRomanPSMT-35" x="75"/>
      </g>
     </g>
    </g>
    <g id="ytick_6">
     <g id="line2d_39">
      <path d="M 283.26605 83.825405 
L 460.37029 83.825405 
" clip-path="url(#pb6aa81193a)" style="fill: none; stroke-dasharray: 7.4,3.2; stroke-dashoffset: 0; stroke: #b0b0b0; stroke-opacity: 0.5; stroke-width: 2"/>
     </g>
     <g id="line2d_40">
      <g>
       <use xlink:href="#m4f06da0ba5" x="283.26605" y="83.825405" style="stroke: #000000; stroke-width: 2"/>
      </g>
     </g>
     <g id="text_18">
      <!-- 5.0 -->
      <g transform="translate(248.56605 89.380405)scale(0.16 -0.16)">
       <use xlink:href="#TimesNewRomanPSMT-35"/>
       <use xlink:href="#TimesNewRomanPSMT-2e" x="50"/>
       <use xlink:href="#TimesNewRomanPSMT-30" x="75"/>
      </g>
     </g>
    </g>
    <g id="ytick_7">
     <g id="line2d_41">
      <path d="M 283.26605 50.486406 
L 460.37029 50.486406 
" clip-path="url(#pb6aa81193a)" style="fill: none; stroke-dasharray: 7.4,3.2; stroke-dashoffset: 0; stroke: #b0b0b0; stroke-opacity: 0.5; stroke-width: 2"/>
     </g>
     <g id="line2d_42">
      <g>
       <use xlink:href="#m4f06da0ba5" x="283.26605" y="50.486406" style="stroke: #000000; stroke-width: 2"/>
      </g>
     </g>
     <g id="text_19">
      <!-- 5.5 -->
      <g transform="translate(248.56605 56.041406)scale(0.16 -0.16)">
       <use xlink:href="#TimesNewRomanPSMT-35"/>
       <use xlink:href="#TimesNewRomanPSMT-2e" x="50"/>
       <use xlink:href="#TimesNewRomanPSMT-35" x="75"/>
      </g>
     </g>
    </g>
   </g>
   <g id="line2d_43">
    <path d="M 291.316243 110.177647 
L 298.024737 107.749084 
L 304.733231 102.436343 
L 311.441725 113.972326 
L 318.150218 112.878435 
L 324.858712 111.495022 
L 331.567206 110.89153 
L 338.2757 105.635605 
L 344.984194 107.503058 
L 351.692688 108.028876 
L 358.401182 99.587361 
L 365.109676 109.615615 
L 371.81817 114.291321 
L 378.526664 116.286429 
L 385.235158 104.974946 
L 391.943652 126.287753 
L 398.652146 106.456413 
L 405.36064 116.887664 
L 412.069134 103.986072 
L 418.777628 129.148404 
L 425.486122 118.947632 
L 432.194615 105.629882 
L 438.903109 103.163611 
L 445.611603 111.206678 
L 452.320097 105.203041 
" clip-path="url(#pb6aa81193a)" style="fill: none; stroke: #cc6677; stroke-opacity: 0.75; stroke-width: 2; stroke-linecap: square"/>
   </g>
   <g id="line2d_44">
    <path d="M 291.316243 103.233655 
L 298.024737 114.967146 
L 304.733231 105.539459 
L 311.441725 106.080061 
L 318.150218 116.842961 
L 324.858712 111.855032 
L 331.567206 109.688488 
L 338.2757 112.397988 
L 344.984194 103.685519 
L 351.692688 114.739592 
L 358.401182 100.928963 
L 365.109676 107.463887 
L 371.81817 114.629488 
L 378.526664 94.161557 
L 385.235158 103.430781 
L 391.943652 106.302655 
L 398.652146 109.511901 
L 405.36064 103.036401 
L 412.069134 52.832907 
L 418.777628 142.813287 
L 425.486122 83.690437 
L 432.194615 107.474443 
L 438.903109 114.736858 
L 445.611603 105.657957 
L 452.320097 95.007229 
" clip-path="url(#pb6aa81193a)" style="fill: none; stroke: #cc6677; stroke-opacity: 0.75; stroke-width: 2; stroke-linecap: square"/>
   </g>
   <g id="line2d_45">
    <path d="M 291.316243 109.799992 
L 298.024737 109.529102 
L 304.733231 110.41334 
L 311.441725 109.655867 
L 318.150218 110.225784 
L 324.858712 110.31252 
L 331.567206 109.83805 
L 338.2757 110.555048 
L 344.984194 110.360243 
L 351.692688 111.321901 
L 358.401182 113.622936 
L 365.109676 113.416113 
L 371.81817 116.681508 
L 378.526664 116.389507 
L 385.235158 117.731618 
L 391.943652 122.467543 
L 398.652146 119.129656 
L 405.36064 117.455387 
L 412.069134 126.907874 
L 418.777628 120.339057 
L 425.486122 105.815944 
L 432.194615 117.96197 
L 438.903109 116.429377 
L 445.611603 117.090767 
L 452.320097 124.089001 
" clip-path="url(#pb6aa81193a)" style="fill: none; stroke: #44aa99; stroke-opacity: 0.75; stroke-width: 2; stroke-linecap: square"/>
   </g>
   <g id="line2d_46">
    <path d="M 291.316243 109.905613 
L 298.024737 110.04481 
L 304.733231 110.278817 
L 311.441725 110.044015 
L 318.150218 110.327495 
L 324.858712 109.656757 
L 331.567206 110.49289 
L 338.2757 110.377031 
L 344.984194 110.756372 
L 351.692688 110.492 
L 358.401182 113.662552 
L 365.109676 113.509938 
L 371.81817 117.305953 
L 378.526664 121.206094 
L 385.235158 117.418633 
L 391.943652 121.101077 
L 398.652146 122.841511 
L 405.36064 117.330148 
L 412.069134 119.472783 
L 418.777628 120.423376 
L 425.486122 109.042773 
L 432.194615 118.616619 
L 438.903109 117.637188 
L 445.611603 120.20056 
L 452.320097 121.374987 
" clip-path="url(#pb6aa81193a)" style="fill: none; stroke: #44aa99; stroke-opacity: 0.75; stroke-width: 2; stroke-linecap: square"/>
   </g>
   <g id="line2d_47">
    <path d="M 291.316243 110.116252 
L 298.024737 110.294365 
L 304.733231 109.913721 
L 311.441725 109.921669 
L 318.150218 110.127475 
L 324.858712 109.962144 
L 331.567206 110.139907 
L 338.2757 110.2234 
L 344.984194 110.663659 
L 351.692688 111.64948 
L 358.401182 112.79526 
L 365.109676 116.673814 
L 371.81817 120.453931 
L 378.526664 120.238364 
L 385.235158 121.522196 
L 391.943652 117.292122 
L 398.652146 118.101389 
L 405.36064 112.642837 
L 412.069134 117.619352 
L 418.777628 120.461053 
L 425.486122 118.626444 
L 432.194615 118.02718 
L 438.903109 116.017797 
L 445.611603 118.379718 
L 452.320097 122.035201 
" clip-path="url(#pb6aa81193a)" style="fill: none; stroke: #44aa99; stroke-opacity: 0.75; stroke-width: 2; stroke-linecap: square"/>
   </g>
   <g id="line2d_48">
    <path d="M 291.316243 109.706961 
L 298.024737 109.716881 
L 304.733231 109.33967 
L 311.441725 111.035241 
L 318.150218 110.297544 
L 324.858712 109.114628 
L 331.567206 110.401417 
L 338.2757 109.765622 
L 344.984194 110.816018 
L 351.692688 111.836973 
L 358.401182 115.609714 
L 365.109676 116.298002 
L 371.81817 116.800483 
L 378.526664 115.950265 
L 385.235158 124.919634 
L 391.943652 116.494461 
L 398.652146 117.405502 
L 405.36064 118.62832 
L 412.069134 118.010838 
L 418.777628 116.753109 
L 425.486122 116.641574 
L 432.194615 115.707546 
L 438.903109 121.281352 
L 445.611603 120.514627 
L 452.320097 123.369809 
" clip-path="url(#pb6aa81193a)" style="fill: none; stroke: #44aa99; stroke-opacity: 0.75; stroke-width: 2; stroke-linecap: square"/>
   </g>
   <g id="line2d_49">
    <path d="M 291.316243 109.667408 
L 298.024737 110.166901 
L 304.733231 109.844218 
L 311.441725 110.546941 
L 318.150218 109.901734 
L 324.858712 111.09953 
L 331.567206 110.003795 
L 338.2757 109.820213 
L 344.984194 111.74054 
L 351.692688 111.605477 
L 358.401182 116.271772 
L 365.109676 119.940385 
L 371.81817 115.274567 
L 378.526664 119.016722 
L 385.235158 118.397746 
L 391.943652 120.282622 
L 398.652146 124.429235 
L 405.36064 120.528457 
L 412.069134 122.819795 
L 418.777628 117.845284 
L 425.486122 114.955064 
L 432.194615 116.436594 
L 438.903109 115.277016 
L 445.611603 119.224817 
L 452.320097 125.816208 
" clip-path="url(#pb6aa81193a)" style="fill: none; stroke: #44aa99; stroke-opacity: 0.75; stroke-width: 2; stroke-linecap: square"/>
   </g>
   <g id="line2d_50">
    <path d="M 291.316243 109.960649 
L 298.024737 110.050374 
L 304.733231 109.486402 
L 311.441725 109.387553 
L 318.150218 109.354105 
L 324.858712 109.752872 
L 331.567206 109.927965 
L 338.2757 110.547291 
L 344.984194 112.061856 
L 351.692688 112.998968 
L 358.401182 118.215595 
L 365.109676 118.49278 
L 371.81817 117.491124 
L 378.526664 112.122392 
L 385.235158 118.702942 
L 391.943652 119.499808 
L 398.652146 128.456714 
L 405.36064 125.181494 
L 412.069134 119.064414 
L 418.777628 117.827288 
L 425.486122 117.668093 
L 432.194615 118.000155 
L 438.903109 117.802774 
L 445.611603 121.025501 
L 452.320097 123.336297 
" clip-path="url(#pb6aa81193a)" style="fill: none; stroke: #44aa99; stroke-opacity: 0.75; stroke-width: 2; stroke-linecap: square"/>
   </g>
   <g id="line2d_51">
    <path d="M 291.316243 109.836301 
L 298.024737 110.262666 
L 304.733231 110.358717 
L 311.441725 110.72871 
L 318.150218 110.160319 
L 324.858712 109.958837 
L 331.567206 110.190397 
L 338.2757 111.061917 
L 344.984194 112.377607 
L 351.692688 115.697403 
L 358.401182 113.265979 
L 365.109676 110.138222 
L 371.81817 116.277558 
L 378.526664 117.444704 
L 385.235158 120.192421 
L 391.943652 123.379029 
L 398.652146 117.813426 
L 405.36064 121.220911 
L 412.069134 116.626344 
L 418.777628 118.095729 
L 425.486122 115.742297 
L 432.194615 116.462443 
L 438.903109 123.362114 
L 445.611603 122.480579 
L 452.320097 122.964238 
" clip-path="url(#pb6aa81193a)" style="fill: none; stroke: #44aa99; stroke-opacity: 0.75; stroke-width: 2; stroke-linecap: square"/>
   </g>
   <g id="line2d_52">
    <path d="M 291.316243 109.831945 
L 298.024737 110.116061 
L 304.733231 109.306508 
L 311.441725 110.564682 
L 318.150218 109.606935 
L 324.858712 109.764986 
L 331.567206 110.273762 
L 338.2757 110.292648 
L 344.984194 111.321742 
L 351.692688 112.731703 
L 358.401182 113.768841 
L 365.109676 112.880152 
L 371.81817 113.39179 
L 378.526664 119.231272 
L 385.235158 114.496078 
L 391.943652 123.380237 
L 398.652146 115.8786 
L 405.36064 122.839698 
L 412.069134 118.942768 
L 418.777628 116.053979 
L 425.486122 117.338987 
L 432.194615 118.124662 
L 438.903109 117.605426 
L 445.611603 123.806443 
L 452.320097 119.220398 
" clip-path="url(#pb6aa81193a)" style="fill: none; stroke: #44aa99; stroke-opacity: 0.75; stroke-width: 2; stroke-linecap: square"/>
   </g>
   <g id="line2d_53"/>
   <g id="line2d_54"/>
   <g id="patch_7">
    <path d="M 291.316243 140.644506 
L 458.357742 140.644506 
L 458.357742 51.667788 
L 291.316243 51.667788 
L 291.316243 140.644506 
z
" clip-path="url(#pb6aa81193a)" style="fill: none; stroke: #332288; stroke-width: 3; stroke-linejoin: miter"/>
   </g>
   <g id="patch_8">
    <path d="M 283.26605 147.312306 
L 283.26605 48.333888 
" style="fill: none; stroke: #000000; stroke-width: 2; stroke-linejoin: miter; stroke-linecap: square"/>
   </g>
   <g id="patch_9">
    <path d="M 283.26605 147.312306 
L 460.37029 147.312306 
" style="fill: none; stroke: #000000; stroke-width: 2; stroke-linejoin: miter; stroke-linecap: square"/>
   </g>
   <g id="text_20">
    <!-- (b) -->
    <g transform="translate(360.158795 280.788937)scale(0.2 -0.2)">
     <defs>
      <path id="TimesNewRomanPSMT-62" d="M 984 2369 
Q 1400 2947 1881 2947 
Q 2322 2947 2650 2570 
Q 2978 2194 2978 1541 
Q 2978 778 2472 313 
Q 2038 -88 1503 -88 
Q 1253 -88 995 3 
Q 738 94 469 275 
L 469 3241 
Q 469 3728 445 3840 
Q 422 3953 372 3993 
Q 322 4034 247 4034 
Q 159 4034 28 3984 
L -16 4094 
L 844 4444 
L 984 4444 
L 984 2369 
z
M 984 2169 
L 984 456 
Q 1144 300 1314 220 
Q 1484 141 1663 141 
Q 1947 141 2192 453 
Q 2438 766 2438 1363 
Q 2438 1913 2192 2208 
Q 1947 2503 1634 2503 
Q 1469 2503 1303 2419 
Q 1178 2356 984 2169 
z
" transform="scale(0.015625)"/>
     </defs>
     <use xlink:href="#TimesNewRomanPSMT-28"/>
     <use xlink:href="#TimesNewRomanPSMT-62" x="33.300781"/>
     <use xlink:href="#TimesNewRomanPSMT-29" x="83.300781"/>
    </g>
   </g>
   <g id="legend_2"/>
  </g>
  <g id="text_21">
   <!-- Loss Values by Step, by Source -->
   <g transform="translate(128.778975 21.0875)scale(0.2 -0.2)">
    <defs>
     <path id="TimesNewRomanPSMT-20" transform="scale(0.015625)"/>
     <path id="TimesNewRomanPSMT-56" d="M 4544 4238 
L 4544 4122 
Q 4319 4081 4203 3978 
Q 4038 3825 3909 3509 
L 2431 -97 
L 2316 -97 
L 728 3556 
Q 606 3838 556 3900 
Q 478 3997 364 4051 
Q 250 4106 56 4122 
L 56 4238 
L 1788 4238 
L 1788 4122 
Q 1494 4094 1406 4022 
Q 1319 3950 1319 3838 
Q 1319 3681 1463 3350 
L 2541 866 
L 3541 3319 
Q 3688 3681 3688 3822 
Q 3688 3913 3597 3995 
Q 3506 4078 3291 4113 
Q 3275 4116 3238 4122 
L 3238 4238 
L 4544 4238 
z
" transform="scale(0.015625)"/>
     <path id="TimesNewRomanPSMT-6c" d="M 1184 4444 
L 1184 647 
Q 1184 378 1223 290 
Q 1263 203 1344 158 
Q 1425 113 1647 113 
L 1647 0 
L 244 0 
L 244 113 
Q 441 113 512 153 
Q 584 194 625 287 
Q 666 381 666 647 
L 666 3247 
Q 666 3731 644 3842 
Q 622 3953 573 3993 
Q 525 4034 450 4034 
Q 369 4034 244 3984 
L 191 4094 
L 1044 4444 
L 1184 4444 
z
" transform="scale(0.015625)"/>
     <path id="TimesNewRomanPSMT-75" d="M 2709 2863 
L 2709 1128 
Q 2709 631 2732 520 
Q 2756 409 2807 365 
Q 2859 322 2928 322 
Q 3025 322 3147 375 
L 3191 266 
L 2334 -88 
L 2194 -88 
L 2194 519 
Q 1825 119 1631 15 
Q 1438 -88 1222 -88 
Q 981 -88 804 51 
Q 628 191 559 409 
Q 491 628 491 1028 
L 491 2306 
Q 491 2509 447 2587 
Q 403 2666 317 2708 
Q 231 2750 6 2747 
L 6 2863 
L 1009 2863 
L 1009 947 
Q 1009 547 1148 422 
Q 1288 297 1484 297 
Q 1619 297 1789 381 
Q 1959 466 2194 703 
L 2194 2325 
Q 2194 2569 2105 2655 
Q 2016 2741 1734 2747 
L 1734 2863 
L 2709 2863 
z
" transform="scale(0.015625)"/>
     <path id="TimesNewRomanPSMT-79" d="M 38 2863 
L 1372 2863 
L 1372 2747 
L 1306 2747 
Q 1166 2747 1095 2686 
Q 1025 2625 1025 2534 
Q 1025 2413 1128 2197 
L 1825 753 
L 2466 2334 
Q 2519 2463 2519 2588 
Q 2519 2644 2497 2672 
Q 2472 2706 2419 2726 
Q 2366 2747 2231 2747 
L 2231 2863 
L 3163 2863 
L 3163 2747 
Q 3047 2734 2984 2696 
Q 2922 2659 2847 2556 
Q 2819 2513 2741 2316 
L 1575 -541 
Q 1406 -956 1132 -1168 
Q 859 -1381 606 -1381 
Q 422 -1381 303 -1275 
Q 184 -1169 184 -1031 
Q 184 -900 270 -820 
Q 356 -741 506 -741 
Q 609 -741 788 -809 
Q 913 -856 944 -856 
Q 1038 -856 1148 -759 
Q 1259 -663 1372 -384 
L 1575 113 
L 547 2272 
Q 500 2369 397 2513 
Q 319 2622 269 2659 
Q 197 2709 38 2747 
L 38 2863 
z
" transform="scale(0.015625)"/>
     <path id="TimesNewRomanPSMT-2c" d="M 344 -1066 
L 344 -928 
Q 666 -822 842 -598 
Q 1019 -375 1019 -125 
Q 1019 -66 991 -25 
Q 969 3 947 3 
Q 913 3 797 -59 
Q 741 -88 678 -88 
Q 525 -88 434 3 
Q 344 94 344 253 
Q 344 406 461 515 
Q 578 625 747 625 
Q 953 625 1114 445 
Q 1275 266 1275 -31 
Q 1275 -353 1051 -629 
Q 828 -906 344 -1066 
z
" transform="scale(0.015625)"/>
     <path id="TimesNewRomanPSMT-72" d="M 1038 2947 
L 1038 2303 
Q 1397 2947 1775 2947 
Q 1947 2947 2059 2842 
Q 2172 2738 2172 2600 
Q 2172 2478 2090 2393 
Q 2009 2309 1897 2309 
Q 1788 2309 1652 2417 
Q 1516 2525 1450 2525 
Q 1394 2525 1328 2463 
Q 1188 2334 1038 2041 
L 1038 669 
Q 1038 431 1097 309 
Q 1138 225 1241 169 
Q 1344 113 1538 113 
L 1538 0 
L 72 0 
L 72 113 
Q 291 113 397 181 
Q 475 231 506 341 
Q 522 394 522 644 
L 522 1753 
Q 522 2253 501 2348 
Q 481 2444 426 2487 
Q 372 2531 291 2531 
Q 194 2531 72 2484 
L 41 2597 
L 906 2947 
L 1038 2947 
z
" transform="scale(0.015625)"/>
     <path id="TimesNewRomanPSMT-63" d="M 2631 1088 
Q 2516 522 2178 217 
Q 1841 -88 1431 -88 
Q 944 -88 581 321 
Q 219 731 219 1428 
Q 219 2103 620 2525 
Q 1022 2947 1584 2947 
Q 2006 2947 2278 2723 
Q 2550 2500 2550 2259 
Q 2550 2141 2473 2067 
Q 2397 1994 2259 1994 
Q 2075 1994 1981 2113 
Q 1928 2178 1911 2362 
Q 1894 2547 1784 2644 
Q 1675 2738 1481 2738 
Q 1169 2738 978 2506 
Q 725 2200 725 1697 
Q 725 1184 976 792 
Q 1228 400 1656 400 
Q 1963 400 2206 609 
Q 2378 753 2541 1131 
L 2631 1088 
z
" transform="scale(0.015625)"/>
    </defs>
    <use xlink:href="#TimesNewRomanPSMT-4c"/>
    <use xlink:href="#TimesNewRomanPSMT-6f" x="61.083984"/>
    <use xlink:href="#TimesNewRomanPSMT-73" x="111.083984"/>
    <use xlink:href="#TimesNewRomanPSMT-73" x="150"/>
    <use xlink:href="#TimesNewRomanPSMT-20" x="188.916016"/>
    <use xlink:href="#TimesNewRomanPSMT-56" x="212.166016"/>
    <use xlink:href="#TimesNewRomanPSMT-61" x="273.257812"/>
    <use xlink:href="#TimesNewRomanPSMT-6c" x="317.642578"/>
    <use xlink:href="#TimesNewRomanPSMT-75" x="345.425781"/>
    <use xlink:href="#TimesNewRomanPSMT-65" x="395.425781"/>
    <use xlink:href="#TimesNewRomanPSMT-73" x="439.810547"/>
    <use xlink:href="#TimesNewRomanPSMT-20" x="478.726562"/>
    <use xlink:href="#TimesNewRomanPSMT-62" x="503.726562"/>
    <use xlink:href="#TimesNewRomanPSMT-79" x="553.726562"/>
    <use xlink:href="#TimesNewRomanPSMT-20" x="603.726562"/>
    <use xlink:href="#TimesNewRomanPSMT-53" x="628.726562"/>
    <use xlink:href="#TimesNewRomanPSMT-74" x="684.341797"/>
    <use xlink:href="#TimesNewRomanPSMT-65" x="712.125"/>
    <use xlink:href="#TimesNewRomanPSMT-70" x="756.509766"/>
    <use xlink:href="#TimesNewRomanPSMT-2c" x="806.509766"/>
    <use xlink:href="#TimesNewRomanPSMT-20" x="831.509766"/>
    <use xlink:href="#TimesNewRomanPSMT-62" x="856.509766"/>
    <use xlink:href="#TimesNewRomanPSMT-79" x="906.509766"/>
    <use xlink:href="#TimesNewRomanPSMT-20" x="956.509766"/>
    <use xlink:href="#TimesNewRomanPSMT-53" x="981.509766"/>
    <use xlink:href="#TimesNewRomanPSMT-6f" x="1037.125"/>
    <use xlink:href="#TimesNewRomanPSMT-75" x="1087.125"/>
    <use xlink:href="#TimesNewRomanPSMT-72" x="1137.125"/>
    <use xlink:href="#TimesNewRomanPSMT-63" x="1170.425781"/>
    <use xlink:href="#TimesNewRomanPSMT-65" x="1214.810547"/>
   </g>
  </g>
  <g id="legend_3">
   <g id="patch_10">
    <path d="M 81.6796 257.12845 
L 427.7221 257.12845 
Q 430.9221 257.12845 430.9221 253.92845 
L 430.9221 210.37345 
Q 430.9221 207.17345 427.7221 207.17345 
L 81.6796 207.17345 
Q 78.4796 207.17345 78.4796 210.37345 
L 78.4796 253.92845 
Q 78.4796 257.12845 81.6796 257.12845 
z
" style="fill: #ffffff; opacity: 0.8; stroke: #cccccc; stroke-width: 0.48; stroke-linejoin: miter"/>
   </g>
   <g id="text_22">
    <!-- Reliable Source -->
    <g transform="translate(203.82835 224.68345)scale(0.16 -0.16)">
     <defs>
      <path id="TimesNewRomanPSMT-52" d="M 4325 0 
L 3194 0 
L 1759 1981 
Q 1600 1975 1500 1975 
Q 1459 1975 1412 1976 
Q 1366 1978 1316 1981 
L 1316 750 
Q 1316 350 1403 253 
Q 1522 116 1759 116 
L 1925 116 
L 1925 0 
L 109 0 
L 109 116 
L 269 116 
Q 538 116 653 291 
Q 719 388 719 750 
L 719 3488 
Q 719 3888 631 3984 
Q 509 4122 269 4122 
L 109 4122 
L 109 4238 
L 1653 4238 
Q 2328 4238 2648 4139 
Q 2969 4041 3192 3777 
Q 3416 3513 3416 3147 
Q 3416 2756 3161 2468 
Q 2906 2181 2372 2063 
L 3247 847 
Q 3547 428 3762 290 
Q 3978 153 4325 116 
L 4325 0 
z
M 1316 2178 
Q 1375 2178 1419 2176 
Q 1463 2175 1491 2175 
Q 2097 2175 2405 2437 
Q 2713 2700 2713 3106 
Q 2713 3503 2464 3751 
Q 2216 4000 1806 4000 
Q 1625 4000 1316 3941 
L 1316 2178 
z
" transform="scale(0.015625)"/>
      <path id="TimesNewRomanPSMT-69" d="M 928 4444 
Q 1059 4444 1151 4351 
Q 1244 4259 1244 4128 
Q 1244 3997 1151 3903 
Q 1059 3809 928 3809 
Q 797 3809 703 3903 
Q 609 3997 609 4128 
Q 609 4259 701 4351 
Q 794 4444 928 4444 
z
M 1188 2947 
L 1188 647 
Q 1188 378 1227 289 
Q 1266 200 1342 156 
Q 1419 113 1622 113 
L 1622 0 
L 231 0 
L 231 113 
Q 441 113 512 153 
Q 584 194 626 287 
Q 669 381 669 647 
L 669 1750 
Q 669 2216 641 2353 
Q 619 2453 572 2492 
Q 525 2531 444 2531 
Q 356 2531 231 2484 
L 188 2597 
L 1050 2947 
L 1188 2947 
z
" transform="scale(0.015625)"/>
     </defs>
     <use xlink:href="#TimesNewRomanPSMT-52"/>
     <use xlink:href="#TimesNewRomanPSMT-65" x="66.699219"/>
     <use xlink:href="#TimesNewRomanPSMT-6c" x="111.083984"/>
     <use xlink:href="#TimesNewRomanPSMT-69" x="138.867188"/>
     <use xlink:href="#TimesNewRomanPSMT-61" x="166.650391"/>
     <use xlink:href="#TimesNewRomanPSMT-62" x="211.035156"/>
     <use xlink:href="#TimesNewRomanPSMT-6c" x="261.035156"/>
     <use xlink:href="#TimesNewRomanPSMT-65" x="288.818359"/>
     <use xlink:href="#TimesNewRomanPSMT-20" x="333.203125"/>
     <use xlink:href="#TimesNewRomanPSMT-53" x="358.203125"/>
     <use xlink:href="#TimesNewRomanPSMT-6f" x="413.818359"/>
     <use xlink:href="#TimesNewRomanPSMT-75" x="463.818359"/>
     <use xlink:href="#TimesNewRomanPSMT-72" x="513.818359"/>
     <use xlink:href="#TimesNewRomanPSMT-63" x="547.119141"/>
     <use xlink:href="#TimesNewRomanPSMT-65" x="591.503906"/>
    </g>
   </g>
   <g id="line2d_55">
    <path d="M 84.8796 241.70595 
L 100.8796 241.70595 
L 116.8796 241.70595 
" style="fill: none; stroke: #cc6677; stroke-width: 2.8; stroke-linecap: square"/>
   </g>
   <g id="text_23">
    <!-- False (2 Sources) -->
    <g transform="translate(129.6796 247.30595)scale(0.16 -0.16)">
     <defs>
      <path id="TimesNewRomanPSMT-46" d="M 1309 4006 
L 1309 2341 
L 2081 2341 
Q 2347 2341 2470 2458 
Q 2594 2575 2634 2922 
L 2750 2922 
L 2750 1488 
L 2634 1488 
Q 2631 1734 2570 1850 
Q 2509 1966 2401 2023 
Q 2294 2081 2081 2081 
L 1309 2081 
L 1309 750 
Q 1309 428 1350 325 
Q 1381 247 1481 191 
Q 1619 116 1769 116 
L 1922 116 
L 1922 0 
L 103 0 
L 103 116 
L 253 116 
Q 516 116 634 269 
Q 709 369 709 750 
L 709 3488 
Q 709 3809 669 3913 
Q 638 3991 541 4047 
Q 406 4122 253 4122 
L 103 4122 
L 103 4238 
L 3256 4238 
L 3297 3306 
L 3188 3306 
Q 3106 3603 2998 3742 
Q 2891 3881 2733 3943 
Q 2575 4006 2244 4006 
L 1309 4006 
z
" transform="scale(0.015625)"/>
     </defs>
     <use xlink:href="#TimesNewRomanPSMT-46"/>
     <use xlink:href="#TimesNewRomanPSMT-61" x="55.615234"/>
     <use xlink:href="#TimesNewRomanPSMT-6c" x="100"/>
     <use xlink:href="#TimesNewRomanPSMT-73" x="127.783203"/>
     <use xlink:href="#TimesNewRomanPSMT-65" x="166.699219"/>
     <use xlink:href="#TimesNewRomanPSMT-20" x="211.083984"/>
     <use xlink:href="#TimesNewRomanPSMT-28" x="236.083984"/>
     <use xlink:href="#TimesNewRomanPSMT-32" x="269.384766"/>
     <use xlink:href="#TimesNewRomanPSMT-20" x="319.384766"/>
     <use xlink:href="#TimesNewRomanPSMT-53" x="344.384766"/>
     <use xlink:href="#TimesNewRomanPSMT-6f" x="400"/>
     <use xlink:href="#TimesNewRomanPSMT-75" x="450"/>
     <use xlink:href="#TimesNewRomanPSMT-72" x="500"/>
     <use xlink:href="#TimesNewRomanPSMT-63" x="533.300781"/>
     <use xlink:href="#TimesNewRomanPSMT-65" x="577.685547"/>
     <use xlink:href="#TimesNewRomanPSMT-73" x="622.070312"/>
     <use xlink:href="#TimesNewRomanPSMT-29" x="660.986328"/>
    </g>
   </g>
   <g id="line2d_56">
    <path d="M 272.7671 241.70595 
L 288.7671 241.70595 
L 304.7671 241.70595 
" style="fill: none; stroke: #44aa99; stroke-width: 2.8; stroke-linecap: square"/>
   </g>
   <g id="text_24">
    <!-- True (8 Sources) -->
    <g transform="translate(317.5671 247.30595)scale(0.16 -0.16)">
     <defs>
      <path id="TimesNewRomanPSMT-54" d="M 3703 4238 
L 3750 3244 
L 3631 3244 
Q 3597 3506 3538 3619 
Q 3441 3800 3280 3886 
Q 3119 3972 2856 3972 
L 2259 3972 
L 2259 734 
Q 2259 344 2344 247 
Q 2463 116 2709 116 
L 2856 116 
L 2856 0 
L 1059 0 
L 1059 116 
L 1209 116 
Q 1478 116 1591 278 
Q 1659 378 1659 734 
L 1659 3972 
L 1150 3972 
Q 853 3972 728 3928 
Q 566 3869 450 3700 
Q 334 3531 313 3244 
L 194 3244 
L 244 4238 
L 3703 4238 
z
" transform="scale(0.015625)"/>
      <path id="TimesNewRomanPSMT-38" d="M 1228 2134 
Q 725 2547 579 2797 
Q 434 3047 434 3316 
Q 434 3728 753 4026 
Q 1072 4325 1600 4325 
Q 2113 4325 2425 4047 
Q 2738 3769 2738 3413 
Q 2738 3175 2569 2928 
Q 2400 2681 1866 2347 
Q 2416 1922 2594 1678 
Q 2831 1359 2831 1006 
Q 2831 559 2490 242 
Q 2150 -75 1597 -75 
Q 994 -75 656 303 
Q 388 606 388 966 
Q 388 1247 577 1523 
Q 766 1800 1228 2134 
z
M 1719 2469 
Q 2094 2806 2194 3001 
Q 2294 3197 2294 3444 
Q 2294 3772 2109 3958 
Q 1925 4144 1606 4144 
Q 1288 4144 1088 3959 
Q 888 3775 888 3528 
Q 888 3366 970 3203 
Q 1053 3041 1206 2894 
L 1719 2469 
z
M 1375 2016 
Q 1116 1797 991 1539 
Q 866 1281 866 981 
Q 866 578 1086 336 
Q 1306 94 1647 94 
Q 1984 94 2187 284 
Q 2391 475 2391 747 
Q 2391 972 2272 1150 
Q 2050 1481 1375 2016 
z
" transform="scale(0.015625)"/>
     </defs>
     <use xlink:href="#TimesNewRomanPSMT-54"/>
     <use xlink:href="#TimesNewRomanPSMT-72" x="57.583984"/>
     <use xlink:href="#TimesNewRomanPSMT-75" x="90.884766"/>
     <use xlink:href="#TimesNewRomanPSMT-65" x="140.884766"/>
     <use xlink:href="#TimesNewRomanPSMT-20" x="185.269531"/>
     <use xlink:href="#TimesNewRomanPSMT-28" x="210.269531"/>
     <use xlink:href="#TimesNewRomanPSMT-38" x="243.570312"/>
     <use xlink:href="#TimesNewRomanPSMT-20" x="293.570312"/>
     <use xlink:href="#TimesNewRomanPSMT-53" x="318.570312"/>
     <use xlink:href="#TimesNewRomanPSMT-6f" x="374.185547"/>
     <use xlink:href="#TimesNewRomanPSMT-75" x="424.185547"/>
     <use xlink:href="#TimesNewRomanPSMT-72" x="474.185547"/>
     <use xlink:href="#TimesNewRomanPSMT-63" x="507.486328"/>
     <use xlink:href="#TimesNewRomanPSMT-65" x="551.871094"/>
     <use xlink:href="#TimesNewRomanPSMT-73" x="596.255859"/>
     <use xlink:href="#TimesNewRomanPSMT-29" x="635.171875"/>
    </g>
   </g>
  </g>
 </g>
 <defs>
  <clipPath id="p89c935745f">
   <rect x="61.88575" y="48.333888" width="177.10424" height="98.978418"/>
  </clipPath>
  <clipPath id="pb6aa81193a">
   <rect x="283.26605" y="48.333888" width="177.10424" height="98.978418"/>
  </clipPath>
 </defs>
</svg>
